<svg width="32" height="32" viewBox="0 0 32 32" fill="none" xmlns="http://www.w3.org/2000/svg">
<path d="M22.6666 28V25.3333M22.6666 25.3333C22.313 25.3333 21.9739 25.1929 21.7238 24.9428C21.4738 24.6928 21.3333 24.3536 21.3333 24V22.6667C21.3333 21.9594 21.6142 21.2811 22.1143 20.781C22.6144 20.281 23.2927 20 24 20H26.6666C27.3739 20 28.0521 20.281 28.5522 20.781C29.0523 21.2811 29.3333 21.9594 29.3333 22.6667V24C29.3333 24.3536 29.1928 24.6928 28.9428 24.9428C28.6927 25.1929 28.3536 25.3333 28 25.3333M22.6666 25.3333H28M28 25.3333V28M25.3333 20V8.66667C25.3333 7.42899 24.8416 6.24201 23.9665 5.36684C23.0913 4.49167 21.9043 4 20.6666 4C19.4289 4 18.242 4.49167 17.3668 5.36684C16.4916 6.24201 16 7.42899 16 8.66667V23.3333C16 24.571 15.5083 25.758 14.6331 26.6332C13.758 27.5083 12.571 28 11.3333 28C10.0956 28 8.90863 27.5083 8.03346 26.6332C7.15829 25.758 6.66663 24.571 6.66663 23.3333V12M3.99996 6.66667H9.33329M3.99996 6.66667C3.64634 6.66667 3.3072 6.80714 3.05715 7.05719C2.8071 7.30724 2.66663 7.64638 2.66663 8V9.33333C2.66663 10.0406 2.94758 10.7189 3.44767 11.219C3.94777 11.719 4.62605 12 5.33329 12H7.99996C8.7072 12 9.38548 11.719 9.88558 11.219C10.3857 10.7189 10.6666 10.0406 10.6666 9.33333V8C10.6666 7.64638 10.5261 7.30724 10.2761 7.05719C10.0261 6.80714 9.68691 6.66667 9.33329 6.66667M3.99996 6.66667V4M9.33329 6.66667V4" stroke="#001126" stroke-width="2" stroke-linecap="round" stroke-linejoin="round"/>
</svg>