<svg width="25" height="24" viewBox="0 0 25 24" fill="none" xmlns="http://www.w3.org/2000/svg">
<path d="M6.09961 19.9203L7.62357 18.7012L7.63478 18.6926C7.95249 18.4384 8.11281 18.3101 8.29168 18.2188C8.45216 18.1368 8.62328 18.0771 8.7998 18.0408C8.99877 18 9.20603 18 9.62207 18H18.3031C19.421 18 19.9806 18 20.408 17.7822C20.7843 17.5905 21.0905 17.2842 21.2822 16.9079C21.5 16.4805 21.5 15.9215 21.5 14.8036V7.19691C21.5 6.07899 21.5 5.5192 21.2822 5.0918C21.0905 4.71547 20.7837 4.40973 20.4074 4.21799C19.9796 4 19.4203 4 18.3002 4H6.7002C5.58009 4 5.01962 4 4.5918 4.21799C4.21547 4.40973 3.90973 4.71547 3.71799 5.0918C3.5 5.51962 3.5 6.08009 3.5 7.2002V18.6712C3.5 19.7369 3.5 20.2696 3.71846 20.5433C3.90845 20.7813 4.19644 20.9198 4.50098 20.9195C4.85115 20.9191 5.26744 20.5861 6.09961 19.9203Z" stroke="#001126" stroke-width="1.5" stroke-linecap="round" stroke-linejoin="round"/>
</svg>
