<svg width="20" height="20" viewBox="0 0 20 20" fill="none" xmlns="http://www.w3.org/2000/svg">
<path d="M14.2074 5.94837L8.16658 11.9892L4.87575 8.70754L3.58325 10L8.16658 14.5834L15.4999 7.25004L14.2074 5.94837ZM9.99992 0.833374C4.93992 0.833374 0.833252 4.94004 0.833252 10C0.833252 15.06 4.93992 19.1667 9.99992 19.1667C15.0599 19.1667 19.1666 15.06 19.1666 10C19.1666 4.94004 15.0599 0.833374 9.99992 0.833374ZM9.99992 17.3334C5.94825 17.3334 2.66659 14.0517 2.66659 10C2.66659 5.94837 5.94825 2.66671 9.99992 2.66671C14.0516 2.66671 17.3333 5.94837 17.3333 10C17.3333 14.0517 14.0516 17.3334 9.99992 17.3334Z" fill="#2E7D32"/>
</svg>
