<svg width="16" height="17" viewBox="0 0 16 17" fill="none" xmlns="http://www.w3.org/2000/svg">
<path d="M14.14 11.0933C13.7159 12.0963 13.0525 12.9801 12.2079 13.6675C11.3633 14.3549 10.3632 14.8249 9.29496 15.0365C8.22674 15.248 7.12295 15.1947 6.0801 14.8811C5.03725 14.5676 4.08709 14.0033 3.31268 13.2377C2.53828 12.4721 1.96321 11.5284 1.63776 10.4892C1.31231 9.45004 1.24638 8.34694 1.44574 7.27637C1.64509 6.2058 2.10367 5.20036 2.78137 4.34797C3.45907 3.49557 4.33526 2.82216 5.33334 2.38661M14 8.49995C14.368 8.49995 14.67 8.20061 14.6333 7.83461C14.4796 6.30406 13.8014 4.87375 12.7136 3.78616C11.6257 2.69857 10.1953 2.02064 8.66467 1.86728C8.298 1.83061 7.99934 2.13261 7.99934 2.50061V7.83395C7.99934 8.01076 8.06958 8.18033 8.1946 8.30535C8.31962 8.43038 8.48919 8.50061 8.666 8.50061L14 8.49995Z" stroke="#001130" stroke-linecap="round" stroke-linejoin="round"/>
</svg>
