<svg width="25" height="24" viewBox="0 0 25 24" fill="none" xmlns="http://www.w3.org/2000/svg">
<path d="M2.56202 12.3479C2.47868 12.1234 2.47868 11.8764 2.56202 11.6519C3.37372 9.68373 4.75153 8.00091 6.52079 6.81677C8.29004 5.63263 10.3711 5.00049 12.5 5.00049C14.629 5.00049 16.71 5.63263 18.4792 6.81677C20.2485 8.00091 21.6263 9.68373 22.438 11.6519C22.5214 11.8764 22.5214 12.1234 22.438 12.3479C21.6263 14.316 20.2485 15.9988 18.4792 17.183C16.71 18.3671 14.629 18.9993 12.5 18.9993C10.3711 18.9993 8.29004 18.3671 6.52079 17.183C4.75153 15.9988 3.37372 14.316 2.56202 12.3479Z" stroke="#001130" stroke-linecap="round" stroke-linejoin="round"/>
<path d="M12.5 14.9999C14.1569 14.9999 15.5 13.6567 15.5 11.9999C15.5 10.343 14.1569 8.99987 12.5 8.99987C10.8432 8.99987 9.50002 10.343 9.50002 11.9999C9.50002 13.6567 10.8432 14.9999 12.5 14.9999Z" stroke="#001130" stroke-linecap="round" stroke-linejoin="round"/>
</svg>
