<svg width="32" height="32" viewBox="0 0 32 32" fill="none" xmlns="http://www.w3.org/2000/svg">
<path d="M18 2.66667H8.00001C7.29277 2.66667 6.61449 2.94762 6.11439 3.44772C5.61429 3.94781 5.33334 4.6261 5.33334 5.33333V26.6667C5.33334 27.3739 5.61429 28.0522 6.11439 28.5523C6.61449 29.0524 7.29277 29.3333 8.00001 29.3333H24C24.7072 29.3333 25.3855 29.0524 25.8856 28.5523C26.3857 28.0522 26.6667 27.3739 26.6667 26.6667V11.3333L18 2.66667Z" stroke="#001126" stroke-width="2" stroke-linecap="round" stroke-linejoin="round"/>
<path d="M18 2.66667V11.3333H26.6667" stroke="#001126" stroke-width="2" stroke-linecap="round" stroke-linejoin="round"/>
<path d="M14.6667 16.6667L12 19.3333L14.6667 22" stroke="#001126" stroke-width="2" stroke-linecap="round" stroke-linejoin="round"/>
<path d="M20 16.6667L22.6667 19.3333L20 22" stroke="#001126" stroke-width="2" stroke-linecap="round" stroke-linejoin="round"/>
</svg>
