<svg width="24" height="24" viewBox="0 0 24 24" fill="none" xmlns="http://www.w3.org/2000/svg">
<rect width="24" height="24" rx="4" fill="#ECDA15"/>
<g clip-path="url(#clip0_5879_830)">
<path d="M18.6666 12C18.6666 15.6819 15.6818 18.6667 11.9999 18.6667M18.6666 12C18.6666 8.31814 15.6818 5.33337 11.9999 5.33337M18.6666 12H5.33325M11.9999 18.6667C8.31802 18.6667 5.33325 15.6819 5.33325 12M11.9999 18.6667C10.2881 16.8693 9.33325 14.4822 9.33325 12C9.33325 9.51787 10.2881 7.13081 11.9999 5.33337M11.9999 18.6667C13.7118 16.8693 14.6666 14.4822 14.6666 12C14.6666 9.51787 13.7118 7.13081 11.9999 5.33337M5.33325 12C5.33325 8.31814 8.31802 5.33337 11.9999 5.33337" stroke="#001130" stroke-linecap="round" stroke-linejoin="round"/>
</g>
<g clip-path="url(#clip1_5879_830)">
<path d="M18.6666 12C18.6666 15.6819 15.6818 18.6667 11.9999 18.6667M18.6666 12C18.6666 8.31814 15.6818 5.33337 11.9999 5.33337M18.6666 12H5.33325M11.9999 18.6667C8.31802 18.6667 5.33325 15.6819 5.33325 12M11.9999 18.6667C10.2881 16.8693 9.33325 14.4822 9.33325 12C9.33325 9.51787 10.2881 7.13081 11.9999 5.33337M11.9999 18.6667C13.7118 16.8693 14.6666 14.4822 14.6666 12C14.6666 9.51787 13.7118 7.13081 11.9999 5.33337M5.33325 12C5.33325 8.31814 8.31802 5.33337 11.9999 5.33337" stroke="#001130" stroke-linecap="round" stroke-linejoin="round"/>
</g>
<defs>
<clipPath id="clip0_5879_830">
<rect width="16" height="16" fill="white" transform="translate(4 4)"/>
</clipPath>
<clipPath id="clip1_5879_830">
<rect width="16" height="16" fill="white" transform="translate(4 4)"/>
</clipPath>
</defs>
</svg>
