<svg width="25" height="24" viewBox="0 0 25 24" fill="none" xmlns="http://www.w3.org/2000/svg">
<path d="M7.44458 11V7C7.44458 5.67392 7.97136 4.40215 8.90905 3.46447C9.84673 2.52678 11.1185 2 12.4446 2C13.7707 2 15.0424 2.52678 15.9801 3.46447C16.9178 4.40215 17.4446 5.67392 17.4446 7V11M5.44458 11H19.4446C20.5492 11 21.4446 11.8954 21.4446 13V20C21.4446 21.1046 20.5492 22 19.4446 22H5.44458C4.34001 22 3.44458 21.1046 3.44458 20V13C3.44458 11.8954 4.34001 11 5.44458 11Z" stroke="#001130" stroke-linecap="round" stroke-linejoin="round"/>
</svg>
