<?xml version="1.0" encoding="UTF-8"?>
<svg id="Layer_2" data-name="Layer 2" xmlns="http://www.w3.org/2000/svg" viewBox="0 0 1804.53 302.08">
  <defs>
    <style>
      .cls-1 {
        fill: #15ecda;
      }

      .cls-2 {
        fill: #001126;
      }
    </style>
  </defs>
  <g id="Layer_1-2" data-name="Layer 1">
    <g>
      <g>
        <ellipse class="cls-2" cx="158.83" cy="137.49" rx="17.85" ry="17.8"/>
        <ellipse class="cls-2" cx="264.09" cy="148.97" rx="17.85" ry="17.8"/>
        <path class="cls-2" d="M93.46,76.28c2.46,1.86,5.34,2.76,8.2,2.76,4.1,0,8.16-1.85,10.83-5.36,22.52-29.61,56.79-46.59,94-46.59,34.23,0,66.73,14.82,89.17,40.65,4.91,5.65,13.48,6.26,19.15,1.37,5.67-4.9,6.28-13.45,1.37-19.11C288.59,18.23,248.6,0,206.49,0c-45.78,0-87.93,20.88-115.63,57.3-4.53,5.96-3.37,14.46,2.61,18.98Z"/>
        <path class="cls-2" d="M145.43,207.84c23.52,22.23,46.67,29.38,66.72,29.38,35.81,0,61.73-22.8,62.13-23.16,5.54-5,5.97-13.51.98-19.06-4.99-5.55-13.55-6.01-19.15-1.08-4.54,4.02-45.74,37.99-91.99-5.74-5.45-5.15-14.04-4.92-19.2.51-5.16,5.43-4.93,14.01.52,19.15Z"/>
        <path class="cls-2" d="M363.7,275.78c-1.7-.63-41.36-16.41-18.36-89.07.03-.1.03-.2.06-.3,3.99-13.21,6.16-27.2,6.16-41.69s-2.13-28.58-6.3-42.22c4.41-1.7,8.88-3.63,13.42-5.81,6.76-3.25,9.6-11.34,6.34-18.08-3.26-6.74-11.38-9.57-18.13-6.32-88.46,42.51-147.72-26.01-150.23-28.99-4.8-5.72-13.34-6.5-19.1-1.73-5.77,4.78-6.56,13.33-1.76,19.08.57.68,44.81,52.52,114.46,52.52,9.22,0,18.89-.92,28.97-2.97,3.43,11.14,5.18,22.72,5.18,34.53,0,64.86-52.9,117.63-117.92,117.63s-113.94-48.91-117.68-110.42c-.06-2.58-.13-5.18-.26-7.84-.02-.36-.11-.7-.16-1.05-.06-.45-.1-.91-.2-1.34-.1-.45-.26-.87-.41-1.31-.14-.41-.26-.81-.44-1.2-.2-.44-.44-.84-.68-1.25-.2-.34-.38-.68-.61-1-.29-.41-.62-.78-.96-1.16-.24-.27-.46-.55-.72-.8-.38-.37-.8-.68-1.22-1-.27-.2-.52-.42-.81-.6-.46-.3-.95-.54-1.44-.78-.29-.14-.57-.3-.88-.42-.51-.2-1.04-.35-1.58-.49-.33-.09-.65-.19-.99-.26-.51-.09-1.04-.12-1.57-.16-.31-.02-.6-.09-.92-.09-.11,0-.2.03-.31.03-.11,0-.22-.02-.33-.02-.36.02-.7.11-1.05.16-.45.06-.91.1-1.35.2-.44.1-.86.25-1.29.4-.41.14-.83.27-1.23.44-.42.19-.8.42-1.19.65-.37.21-.73.41-1.08.65-.37.26-.7.56-1.04.86-.32.27-.64.54-.93.84-.31.32-.57.68-.85,1.03-.26.33-.53.66-.76,1.01-.24.37-.43.77-.64,1.17-.19.38-.4.75-.56,1.15-.17.42-.28.87-.41,1.31-.12.41-.24.81-.32,1.24-.08.46-.11.94-.14,1.42-.03.34-.1.66-.1,1.01,0,.21.01.41.02.61,0,0,0,.02,0,.03,0,.05,0,.1,0,.16.01,2.62.11,5.23.26,7.81.98,47.42-10.52,67.91-20.66,76.74-11.29,9.82-23.92,7.77-24.75,7.62-7.27-1.47-14.41,3.18-15.97,10.44-1.57,7.31,3.1,14.52,10.43,16.08,2.4.51,5.51.86,9.1.86,10.61,0,25.41-3.05,38.38-14.03,9.82-8.31,17.3-19.83,22.42-34.45,25.05,43.48,72.06,72.85,125.85,72.85,41.69,0,79.3-17.65,105.78-45.83,7,44.9,41.97,57.57,42.46,57.74,1.47.5,2.96.74,4.43.74,5.66,0,10.98-3.52,12.9-9.13,2.43-7.08-1.26-14.75-8.36-17.17Z"/>
        <path class="cls-1" d="M69.45,115.24l17.3,6.12c1.83.65,3.7.95,5.53.95,6.81,0,13.19-4.23,15.6-10.99,3.06-8.59-1.45-18.03-10.06-21.08l-17.3-6.12c-8.61-3.05-18.07,1.45-21.13,10.04-3.06,8.59,1.45,18.03,10.06,21.08Z"/>
      </g>
      <g>
        <path class="cls-2" d="M571.02,135.86s-.02,0-.04,0l-30.1-7.68c-7.37-1.84-13.47-4.08-18.12-6.65-4.44-2.45-7.92-5.06-10.35-7.78-2.21-2.46-3.67-5-4.46-7.77-.93-3.24-1.4-6.83-1.39-10.65,0-3.12.6-6.57,1.78-10.25,1.07-3.34,2.91-6.37,5.62-9.28,2.71-2.9,6.57-5.4,11.48-7.43,5.02-2.07,11.64-3.15,19.49-3.11,7.87,0,14.65.82,20.13,2.42,5.54,1.61,10.22,3.56,13.91,5.79,3.73,2.26,6.73,4.53,8.92,6.74,2.36,2.39,4.23,4.46,5.56,6.18,2.61,3.71,5.38,6.07,8.44,7.21,2.36.89,4.79,1.34,7.24,1.34h.02c4.5,0,8.7-1.79,12.12-5.16,3.47-3.41,5.3-7.68,5.31-12.33,0-4.22-1.81-8.77-5.75-14.39-2.08-2.91-4.96-6.12-8.82-9.82-3.95-3.78-9-7.38-14.99-10.69-5.98-3.3-13.23-6.09-21.58-8.32-8.41-2.23-18.36-3.37-29.58-3.38-12.21-.04-23.27,1.7-32.68,5.08-9.58,3.44-17.7,8.23-24.12,14.22-6.51,6.07-11.43,13.28-14.65,21.41-3.13,7.93-4.73,16.32-4.74,24.95,0,8.94,1.24,16.99,3.71,23.92,2.56,7.21,6.58,13.65,11.94,19.14,5.18,5.32,11.83,9.94,19.75,13.74,7.51,3.61,16.53,6.75,26.76,9.33l22.76,5.82c13.34,3.42,22.83,8.21,28.2,14.25,5.15,5.8,7.65,12.89,7.64,21.68,0,5.31-.98,10-2.9,13.93-1.95,3.98-4.6,7.25-8.12,9.98-3.63,2.82-8.04,4.96-13.1,6.36-5.39,1.49-11.34,2.25-17.67,2.25h-.08c-8.54,0-15.83-.79-21.68-2.33-5.91-1.55-10.99-3.45-15.12-5.67-4.12-2.2-7.52-4.48-10.1-6.76-3.03-2.68-5.68-5.11-7.95-7.29-1.92-1.81-3.41-3.22-4.5-4.26-2.75-2.61-6.34-3.99-10.39-3.99h-.01c-3.73,0-7.44,1.56-11.36,4.76-5.5,4.49-6.66,9.57-6.66,13.03,0,2.83.57,5.65,1.7,8.33,1.1,2.64,3.02,5.39,5.87,8.4,2.23,2.56,5.27,5.46,9.26,8.87,4.27,3.66,9.75,7.08,16.3,10.16,6.34,2.99,13.89,5.57,22.43,7.65,8.64,2.1,18.87,3.17,30.42,3.18h.14c11.25,0,21.76-1.39,31.26-4.14,9.83-2.84,18.48-7.16,25.69-12.84,7.4-5.82,13.23-13.17,17.32-21.82,4.06-8.59,6.13-18.45,6.14-29.31.02-18.54-5.15-33.5-15.36-44.45-9.79-10.49-23.56-18.09-40.92-22.59Z"/>
        <path class="cls-2" d="M864.05,65.99c-10.3-10.79-22.6-19.39-36.56-25.55-14.03-6.19-29.34-9.34-45.49-9.35h-.13c-16.11,0-31.38,3.12-45.38,9.26-13.97,6.13-26.29,14.7-36.61,25.48-10.3,10.75-18.49,23.56-24.36,38.08-5.87,14.53-8.85,30.4-8.87,47.14-.02,16.76,2.93,32.62,8.77,47.16,5.83,14.54,14,27.37,24.28,38.13,10.3,10.8,22.6,19.39,36.56,25.55,14.03,6.19,29.33,9.34,45.49,9.35h.13c16.11,0,31.38-3.11,45.39-9.26,13.97-6.13,26.29-14.7,36.61-25.48,10.29-10.74,18.49-23.55,24.36-38.08,5.87-14.54,8.85-30.4,8.87-47.14.02-16.74-2.93-32.61-8.77-47.16-5.84-14.53-14-27.36-24.28-38.13ZM781.79,235.31c-10.94-.01-21.3-2.17-30.79-6.43-9.55-4.28-17.9-10.21-24.82-17.65-6.97-7.49-12.55-16.46-16.59-26.67-4.03-10.18-6.06-21.45-6.05-33.49.01-12.04,2.07-23.3,6.12-33.48,4.05-10.19,9.65-19.15,16.64-26.63,6.93-7.41,15.29-13.33,24.85-17.59,9.48-4.22,19.81-6.36,30.71-6.36h.09c10.93.01,21.29,2.17,30.78,6.43,9.55,4.28,17.9,10.22,24.82,17.65,6.98,7.5,12.56,16.47,16.59,26.67,4.03,10.19,6.06,21.46,6.05,33.49-.01,12.03-2.07,23.29-6.12,33.48-4.06,10.2-9.66,19.16-16.64,26.63-6.94,7.42-15.3,13.34-24.86,17.6-9.5,4.23-19.8,6.38-30.8,6.36Z"/>
        <path class="cls-2" d="M1075.69,36.59l-113.57-.12h-.03c-11.1,0-18.28,7.34-18.3,18.71h0s-.21,195.07-.21,195.07c0,6.21,1.84,10.92,5.48,14.01,3.21,2.73,7.32,4.12,12.22,4.13h.02c4.78,0,8.87-1.32,12.15-3.94,3.88-3.1,5.85-7.86,5.86-14.16l.09-83.53,87.38.09h.02c7.23,0,15.66-4.58,15.68-17.49,0-4.85-1.23-8.84-3.68-11.85-2.81-3.46-7.07-5.37-11.98-5.37l-87.38-.09.06-60.84,96.14.1h.02c7.23,0,15.66-4.58,15.68-17.49.01-12.7-8.43-17.21-15.66-17.22Z"/>
        <path class="cls-2" d="M1126.58,220.11h-.03c-6.49,0-12.26,2.7-16.69,7.82-4.16,4.81-6.28,10.42-6.29,16.69,0,6.24,2.19,12,6.34,16.66,4.42,4.96,10.16,7.59,16.61,7.59h.02c6.18,0,11.83-2.57,16.35-7.44,4.33-4.68,6.62-10.47,6.63-16.76,0-6.22-2.24-12.04-6.5-16.82-4.51-5.05-10.2-7.73-16.45-7.73Z"/>
        <path class="cls-2" d="M1225.11,38.72c-3.21-2.73-7.32-4.12-12.21-4.12h-.03c-4.88,0-8.99,1.38-12.2,4.1-3.65,3.09-5.5,7.8-5.51,14l-.21,197.81c0,6.2,1.84,10.92,5.48,14.01,3.21,2.73,7.32,4.12,12.22,4.13h.03c4.88,0,8.98-1.38,12.2-4.1,3.65-3.09,5.51-7.8,5.51-14l.21-197.81c0-6.19-1.83-10.9-5.49-14.02Z"/>
        <path class="cls-2" d="M1466.32,243.74c-.03-.08-.06-.15-.09-.23l-78.03-196.68c-.03-.07-.05-.13-.08-.2-1.41-3.31-3.61-6.1-6.57-8.29-3.22-2.38-7.31-3.59-12.17-3.59h-.03c-9.72,0-17.02,4.8-20.57,13.57l-78.12,195.81c-.91,2.22-1.41,3.89-1.61,5.35-.16,1.11-.24,2.07-.24,2.93,0,5.83,2.51,10.56,7.09,13.33,3.26,1.97,7.03,2.98,11.2,2.98h.02c6.63,0,12.16-3.81,15.17-10.45.04-.09.08-.19.12-.29l22.3-54.25,87.49.09,21.65,53.99c1.01,2.47,2.46,4.7,4.29,6.62,1.94,2.03,5.47,4.45,11.29,4.46h.02c3.64,0,7.28-.98,10.85-2.92,5.1-2.78,8.03-7.76,8.04-13.66,0-2.18-.6-4.75-2-8.58ZM1338.39,169.96l30.32-80.28,29.94,80.34-60.26-.06Z"/>
      </g>
      <g>
        <g>
          <path class="cls-1" d="M1764.85,98.33h-185.68c-15.65,0-28.35,12.69-28.35,28.35v104.89c0,15.65,12.69,28.35,28.35,28.35h133.23v-.33h52.44c15.65,0,28.35-12.69,28.35-28.35v-104.56c0-15.65-12.69-28.35-28.35-28.35Z"/>
          <path class="cls-2" d="M1642.95,271.25h-63.78c-21.88,0-39.68-17.8-39.68-39.68v-104.89c0-21.88,17.8-39.68,39.68-39.68h185.68c21.88,0,39.68,17.8,39.68,39.68v104.56c0,21.88-17.8,39.68-39.68,39.68h-121.89v.33ZM1579.17,109.67c-9.38,0-17.01,7.63-17.01,17.01v104.89c0,9.38,7.63,17.01,17.01,17.01h41.11v-.33h144.57c9.38,0,17.01-7.63,17.01-17.01v-104.56c0-9.38-7.63-17.01-17.01-17.01h-185.68Z"/>
        </g>
        <g>
          <path class="cls-2" d="M1620.18,157.97c-3.24-1.84-6.92-2.78-10.94-2.78s-8.13,1.01-11.84,3c-3.69,1.99-6.81,4.82-9.27,8.43-2.47,3.63-3.94,7.74-4.36,12.22-.29,3.13-.02,6.15.8,8.97.83,2.86,2.22,5.46,4.11,7.72,1.9,2.28,4.3,4.12,7.13,5.47,2.84,1.36,6.04,2.05,9.49,2.05,3.99,0,7.75-.92,11.17-2.74,3.42-1.82,6.25-4.4,8.39-7.68.67-.98,1.07-2.05,1.17-3.15.13-1.36-.36-2.61-1.37-3.53-.86-.78-1.97-1.2-3.21-1.2-.96,0-1.83.25-2.59.74-.59.39-1.14.95-1.71,1.76-3.14,4.37-6.91,6.49-11.54,6.49-2.49,0-4.65-.58-6.6-1.78-1.93-1.19-3.39-2.83-4.44-5.02-1.07-2.21-1.46-4.68-1.19-7.54.25-2.71,1.08-5.14,2.51-7.44,1.42-2.28,3.26-4.06,5.6-5.44,2.29-1.35,4.72-2.01,7.43-2.01,4.43,0,7.49,1.83,9.63,5.75.47.91.98,1.54,1.58,1.99.52.39,1.4.85,2.69.85,1.15,0,2.23-.36,3.11-1.05,1.01-.78,1.63-1.89,1.75-3.12.1-1.09-.06-2.17-.48-3.21-1.27-3.2-3.63-5.8-7.01-7.73Z"/>
          <path class="cls-2" d="M1673.48,156.82c-.58-.48-1.6-1.05-3.14-1.05s-2.49.53-3.08.98c-.7.53-1.56,1.55-1.74,3.43l-1.23,13.11h-18.3l1.18-12.56c.19-2.04-.61-3.22-1.32-3.85-.58-.51-1.59-1.11-3.18-1.11-1.23,0-2.28.33-3.14.98-.7.53-1.56,1.55-1.74,3.43h0s-3.51,37.34-3.51,37.34c-.19,2.05.61,3.23,1.32,3.85.84.74,1.93,1.11,3.24,1.11,1.19,0,2.23-.33,3.08-.97.7-.53,1.57-1.55,1.75-3.44l1.48-15.7h18.3l-1.42,15.15c-.19,2.05.61,3.23,1.31,3.84.58.51,1.6,1.12,3.19,1.12,1.16,0,2.19-.31,3.05-.93.74-.53,1.66-1.56,1.84-3.48l3.51-37.34c.21-2.2-.79-3.39-1.42-3.91Z"/>
          <path class="cls-2" d="M1720.73,196.14l-11.9-37.11s-.02-.05-.02-.07c-.31-.89-.88-1.66-1.64-2.25-.83-.63-1.87-.94-3.1-.94-2.27,0-4.16,1.13-5.19,3.11l-18.8,36.97c-.26.51-.42.91-.51,1.27-.07.28-.11.53-.13.73-.15,1.62.54,3.06,1.84,3.86.81.5,1.76.75,2.8.75,1.68,0,3.15-.91,4.04-2.48.02-.03.03-.06.05-.08l5.06-9.7h15.65l3,9.21c.22.66.57,1.26,1.04,1.78.53.59,1.5,1.29,3.11,1.29.88,0,1.77-.22,2.65-.66,1.37-.69,2.24-1.95,2.38-3.46.05-.59-.03-1.23-.29-2.13,0-.03-.02-.06-.03-.09ZM1697.77,181.29l5.14-10.57,3.13,10.57h-8.27Z"/>
          <path class="cls-2" d="M1759.73,157.97c-.42-.67-1.44-1.8-3.56-1.8h-30.1c-2.44,0-4.17,1.66-4.41,4.23-.17,1.81.47,2.93,1.03,3.55.76.83,1.85,1.29,3.08,1.29h10.08l-3.03,32.26c-.19,2.05.61,3.23,1.32,3.85.58.51,1.6,1.11,3.18,1.11,1.17,0,2.24-.34,3.08-.97.7-.53,1.57-1.55,1.75-3.43h0s3.08-32.82,3.08-32.82h10.64c1.83,0,2.87-.82,3.43-1.5.59-.73.94-1.67,1.04-2.78.11-1.15-.09-2.15-.61-2.99Z"/>
        </g>
      </g>
    </g>
  </g>
</svg>