<svg width="200" height="36" viewBox="0 0 200 36" fill="none" xmlns="http://www.w3.org/2000/svg">
<g clip-path="url(#clip0_2043_635)">
<path d="M196.368 15.761H179.375C177.943 15.761 176.781 16.9219 176.781 18.3554V27.9552C176.781 29.3875 177.942 30.5496 179.375 30.5496H191.568V30.5193H196.368C197.8 30.5193 198.962 29.3583 198.962 27.9249V18.3554C198.962 16.9231 197.802 15.761 196.368 15.761Z" fill="#15ECDA"/>
<path d="M185.213 31.5858H179.375C177.372 31.5858 175.743 29.9567 175.743 27.9539V18.3541C175.743 16.3512 177.372 14.7222 179.375 14.7222H196.368C198.371 14.7222 200 16.3512 200 18.3541V27.9236C200 29.9265 198.371 31.5555 196.368 31.5555H185.213V31.5858ZM179.375 16.7984C178.517 16.7984 177.818 17.4971 177.818 18.3553V27.955C177.818 28.8133 178.517 29.5119 179.375 29.5119H183.137V29.4816H196.369C197.227 29.4816 197.926 28.783 197.926 27.9248V18.3553C197.926 17.4971 197.227 16.7984 196.369 16.7984H179.376H179.375Z" fill="#001130"/>
<path d="M183.596 24.7236L181.641 24.7213L182.34 21.1627C182.382 20.9508 182.307 20.8274 182.237 20.7587C182.182 20.7051 182.079 20.6399 181.914 20.6399C181.797 20.6399 181.694 20.6702 181.607 20.7307C181.507 20.8006 181.442 20.91 181.413 21.0544L180.62 25.0904C180.583 25.2814 180.642 25.4037 180.699 25.4735C180.756 25.5423 180.865 25.6249 181.057 25.6249L183.528 25.6273C183.709 25.6273 183.924 25.5213 183.982 25.2255C184.018 25.0427 183.961 24.9251 183.907 24.8599C183.865 24.8086 183.769 24.7225 183.596 24.7225V24.7236Z" fill="#001130"/>
<path d="M187.966 24.7283L186.011 24.726L186.71 21.1674C186.752 20.9554 186.677 20.832 186.608 20.7633C186.552 20.7097 186.449 20.6445 186.284 20.6445C186.173 20.6504 186.063 20.6748 185.976 20.7354C185.876 20.8052 185.811 20.9147 185.783 21.0591L184.99 25.0951C184.953 25.2861 185.012 25.4083 185.069 25.4782C185.126 25.5469 185.234 25.6296 185.427 25.6296L187.898 25.6319C188.079 25.6319 188.294 25.5259 188.352 25.2302C188.388 25.0473 188.331 24.9297 188.277 24.8645C188.235 24.8133 188.139 24.7271 187.966 24.7271V24.7283Z" fill="#001130"/>
<path d="M195.003 20.7845C194.909 20.6983 194.782 20.6541 194.626 20.6541C194.467 20.6541 194.331 20.696 194.224 20.7775C194.143 20.8404 194.069 20.9207 194.001 21.0244L192.039 24.1556L191.293 21.0628C191.258 20.9219 191.192 20.8159 191.097 20.7472C191.006 20.682 190.892 20.6506 190.745 20.6494C190.601 20.6494 190.475 20.6843 190.372 20.7542C190.254 20.8346 190.175 20.9627 190.142 21.1338L189.349 25.1698C189.309 25.3724 189.377 25.4924 189.44 25.5576C189.519 25.6379 189.628 25.6799 189.766 25.6799C189.882 25.6799 189.983 25.6508 190.067 25.5925C190.166 25.525 190.23 25.419 190.257 25.2781L190.74 22.82L191.332 25.2222C191.354 25.3224 191.398 25.4085 191.463 25.4784C191.523 25.5425 191.632 25.6181 191.816 25.6181C191.937 25.6181 192.047 25.5844 192.142 25.5192C192.223 25.4633 192.29 25.3934 192.34 25.3119L193.86 22.9026L193.414 25.1745C193.37 25.3992 193.466 25.5227 193.527 25.5774C193.607 25.6484 193.714 25.6845 193.842 25.6845C193.954 25.6845 194.053 25.6554 194.137 25.5984C194.236 25.5308 194.3 25.4248 194.328 25.2839L195.121 21.2479C195.17 21.0022 195.084 20.8613 195.002 20.7868L195.003 20.7845Z" fill="#001130"/>
<path d="M18.4951 18.0827C19.643 18.0827 20.5736 17.1547 20.5736 16.01C20.5736 14.8653 19.643 13.9373 18.4951 13.9373C17.3471 13.9373 16.4165 14.8653 16.4165 16.01C16.4165 17.1547 17.3471 18.0827 18.4951 18.0827Z" fill="#001130"/>
<path d="M30.7521 19.4196C31.9001 19.4196 32.8307 18.4916 32.8307 17.3469C32.8307 16.2022 31.9001 15.2742 30.7521 15.2742C29.6042 15.2742 28.6736 16.2022 28.6736 17.3469C28.6736 18.4916 29.6042 19.4196 30.7521 19.4196Z" fill="#001130"/>
<path d="M10.883 8.88247C11.1694 9.09906 11.5048 9.20386 11.8378 9.20386C12.3153 9.20386 12.788 8.98844 13.0989 8.57971C15.7213 5.13176 19.7119 3.15451 24.0448 3.15451C28.0308 3.15451 31.8152 4.88024 34.4283 7.88803C35 8.54594 35.998 8.61698 36.6582 8.04756C37.3185 7.47697 37.3895 6.48136 36.8177 5.82228C33.605 2.1228 28.9483 0 24.0448 0C18.7139 0 13.8058 2.43138 10.5802 6.67233C10.0527 7.36635 10.1878 8.35614 10.8841 8.88247H10.883Z" fill="#001130"/>
<path d="M16.9346 24.2022C19.6734 26.7908 22.3692 27.6233 24.7039 27.6233C28.8738 27.6233 31.8921 24.9684 31.9387 24.9265C32.5838 24.3442 32.6338 23.3533 32.0528 22.707C31.4717 22.0607 30.4749 22.0072 29.8228 22.5812C29.2942 23.0494 24.4966 27.005 19.111 21.9128C18.4764 21.3132 17.4761 21.3399 16.8753 21.9722C16.2744 22.6045 16.3012 23.6036 16.9358 24.2022H16.9346Z" fill="#001130"/>
<path d="M42.3514 32.1134C42.1534 32.0401 37.5352 30.2025 40.2134 21.7416C40.2169 21.73 40.2169 21.7183 40.2204 21.7067C40.685 20.1684 40.9377 18.5394 40.9377 16.8521C40.9377 15.1648 40.6897 13.524 40.2041 11.9357C40.7176 11.7378 41.2381 11.513 41.7668 11.2592C42.554 10.8807 42.8847 9.93868 42.5051 9.15384C42.1255 8.36899 41.1799 8.03945 40.3939 8.4179C30.0931 13.368 23.1926 5.38915 22.9003 5.04214C22.3413 4.37607 21.3469 4.28524 20.6762 4.84069C20.0043 5.3973 19.9123 6.39291 20.4712 7.06247C20.5376 7.14166 25.6892 13.1782 33.7996 13.1782C34.8732 13.1782 35.9992 13.0711 37.173 12.8324C37.5724 14.1296 37.7762 15.478 37.7762 16.8532C37.7762 24.4059 31.6162 30.5507 24.0449 30.5507C16.4736 30.5507 10.7771 24.8554 10.3416 17.6928C10.3346 17.3924 10.3265 17.0896 10.3113 16.7799C10.309 16.7379 10.2985 16.6983 10.2927 16.6576C10.2857 16.6052 10.2811 16.5516 10.2694 16.5016C10.2578 16.4492 10.2391 16.4002 10.2217 16.349C10.2054 16.3013 10.1914 16.2547 10.1704 16.2093C10.1472 16.158 10.1192 16.1115 10.0913 16.0637C10.068 16.0241 10.047 15.9845 10.0202 15.9473C9.98646 15.8995 9.94804 15.8564 9.90844 15.8122C9.8805 15.7808 9.85488 15.7482 9.8246 15.719C9.78035 15.676 9.73145 15.6399 9.68254 15.6026C9.6511 15.5793 9.62199 15.5537 9.58822 15.5327C9.53465 15.4978 9.4776 15.4698 9.42054 15.4419C9.38677 15.4256 9.35416 15.407 9.31806 15.393C9.25868 15.3697 9.19696 15.3522 9.13408 15.3359C9.09565 15.3255 9.05839 15.3138 9.0188 15.3057C8.95941 15.2952 8.8977 15.2917 8.83598 15.287C8.79988 15.2847 8.76611 15.2765 8.72885 15.2765C8.71604 15.2765 8.70556 15.28 8.69275 15.28C8.67994 15.28 8.66713 15.2777 8.65432 15.2777C8.6124 15.28 8.57281 15.2905 8.53206 15.2963C8.47966 15.3033 8.42609 15.308 8.37486 15.3196C8.32362 15.3313 8.27471 15.3487 8.22464 15.3662C8.1769 15.3825 8.12799 15.3976 8.08141 15.4174C8.03251 15.4396 7.98826 15.4664 7.94284 15.4931C7.89976 15.5176 7.85784 15.5409 7.81708 15.5688C7.774 15.5991 7.73557 15.634 7.69598 15.669C7.65871 15.7004 7.62145 15.7318 7.58768 15.7668C7.55158 15.804 7.52131 15.846 7.4887 15.8867C7.45843 15.9251 7.42699 15.9636 7.40021 16.0043C7.37226 16.0474 7.35013 16.094 7.32568 16.1406C7.30356 16.1848 7.2791 16.2279 7.26047 16.2745C7.24067 16.3234 7.22787 16.3758 7.21273 16.427C7.19875 16.4748 7.18478 16.5214 7.17547 16.5714C7.16615 16.625 7.16266 16.6809 7.15916 16.7368C7.15567 16.7764 7.14752 16.8136 7.14752 16.8544C7.14752 16.8788 7.14868 16.9021 7.14985 16.9254C7.14985 16.9254 7.14985 16.9277 7.14985 16.9289C7.14985 16.9347 7.14985 16.9406 7.14985 16.9475C7.15101 17.2526 7.16266 17.5566 7.18012 17.857C7.29424 23.3788 5.95512 25.7648 4.77436 26.793C3.45969 27.9365 1.98898 27.6978 1.89233 27.6803C1.04577 27.5092 0.214346 28.0506 0.0326913 28.896C-0.150128 29.7472 0.393673 30.5868 1.24722 30.7685C1.52669 30.8279 1.88883 30.8686 2.30687 30.8686C3.54236 30.8686 5.26576 30.5135 6.77606 29.2349C7.91955 28.2672 8.79057 26.9258 9.38677 25.2233C12.3037 30.2864 17.7778 33.7064 24.0414 33.7064C28.8961 33.7064 33.2756 31.6511 36.3591 28.3697C37.1742 33.5981 41.2463 35.0735 41.3033 35.0933C41.4745 35.1515 41.648 35.1794 41.8192 35.1794C42.4783 35.1794 43.0978 34.7695 43.3214 34.1163C43.6043 33.2919 43.1746 32.3987 42.3479 32.1169L42.3514 32.1134Z" fill="#001130"/>
<path d="M8.08726 13.4193L10.1018 14.1319C10.3149 14.2076 10.5326 14.2426 10.7457 14.2426C11.5387 14.2426 12.2816 13.75 12.5623 12.9628C12.9186 11.9626 12.3934 10.8633 11.3908 10.5082L9.37631 9.79551C8.37372 9.44035 7.27214 9.96435 6.91582 10.9646C6.55949 11.9649 7.08466 13.0641 8.08726 13.4193Z" fill="#15ECDA"/>
<path d="M65.3866 15.8203C65.3866 15.8203 65.3842 15.8203 65.3819 15.8203L61.8769 14.926C61.0187 14.7118 60.3084 14.4509 59.7669 14.1517C59.2499 13.8664 58.8447 13.5624 58.5617 13.2457C58.3044 12.9592 58.1343 12.6635 58.0424 12.3409C57.9341 11.9636 57.8793 11.5456 57.8805 11.1008C57.8805 10.7375 57.9504 10.3357 58.0878 9.90721C58.2124 9.51828 58.4266 9.16545 58.7422 8.82659C59.0578 8.4889 59.5072 8.19779 60.079 7.9614C60.6635 7.72036 61.4344 7.5946 62.3485 7.59926C63.2649 7.59926 64.0544 7.69474 64.6926 7.88105C65.3377 8.06853 65.8826 8.2956 66.3123 8.55527C66.7467 8.81844 67.096 9.08277 67.351 9.34012C67.6258 9.61842 67.8436 9.85947 67.9985 10.0598C68.3024 10.4918 68.6249 10.7666 68.9813 10.8993C69.2561 11.003 69.539 11.0554 69.8243 11.0554H69.8267C70.3507 11.0554 70.8397 10.8469 71.238 10.4545C71.642 10.0574 71.8551 9.5602 71.8563 9.01873C71.8563 8.52733 71.6455 7.9975 71.1867 7.34308C70.9445 7.00422 70.6092 6.63043 70.1597 6.19958C69.6997 5.75942 69.1117 5.34021 68.4142 4.95478C67.7178 4.57051 66.8736 4.24562 65.9013 3.98595C64.922 3.72628 63.7633 3.59353 62.4568 3.59236C61.035 3.58771 59.7471 3.79032 58.6514 4.18391C57.5358 4.58448 56.5903 5.14225 55.8427 5.83976C55.0846 6.54659 54.5117 7.38616 54.1368 8.33286C53.7723 9.25628 53.586 10.2333 53.5848 11.2382C53.5848 12.2792 53.7292 13.2166 54.0168 14.0236C54.3149 14.8631 54.783 15.613 55.4072 16.2523C56.0104 16.8718 56.7847 17.4098 57.707 17.8523C58.5815 18.2727 59.6318 18.6383 60.8231 18.9387L63.4734 19.6164C65.0268 20.0147 66.1318 20.5725 66.7571 21.2758C67.3568 21.9512 67.648 22.7768 67.6468 23.8003C67.6468 24.4187 67.5327 24.9648 67.3091 25.4224C67.082 25.8859 66.7734 26.2667 66.3636 26.5845C65.9409 26.9129 65.4273 27.1621 64.8381 27.3251C64.2105 27.4986 63.5176 27.5871 62.7805 27.5871H62.7712C61.7768 27.5871 60.9279 27.4952 60.2467 27.3158C59.5585 27.1353 58.9669 26.9141 58.486 26.6556C58.0063 26.3994 57.6103 26.1339 57.3099 25.8684C56.9571 25.5563 56.6485 25.2734 56.3842 25.0195C56.1606 24.8088 55.9871 24.6446 55.8602 24.5235C55.5399 24.2195 55.1219 24.0588 54.6503 24.0588H54.6491C54.2148 24.0588 53.7828 24.2405 53.3263 24.6131C52.6859 25.136 52.5508 25.7275 52.5508 26.1304C52.5508 26.46 52.6172 26.7883 52.7487 27.1004C52.8768 27.4078 53.1004 27.728 53.4323 28.0785C53.6919 28.3766 54.0459 28.7143 54.5106 29.1114C55.0078 29.5376 55.6459 29.9359 56.4086 30.2945C57.1469 30.6427 58.0261 30.9431 59.0205 31.1853C60.0266 31.4298 61.2178 31.5544 62.5628 31.5556H62.5791C63.8891 31.5556 65.1129 31.3938 66.2192 31.0735C67.3638 30.7428 68.3711 30.2398 69.2107 29.5784C70.0723 28.9007 70.7512 28.0448 71.2275 27.0375C71.7003 26.0373 71.9413 24.8891 71.9425 23.6245C71.9448 21.4656 71.3428 19.7236 70.1539 18.4485C69.0139 17.227 67.4104 16.342 65.3889 15.818L65.3866 15.8203Z" fill="#001130"/>
<path d="M99.5086 7.68529C98.3092 6.42884 96.8769 5.42741 95.2513 4.7101C93.6176 3.98931 91.8348 3.6225 89.9542 3.62134H89.9391C88.0631 3.62134 86.285 3.98465 84.6548 4.69962C83.028 5.41344 81.5934 6.41137 80.3917 7.66666C79.1923 8.91845 78.2386 10.4101 77.5551 12.1009C76.8716 13.7929 76.5246 15.6409 76.5222 17.5902C76.5199 19.5418 76.8634 21.3886 77.5435 23.0817C78.2223 24.7748 79.1737 26.2688 80.3708 27.5218C81.5701 28.7794 83.0024 29.7797 84.628 30.497C86.2617 31.2178 88.0434 31.5846 89.9251 31.5858H89.9403C91.8162 31.5858 93.5943 31.2236 95.2257 30.5075C96.8525 29.7937 98.2871 28.7957 99.4888 27.5404C100.687 26.2898 101.642 24.7981 102.325 23.1062C103.009 21.4131 103.356 19.5662 103.358 17.6169C103.361 15.6676 103.017 13.8196 102.337 12.1254C101.657 10.4334 100.707 8.93941 99.5098 7.68529H99.5086ZM89.9298 27.4019C88.6559 27.4007 87.4495 27.1492 86.3444 26.6531C85.2324 26.1547 84.26 25.4642 83.4542 24.5979C82.6426 23.7257 81.9928 22.6812 81.5224 21.4922C81.0531 20.3068 80.8167 18.9945 80.8179 17.5925C80.8191 16.1905 81.0589 14.8793 81.5305 13.6939C82.0022 12.5073 82.6542 11.464 83.4682 10.5929C84.2752 9.73008 85.2487 9.04072 86.3619 8.54466C87.4658 8.05326 88.6687 7.80406 89.9379 7.80406H89.9484C91.2212 7.80523 92.4275 8.05675 93.5326 8.55281C94.6447 9.0512 95.617 9.74288 96.4228 10.6081C97.2356 11.4814 97.8853 12.5259 98.3546 13.7137C98.8239 14.9003 99.0603 16.2126 99.0591 17.6134C99.0579 19.0143 98.8181 20.3255 98.3465 21.512C97.8737 22.6998 97.2216 23.7431 96.4088 24.613C95.6007 25.477 94.6272 26.1664 93.514 26.6624C92.4077 27.155 91.2083 27.4054 89.9274 27.403L89.9298 27.4019Z" fill="#001130"/>
<path d="M124.153 4.2608L110.928 4.24683H110.925C109.632 4.24683 108.796 5.10154 108.794 6.42552L108.77 29.1406C108.77 29.8637 108.984 30.4122 109.408 30.772C109.781 31.0899 110.26 31.2517 110.831 31.2529H110.833C111.39 31.2529 111.866 31.0992 112.248 30.7941C112.7 30.4331 112.929 29.8788 112.93 29.1452L112.941 19.4185L123.116 19.429H123.118C123.96 19.429 124.941 18.8957 124.944 17.3924C124.944 16.8276 124.801 16.363 124.515 16.0125C124.188 15.6096 123.692 15.3872 123.12 15.3872L112.945 15.3767L112.952 8.29215L124.147 8.30379H124.15C124.992 8.30379 125.973 7.77047 125.976 6.26716C125.977 4.7883 124.994 4.26313 124.152 4.26196L124.153 4.2608Z" fill="#001130"/>
<path d="M130.079 25.6321H130.076C129.32 25.6321 128.648 25.9465 128.132 26.5427C127.648 27.1028 127.401 27.756 127.4 28.4862C127.4 29.2128 127.655 29.8835 128.138 30.4261C128.653 31.0037 129.321 31.31 130.072 31.31H130.074C130.794 31.31 131.452 31.0107 131.978 30.4436C132.483 29.8986 132.749 29.2244 132.75 28.492C132.75 27.7677 132.49 27.09 131.993 26.5334C131.468 25.9453 130.806 25.6332 130.078 25.6332L130.079 25.6321Z" fill="#001130"/>
<path d="M141.553 4.50881C141.179 4.19091 140.7 4.02905 140.131 4.02905H140.127C139.559 4.02905 139.08 4.18975 138.707 4.50648C138.282 4.8663 138.066 5.41476 138.065 6.13672L138.041 29.1708C138.041 29.8928 138.255 30.4424 138.679 30.8022C139.052 31.1201 139.531 31.282 140.102 31.2831H140.105C140.673 31.2831 141.151 31.1224 141.526 30.8057C141.951 30.4459 142.167 29.8974 142.167 29.1755L142.192 6.14138C142.192 5.42058 141.979 4.87212 141.553 4.50881Z" fill="#001130"/>
<path d="M169.64 28.3836C169.637 28.3743 169.633 28.3661 169.63 28.3568L160.544 5.45427C160.54 5.44612 160.538 5.43913 160.534 5.43098C160.37 5.04555 160.114 4.72066 159.769 4.46565C159.394 4.18851 158.918 4.04761 158.352 4.04761H158.349C157.217 4.04761 156.367 4.60655 155.953 5.62777L146.857 28.429C146.751 28.6875 146.692 28.882 146.669 29.052C146.65 29.1812 146.641 29.293 146.641 29.3932C146.641 30.072 146.933 30.6228 147.467 30.9454C147.846 31.1748 148.285 31.2924 148.771 31.2924H148.773C149.545 31.2924 150.189 30.8487 150.54 30.0755C150.544 30.065 150.549 30.0534 150.554 30.0418L153.15 23.7246L163.338 23.7351L165.859 30.022C165.977 30.3096 166.146 30.5693 166.359 30.7928C166.585 31.0292 166.996 31.311 167.674 31.3122H167.676C168.1 31.3122 168.524 31.1981 168.939 30.9722C169.533 30.6484 169.874 30.0685 169.875 29.3815C169.875 29.1277 169.806 28.8284 169.643 28.3824L169.64 28.3836ZM154.743 19.7922L158.274 10.444L161.76 19.7992L154.743 19.7922Z" fill="#001130"/>
</g>
<defs>
<clipPath id="clip0_2043_635">
<rect width="200" height="35.1759" fill="white"/>
</clipPath>
</defs>
</svg>
