<svg width="30" height="25" viewBox="0 0 30 25" fill="none" xmlns="http://www.w3.org/2000/svg">
<path d="M12.7831 12.4968C13.5764 12.4968 14.2195 11.8555 14.2195 11.0644C14.2195 10.2733 13.5764 9.63196 12.7831 9.63196C11.9898 9.63196 11.3467 10.2733 11.3467 11.0644C11.3467 11.8555 11.9898 12.4968 12.7831 12.4968Z" fill="#001130"/>
<path d="M21.2536 13.4202C22.0469 13.4202 22.69 12.7789 22.69 11.9878C22.69 11.1967 22.0469 10.5554 21.2536 10.5554C20.4602 10.5554 19.8171 11.1967 19.8171 11.9878C19.8171 12.7789 20.4602 13.4202 21.2536 13.4202Z" fill="#001130"/>
<path d="M7.52283 6.13841C7.72079 6.28809 7.95255 6.36051 8.1827 6.36051C8.51264 6.36051 8.83936 6.21164 9.05422 5.92918C10.8664 3.5464 13.6242 2.17999 16.6186 2.17999C19.3731 2.17999 21.9885 3.37258 23.7943 5.45118C24.1894 5.90584 24.879 5.95493 25.3353 5.56142C25.7916 5.16711 25.8407 4.47907 25.4456 4.0236C23.2253 1.46701 20.0073 0 16.6186 0C12.9346 0 9.54268 1.68026 7.31361 4.61105C6.94907 5.09066 7.04241 5.77467 7.52364 6.13841H7.52283Z" fill="#001130"/>
<path d="M11.705 16.7253C13.5977 18.5142 15.4606 19.0895 17.074 19.0895C19.9558 19.0895 22.0416 17.2548 22.0738 17.2258C22.5196 16.8235 22.5542 16.1386 22.1526 15.692C21.7511 15.2454 21.0622 15.2084 20.6116 15.6051C20.2463 15.9286 16.9308 18.6622 13.209 15.1432C12.7704 14.7288 12.0791 14.7473 11.6639 15.1842C11.2487 15.6212 11.2672 16.3117 11.7058 16.7253H11.705Z" fill="#001130"/>
<path d="M29.2696 22.1927C29.1328 22.142 25.9413 20.8722 27.7921 15.0251C27.7945 15.017 27.7945 15.009 27.797 15.0009C28.118 13.9379 28.2927 12.8121 28.2927 11.646C28.2927 10.48 28.1213 9.34614 27.7857 8.2485C28.1406 8.1117 28.5003 7.95639 28.8656 7.78096C29.4096 7.51943 29.6382 6.86841 29.3758 6.32603C29.1135 5.78364 28.4601 5.55591 27.9169 5.81744C20.7983 9.23831 16.0295 3.72436 15.8276 3.48456C15.4413 3.02426 14.7541 2.96149 14.2905 3.34534C13.8262 3.73 13.7626 4.41803 14.1489 4.88075C14.1948 4.93547 17.7549 9.10714 23.3597 9.10714C24.1017 9.10714 24.8799 9.03311 25.691 8.86814C25.967 9.7646 26.1079 10.6965 26.1079 11.6468C26.1079 16.8663 21.8509 21.1128 16.6186 21.1128C11.3863 21.1128 7.4496 17.1769 7.14864 12.227C7.14381 12.0194 7.13818 11.8102 7.12772 11.5961C7.12611 11.5672 7.11886 11.5398 7.11484 11.5116C7.11001 11.4754 7.10679 11.4384 7.09875 11.4038C7.0907 11.3676 7.07782 11.3338 7.06575 11.2984C7.05449 11.2654 7.04483 11.2332 7.03034 11.2018C7.01425 11.1664 6.99494 11.1342 6.97562 11.1012C6.95953 11.0739 6.94504 11.0465 6.92654 11.0208C6.9032 10.9878 6.87664 10.958 6.84928 10.9274C6.82997 10.9057 6.81227 10.8832 6.79134 10.863C6.76076 10.8333 6.72697 10.8083 6.69317 10.7826C6.67144 10.7665 6.65132 10.7488 6.62798 10.7343C6.59097 10.7101 6.55154 10.6908 6.51211 10.6715C6.48877 10.6603 6.46624 10.6474 6.44129 10.6377C6.40025 10.6216 6.3576 10.6096 6.31414 10.5983C6.28759 10.591 6.26184 10.583 6.23448 10.5774C6.19344 10.5701 6.15079 10.5677 6.10814 10.5645C6.08319 10.5629 6.05985 10.5572 6.0341 10.5572C6.02525 10.5572 6.01801 10.5597 6.00915 10.5597C6.0003 10.5597 5.99145 10.5581 5.9826 10.5581C5.95363 10.5597 5.92627 10.5669 5.8981 10.5709C5.86189 10.5758 5.82487 10.579 5.78947 10.587C5.75406 10.5951 5.72026 10.6071 5.68566 10.6192C5.65266 10.6305 5.61887 10.6409 5.58668 10.6546C5.55288 10.6699 5.5223 10.6884 5.49091 10.7069C5.46114 10.7238 5.43217 10.7399 5.404 10.7592C5.37423 10.7802 5.34767 10.8043 5.32031 10.8284C5.29456 10.8502 5.26881 10.8719 5.24548 10.896C5.22053 10.9218 5.19961 10.9508 5.17707 10.9789C5.15615 11.0055 5.13442 11.032 5.11592 11.0602C5.0966 11.09 5.08131 11.1222 5.06441 11.1543C5.04912 11.1849 5.03222 11.2147 5.01935 11.2469C5.00567 11.2807 4.99682 11.3169 4.98636 11.3523C4.9767 11.3853 4.96704 11.4175 4.9606 11.4521C4.95417 11.4891 4.95175 11.5277 4.94934 11.5664C4.94692 11.5937 4.94129 11.6195 4.94129 11.6476C4.94129 11.6645 4.9421 11.6806 4.9429 11.6967C4.9429 11.6967 4.9429 11.6983 4.9429 11.6991C4.9429 11.7032 4.9429 11.7072 4.9429 11.712C4.94371 11.9229 4.95175 12.1329 4.96382 12.3405C5.04269 16.1565 4.11726 17.8054 3.30127 18.5159C2.39274 19.3062 1.37638 19.1412 1.30959 19.1291C0.724555 19.0108 0.149984 19.385 0.0244479 19.9693C-0.101893 20.5575 0.273911 21.1377 0.863771 21.2633C1.0569 21.3043 1.30717 21.3325 1.59607 21.3325C2.44988 21.3325 3.64086 21.087 4.68459 20.2034C5.47482 19.5347 6.07675 18.6077 6.48877 17.4312C8.50459 20.9301 12.2876 23.2936 16.6162 23.2936C19.9711 23.2936 22.9976 21.8732 25.1285 19.6055C25.6918 23.2187 28.5059 24.2383 28.5454 24.252C28.6637 24.2922 28.7836 24.3115 28.9018 24.3115C29.3573 24.3115 29.7854 24.0283 29.9399 23.5768C30.1355 23.0071 29.8385 22.3899 29.2672 22.1951L29.2696 22.1927Z" fill="#001130"/>
<path d="M5.59079 9.27332L6.98295 9.76581C7.13022 9.81812 7.2807 9.84226 7.42796 9.84226C7.97598 9.84226 8.48939 9.50186 8.68333 8.95787C8.92957 8.26662 8.56664 7.50696 7.87378 7.26152L6.48161 6.76903C5.78875 6.52359 5.02748 6.88572 4.78124 7.57697C4.53499 8.26823 4.89792 9.02788 5.59079 9.27332Z" fill="#15ECDA"/>
</svg>
