<svg width="16" height="17" viewBox="0 0 16 17" fill="none" xmlns="http://www.w3.org/2000/svg">
<path d="M9.00256 14.4978C5.13798 14.4978 2.0051 11.365 2.0051 7.50036C2.0051 3.63575 5.13795 0.50293 9.00256 0.50293C12.8672 0.50293 16 3.63578 16 7.50039C16 11.365 12.8671 14.4978 9.00256 14.4978ZM9.00256 2.50221C6.24213 2.50221 4.00438 4.73996 4.00438 7.50039C4.00438 10.2608 6.24213 12.4986 9.00256 12.4986C11.763 12.4986 14.0007 10.2608 14.0007 7.50039C14.0007 4.73996 11.763 2.50221 9.00256 2.50221Z" fill="#A6A8AB"/>
<path d="M1.00543 16.4971C0.739718 16.4986 0.484338 16.3943 0.295697 16.2072C-0.0962975 15.8184 -0.0988817 15.1855 0.289908 14.7935C0.291838 14.7916 0.293767 14.7896 0.295697 14.7877L4.05432 11.0291C4.4601 10.6371 5.10682 10.6483 5.49881 11.0541C5.89081 11.4598 5.87961 12.1066 5.47383 12.4985L1.71517 16.2072C1.52653 16.3943 1.27115 16.4986 1.00543 16.4971Z" fill="#A6A8AB"/>
</svg>
