<svg width="16" height="16" viewBox="0 0 16 16" fill="none" xmlns="http://www.w3.org/2000/svg">
<path d="M9.00259 13.9978C5.13801 13.9978 2.00513 10.865 2.00513 7.00036C2.00513 3.13575 5.13798 0.00292969 9.00259 0.00292969C12.8672 0.00292969 16.0001 3.13578 16.0001 7.00039C16.0001 10.865 12.8672 13.9978 9.00259 13.9978ZM9.00259 2.00221C6.24216 2.00221 4.00441 4.23996 4.00441 7.00039C4.00441 9.76082 6.24216 11.9986 9.00259 11.9986C11.763 11.9986 14.0008 9.76082 14.0008 7.00039C14.0008 4.23996 11.763 2.00221 9.00259 2.00221Z" fill="#A6A8AB"/>
<path d="M1.00543 15.997C0.739718 15.9986 0.484338 15.8942 0.295697 15.7071C-0.0962975 15.3183 -0.0988817 14.6854 0.289908 14.2934C0.291838 14.2915 0.293767 14.2896 0.295697 14.2876L4.05432 10.529C4.4601 10.137 5.10682 10.1482 5.49881 10.554C5.89081 10.9598 5.87961 11.6065 5.47383 11.9985L1.71517 15.7071C1.52653 15.8942 1.27115 15.9986 1.00543 15.997Z" fill="#A6A8AB"/>
</svg>
