<svg xmlns="http://www.w3.org/2000/svg" width="16" height="17" viewBox="0 0 16 17" fill="none">
  <path d="M9.00259 14.4978C5.13801 14.4978 2.00513 11.365 2.00513 7.50036C2.00513 3.63575 5.13798 0.50293 9.00259 0.50293C12.8672 0.50293 16.0001 3.63578 16.0001 7.50039C16.0001 11.365 12.8672 14.4978 9.00259 14.4978ZM9.00259 2.50221C6.24216 2.50221 4.00441 4.73996 4.00441 7.50039C4.00441 10.2608 6.24216 12.4986 9.00259 12.4986C11.763 12.4986 14.0008 10.2608 14.0008 7.50039C14.0008 4.73996 11.763 2.50221 9.00259 2.50221Z" fill="#343E4F"/>
  <path d="M1.00543 16.497C0.739718 16.4986 0.484338 16.3942 0.295697 16.2071C-0.0962975 15.8183 -0.0988817 15.1854 0.289908 14.7934C0.291838 14.7915 0.293767 14.7896 0.295697 14.7876L4.05432 11.029C4.4601 10.637 5.10682 10.6482 5.49881 11.054C5.89081 11.4598 5.87961 12.1065 5.47383 12.4985L1.71517 16.2071C1.52653 16.3942 1.27115 16.4986 1.00543 16.497Z" fill="#343E4F"/>
</svg>