<svg width="38" height="24" viewBox="0 0 38 24" fill="none" xmlns="http://www.w3.org/2000/svg">
<path d="M25 9L27 9C27.5304 9 28.0391 9.21071 28.4142 9.58579C28.7893 9.96086 29 10.4696 29 11L29 22L25 18L19 18C18.4696 18 17.9609 17.7893 17.5858 17.4142C17.2107 17.0391 17 16.5304 17 16L17 15M21 9C21 9.53043 20.7893 10.0391 20.4142 10.4142C20.0391 10.7893 19.5304 11 19 11L13 11L9 15L9 4C9 3.46957 9.21071 2.96086 9.58579 2.58579C9.96086 2.21071 10.4696 2 11 2L19 2C19.5304 2 20.0391 2.21071 20.4142 2.58579C20.7893 2.96086 21 3.46957 21 4L21 9Z" stroke="white" stroke-linecap="round" stroke-linejoin="round"/>
</svg>
