<svg width="57" height="56" viewBox="0 0 57 56" fill="none" xmlns="http://www.w3.org/2000/svg">
<g clip-path="url(#clip0_5638_784)">
<path d="M28.5 0C12.7259 0 0.5 11.5544 0.5 27.16C0.5 35.3238 3.84469 42.3763 9.29375 47.2478C9.75094 47.6569 10.0266 48.23 10.0462 48.8447L10.1994 53.8256C10.2475 55.4138 11.8881 56.4484 13.3428 55.8053L18.9013 53.3509C19.3716 53.1431 19.9009 53.1038 20.3975 53.2416C22.9525 53.9438 25.6694 54.3178 28.5022 54.3178C44.2762 54.3178 56.5022 42.7634 56.5022 27.1578C56.5022 11.5522 44.2741 0 28.5 0Z" fill="#A6A8AB"/>
<path d="M11.687 35.1027L19.912 22.0543C21.2201 19.9784 24.0223 19.4621 25.9845 20.9343L32.5273 25.8409C33.1267 26.2915 33.9535 26.2893 34.5507 25.8343L43.386 19.1296C44.5651 18.2349 46.1051 19.6459 45.3154 20.8971L37.0904 33.9456C35.7823 36.0215 32.9801 36.5377 31.0179 35.0656L24.4751 30.159C23.8757 29.7084 23.0489 29.7106 22.4517 30.1656L13.6164 36.8702C12.4373 37.7649 10.8973 36.354 11.687 35.1006V35.1027Z" fill="white"/>
</g>
<defs>
<clipPath id="clip0_5638_784">
<rect width="56" height="56" fill="white" transform="translate(0.5)"/>
</clipPath>
</defs>
</svg>
