<svg width="20" height="20" viewBox="0 0 20 20" fill="none" xmlns="http://www.w3.org/2000/svg">
<path d="M11.0283 16.8766L17.5 10.25M13.3333 4.99998L6.32166 12.155C6.00921 12.4675 5.83369 12.8914 5.83369 13.3333C5.83369 13.7753 6.00921 14.1991 6.32166 14.5116C6.63421 14.8241 7.05806 14.9996 7.5 14.9996C7.94194 14.9996 8.36578 14.8241 8.67833 14.5116L15.69 7.35665C16.3149 6.73155 16.6659 5.88386 16.6659 4.99998C16.6659 4.1161 16.3149 3.26841 15.69 2.64331C15.0649 2.01841 14.2172 1.66736 13.3333 1.66736C12.4494 1.66736 11.6018 2.01841 10.9767 2.64331L3.96416 9.79748C3.0264 10.7352 2.49957 12.0071 2.49957 13.3333C2.49957 14.6595 3.0264 15.9314 3.96416 16.8691C4.90192 17.8069 6.1738 18.3337 7.5 18.3337C8.82619 18.3337 10.0981 17.8069 11.0358 16.8691" stroke="#A6A8AB" stroke-linecap="round" stroke-linejoin="round"/>
</svg>
