<svg width="25" height="24" viewBox="0 0 25 24" fill="none" xmlns="http://www.w3.org/2000/svg">
<path d="M3.44452 7L3.44452 5C3.44452 4.46957 3.65523 3.96086 4.03031 3.58579C4.40538 3.21071 4.91409 3 5.44452 3L7.44452 3M17.4445 3L19.4445 3C19.975 3 20.4837 3.21071 20.8587 3.58579C21.2338 3.96086 21.4445 4.46957 21.4445 5L21.4445 7M21.4445 17L21.4445 19C21.4445 19.5304 21.2338 20.0391 20.8587 20.4142C20.4837 20.7893 19.975 21 19.4445 21L17.4445 21M7.44452 21L5.44452 21C4.91409 21 4.40538 20.7893 4.03031 20.4142C3.65523 20.0391 3.44452 19.5304 3.44452 19L3.44452 17" 
stroke="#001126" stroke-width="2" stroke-linecap="round" stroke-linejoin="round"/>
</svg>
