<svg width="25" height="24" viewBox="0 0 25 24" fill="none" xmlns="http://www.w3.org/2000/svg">
<path d="M3.44458 7L3.44458 5C3.44458 4.46957 3.65529 3.96086 4.03037 3.58579C4.40544 3.21071 4.91415 3 5.44458 3L7.44458 3M17.4446 3L19.4446 3C19.975 3 20.4837 3.21071 20.8588 3.58579C21.2339 3.96086 21.4446 4.46957 21.4446 5L21.4446 7M21.4446 17L21.4446 19C21.4446 19.5304 21.2339 20.0391 20.8588 20.4142C20.4837 20.7893 19.975 21 19.4446 21L17.4446 21M7.44458 21L5.44458 21C4.91415 21 4.40544 20.7893 4.03037 20.4142C3.65529 20.0391 3.44458 19.5304 3.44458 19L3.44458 17" stroke="#001130" stroke-linecap="round" stroke-linejoin="round"/>
</svg>
