<svg xmlns="http://www.w3.org/2000/svg" width="24" height="24" viewBox="0 0 24 24" fill="none">
  <path d="M21.3753 12C21.3753 12.0888 21.3501 12.1758 21.3026 12.2508C21.2551 12.3258 21.1873 12.3858 21.107 12.4238L4.23199 20.3925C4.1477 20.4334 4.05308 20.4479 3.96041 20.4343C3.86774 20.4207 3.78131 20.3795 3.71235 20.3161C3.6434 20.2527 3.5951 20.17 3.57375 20.0788C3.5524 19.9876 3.55897 19.8921 3.59261 19.8047L6.25699 12.6544C6.41418 12.2323 6.41418 11.7677 6.25699 11.3456L3.59168 4.19532C3.55786 4.10779 3.5512 4.01211 3.57257 3.92075C3.59393 3.82939 3.64233 3.74658 3.71145 3.68313C3.78057 3.61967 3.8672 3.57852 3.96006 3.56503C4.05291 3.55154 4.14767 3.56634 4.23199 3.6075L21.107 11.5763C21.1873 11.6142 21.2551 11.6742 21.3026 11.7492C21.3501 11.8242 21.3753 11.9112 21.3753 12ZM21.3753 12H6.37511" stroke="#001126" stroke-width="2" stroke-linecap="round" stroke-linejoin="round"/>
</svg>