<svg width="16" height="17" viewBox="0 0 16 17" fill="none" xmlns="http://www.w3.org/2000/svg">
<path d="M13.3334 5.16663H7.33335M9.33335 11.8333H3.33335M9.33335 11.8333C9.33335 12.9379 10.2288 13.8333 11.3334 13.8333C12.4379 13.8333 13.3334 12.9379 13.3334 11.8333C13.3334 10.7287 12.4379 9.83329 11.3334 9.83329C10.2288 9.83329 9.33335 10.7287 9.33335 11.8333ZM6.66669 5.16663C6.66669 6.2712 5.77126 7.16663 4.66669 7.16663C3.56212 7.16663 2.66669 6.2712 2.66669 5.16663C2.66669 4.06206 3.56212 3.16663 4.66669 3.16663C5.77126 3.16663 6.66669 4.06206 6.66669 5.16663Z" stroke="#001130" stroke-linecap="round" stroke-linejoin="round"/>
</svg>
