<svg xmlns="http://www.w3.org/2000/svg" width="57" height="57" viewBox="0 0 57 57" fill="none">
  <path fill-rule="evenodd" clip-rule="evenodd" d="M21.1984 0.00139996C18.1031 0.00419989 15.5971 2.51574 15.5999 5.61106C15.5971 8.70638 18.1059 11.2193 21.2012 11.2207H26.8024V5.61246C26.8052 2.51714 24.2965 0.00419989 21.1998 0M21.1984 14.9642H6.26777C3.17245 14.967 0.663709 17.4786 0.666509 20.5739C0.662309 23.6692 3.16965 26.1821 6.26497 26.1863H21.1984C24.2937 26.1835 26.801 23.672 26.7996 20.5767C26.8024 17.4786 24.2937 14.967 21.1984 14.9642Z" fill="#36C5F0"/>
  <path fill-rule="evenodd" clip-rule="evenodd" d="M56.6654 20.5739C56.6682 17.4786 54.1594 14.9657 51.0641 14.9643C47.9688 14.9671 45.4615 17.4786 45.4629 20.5739V26.1864H51.0641C54.1594 26.1836 56.6668 23.6721 56.6654 20.5739ZM41.7319 20.5739V5.61112C41.7347 2.5186 39.2288 0.00566474 36.1335 0.00146484C33.0382 0.00426477 30.5308 2.5158 30.5322 5.61112V20.5739C30.528 23.6693 33.0354 26.1822 36.1307 26.1864C39.226 26.1836 41.7333 23.6721 41.7319 20.5739Z" fill="#2EB67D"/>
  <path fill-rule="evenodd" clip-rule="evenodd" d="M36.1318 56.112C39.2271 56.1092 41.7344 53.5977 41.733 50.5024C41.7358 47.4071 39.2271 44.8941 36.1318 44.8927H30.5305V50.5024C30.5277 53.5963 33.0365 56.1078 36.1318 56.112ZM36.1318 41.1464H51.0652C54.1605 41.1436 56.6679 38.6321 56.6665 35.5368C56.6707 32.4415 54.1633 29.9285 51.068 29.9243H36.1346C33.0393 29.9271 30.5319 32.4387 30.5333 35.534C30.5305 38.6321 33.0365 41.1436 36.1318 41.1464Z" fill="#ECB22E"/>
  <path fill-rule="evenodd" clip-rule="evenodd" d="M0.666506 35.5368C0.663706 38.6321 3.17244 41.145 6.26776 41.1464C9.36309 41.1436 11.8704 38.6321 11.869 35.5368V29.9271H6.26776C3.17244 29.9299 0.663706 32.4415 0.666506 35.5368ZM15.5999 35.5368V50.4996C15.5957 53.5949 18.1031 56.1079 21.1984 56.1121C24.2937 56.1093 26.801 53.5977 26.7996 50.5024V35.5424C26.8038 32.4471 24.2965 29.9341 21.2012 29.9299C18.1031 29.9299 15.5985 32.4415 15.5999 35.5382" fill="#E01E5A"/>
</svg>