<svg width="15" height="11" viewBox="0 0 15 11" fill="none" xmlns="http://www.w3.org/2000/svg">
<path d="M6.224 10.5H0.218V0.476H6.21V1.4H1.226V5.012H5.748V5.922H1.226V9.576H6.224V10.5ZM7.66873 3.08C7.66873 1.4 9.01273 0.294 11.0287 0.294C12.8347 0.294 14.0247 1.302 14.1787 2.982H13.1567C13.0447 1.848 12.2747 1.204 11.0147 1.204C9.60073 1.204 8.67673 1.932 8.67673 3.066C8.67673 3.948 9.19473 4.508 10.2447 4.774L11.9667 5.194C13.5347 5.572 14.3467 6.468 14.3467 7.826C14.3467 9.562 13.0027 10.668 10.9307 10.668C8.98473 10.668 7.66873 9.646 7.54273 8.008H8.57873C8.63473 9.058 9.55873 9.744 10.9307 9.744C12.4007 9.744 13.3387 9.03 13.3387 7.882C13.3387 6.986 12.8347 6.398 11.7567 6.146L10.0627 5.726C8.49473 5.348 7.66873 4.452 7.66873 3.08Z" fill="#001126"/>
</svg>
