<svg width="54" height="81" viewBox="0 0 54 81" fill="none" xmlns="http://www.w3.org/2000/svg">
<path d="M27.0225 37.5313V46.5313M27.0225 55.5313H27.045M48.915 57.7813L30.915 26.2813C30.5226 25.5887 29.9534 25.0127 29.2656 24.6119C28.5778 24.2112 27.7961 24 27 24C26.204 24 25.4222 24.2112 24.7345 24.6119C24.0467 25.0127 23.4775 25.5887 23.085 26.2813L5.08505 57.7813C4.68833 58.4683 4.48031 59.248 4.48207 60.0414C4.48382 60.8348 4.6953 61.6136 5.09505 62.2989C5.4948 62.9842 6.06863 63.5516 6.75836 63.9436C7.44809 64.3357 8.22921 64.5384 9.02255 64.5313H45.0225C45.8121 64.5305 46.5875 64.3219 47.2709 63.9267C47.9544 63.5314 48.5218 62.9632 48.9162 62.2793C49.3106 61.5953 49.5181 60.8196 49.5179 60.0301C49.5177 59.2406 49.3098 58.465 48.915 57.7813Z" stroke="#FF616D" stroke-width="3" stroke-linecap="round" stroke-linejoin="round"/>
</svg>
