<svg width="13" height="12" viewBox="0 0 13 12" fill="none" xmlns="http://www.w3.org/2000/svg">
<path d="M6.33333 11.3333C9.27885 11.3333 11.6667 8.94548 11.6667 5.99996C11.6667 3.05444 9.27885 0.666626 6.33333 0.666626C3.38781 0.666626 1 3.05444 1 5.99996C1 8.94548 3.38781 11.3333 6.33333 11.3333Z" fill="#D0FBF8"/>
<path d="M6.33333 8.13329V5.99996V8.13329Z" fill="#D0FBF8"/>
<path d="M6.33333 3.86663H6.33867H6.33333Z" fill="#D0FBF8"/>
<path d="M6.33333 8.13329V5.99996M6.33333 3.86663H6.33867M11.6667 5.99996C11.6667 8.94548 9.27885 11.3333 6.33333 11.3333C3.38781 11.3333 1 8.94548 1 5.99996C1 3.05444 3.38781 0.666626 6.33333 0.666626C9.27885 0.666626 11.6667 3.05444 11.6667 5.99996Z" stroke="#001130" stroke-linecap="round" stroke-linejoin="round"/>
</svg>
