<svg width="24" height="24" viewBox="0 0 24 24" fill="none" xmlns="http://www.w3.org/2000/svg">
<rect width="24" height="24" rx="4" fill="#25D366"/>
<g clip-path="url(#clip0_4072_174)">
<path fill-rule="evenodd" clip-rule="evenodd" d="M17.3145 6.69077C15.9045 5.27849 14.0295 4.50075 12.0317 4.5C7.91464 4.5 4.56406 7.85021 4.56255 11.968C4.5618 13.2845 4.90582 14.5695 5.55959 15.7018L4.5 19.5723L8.45951 18.5339C9.55037 19.1292 10.7788 19.4423 12.0286 19.4427H12.032C16.1483 19.4427 19.4992 16.0921 19.5004 11.9744C19.5011 9.9788 18.7249 8.10229 17.3149 6.69077H17.3145ZM12.0317 18.1812H12.029C10.9152 18.1812 9.8228 17.8812 8.86947 17.316L8.64263 17.1815L6.29286 17.798L6.91987 15.507L6.77216 15.2722C6.1508 14.2838 5.8226 13.1414 5.82298 11.9687C5.82448 8.54617 8.6091 5.76156 12.0335 5.76156C13.6915 5.76231 15.25 6.40854 16.4222 7.5823C17.5945 8.7553 18.2392 10.3153 18.2384 11.974C18.2369 15.3969 15.4523 18.1815 12.0309 18.1815L12.0317 18.1812Z" fill="white"/>
<path fill-rule="evenodd" clip-rule="evenodd" d="M15.4365 13.5325C15.25 13.439 14.3325 12.9876 14.1614 12.9254C13.9903 12.8632 13.866 12.832 13.7416 13.0189C13.6173 13.2058 13.2597 13.6263 13.1508 13.7506C13.0419 13.8754 12.933 13.8908 12.7465 13.7974C12.56 13.7039 11.9586 13.5068 11.2456 12.8712C10.691 12.3764 10.3164 11.7652 10.2075 11.5783C10.0986 11.3914 10.1962 11.2904 10.2893 11.1978C10.373 11.1141 10.4758 10.9796 10.5693 10.8707C10.6627 10.7618 10.6936 10.6838 10.7558 10.5594C10.818 10.4347 10.7871 10.3258 10.7403 10.2324C10.6936 10.1389 10.3206 9.22026 10.165 8.84685C10.0135 8.48285 9.85937 8.53259 9.74519 8.52618C9.63629 8.52091 9.51195 8.51978 9.3876 8.51978C9.26325 8.51978 9.06091 8.5665 8.88984 8.7534C8.71877 8.94029 8.23645 9.39171 8.23645 10.31C8.23645 11.2283 8.90491 12.116 8.99836 12.2408C9.09181 12.3655 10.3146 14.2503 12.1862 15.0589C12.6312 15.2511 12.979 15.366 13.2503 15.4523C13.6972 15.5944 14.1041 15.5744 14.4255 15.5265C14.7839 15.4726 15.5296 15.0751 15.6852 14.6391C15.8404 14.2032 15.8405 13.8294 15.7941 13.7518C15.7478 13.6741 15.623 13.627 15.4365 13.5336V13.5328V13.5325Z" fill="white"/>
</g>
<defs>
<clipPath id="clip0_4072_174">
<rect width="15" height="15.0723" fill="white" transform="translate(4.5 4.5)"/>
</clipPath>
</defs>
</svg>
