<svg width="25" height="24" viewBox="0 0 25 24" fill="none" xmlns="http://www.w3.org/2000/svg">
<path d="M7.5 11V15C7.5 15.5304 7.71071 16.0391 8.08579 16.4142C8.46086 16.7893 8.96957 17 9.5 17H13.5M5.5 3H9.5C10.6046 3 11.5 3.89543 11.5 5V9C11.5 10.1046 10.6046 11 9.5 11H5.5C4.39543 11 3.5 10.1046 3.5 9V5C3.5 3.89543 4.39543 3 5.5 3ZM15.5 13H19.5C20.6046 13 21.5 13.8954 21.5 15V19C21.5 20.1046 20.6046 21 19.5 21H15.5C14.3954 21 13.5 20.1046 13.5 19V15C13.5 13.8954 14.3954 13 15.5 13Z" stroke="#001126" stroke-width="1.5" stroke-linecap="round" stroke-linejoin="round"/>
</svg>
