<svg xmlns="http://www.w3.org/2000/svg" width="24" height="20" viewBox="0 0 24 20" fill="none">
  <g clip-path="url(#clip0_4219_1186)">
    <path d="M23.8352 17.4252C23.6495 17.0461 23.3281 16.7597 22.9295 16.6181C22.8295 16.5758 21.1855 15.8158 22.3118 12.259C22.318 12.2366 22.3239 12.216 22.328 12.1984C22.5905 11.3199 22.7232 10.4106 22.7232 9.49469C22.7232 8.79643 22.6464 8.10296 22.4953 7.42529C22.5626 7.39403 22.6306 7.36205 22.6975 7.33006C23.0862 7.1429 23.3799 6.81565 23.5222 6.40787C23.6645 6.00083 23.6399 5.56327 23.452 5.17424C23.184 4.61975 22.6129 4.26235 21.9959 4.26235C21.7518 4.26235 21.5168 4.31604 21.2958 4.42157C21.119 4.50724 20.9414 4.58482 20.7645 4.65579C20.7781 4.5885 20.7869 4.52121 20.7917 4.45245C20.823 4.02225 20.6836 3.60528 20.4005 3.27986C18.5914 1.19502 15.9686 0 13.2061 0C10.2039 0 7.43988 1.36967 5.62272 3.75824C5.36128 4.1013 5.24987 4.52636 5.30834 4.95326C5.30981 4.9676 5.31238 4.98304 5.31459 4.99738H5.30576C4.5483 4.99738 3.86806 5.47649 3.61472 6.18946C3.45477 6.64062 3.47941 7.12709 3.68495 7.55913C3.82026 7.84299 4.02323 8.08163 4.27437 8.25665C4.26702 8.26217 4.24091 8.28533 4.24091 8.28533C4.21848 8.30445 4.18097 8.33718 4.13942 8.37983C4.09457 8.4269 4.06331 8.46771 4.04199 8.49492L4.03095 8.50853C4.01257 8.53243 3.98131 8.57177 3.94859 8.62288C3.91329 8.67656 3.89013 8.72289 3.87505 8.75341L3.86475 8.77253C3.85115 8.79901 3.82798 8.84387 3.80556 8.90049C3.78092 8.96227 3.76621 9.01338 3.75665 9.04757L3.75187 9.06522C3.74378 9.09464 3.72871 9.14428 3.71841 9.20605C3.70628 9.26929 3.70223 9.32224 3.70003 9.35901C3.69598 9.38879 3.69047 9.4366 3.69047 9.49506V9.4991L3.689 9.51822L3.6923 9.5686C3.69304 9.7223 3.69856 9.88225 3.70848 10.0437C3.76143 12.7234 3.12531 13.685 2.74144 14.0196C2.47743 14.249 2.19761 14.2972 2.00862 14.2972C1.96229 14.2972 1.93103 14.2939 1.91963 14.2931C1.82036 14.274 1.71814 14.2645 1.61739 14.2645C0.860664 14.2645 0.196602 14.8006 0.0373889 15.5396C-0.0530647 15.9603 0.026358 16.3923 0.260581 16.7541C0.494805 17.1163 0.85662 17.366 1.27984 17.4565C1.492 17.502 1.73909 17.5259 1.99354 17.5259C2.59252 17.5259 3.75518 17.3914 4.81636 16.4942C5.17707 16.1886 5.49402 15.8239 5.76502 15.4021C7.55681 17.6436 10.2976 18.9898 13.2069 18.9898C15.3667 18.9898 17.4674 18.2426 19.1455 16.906C20.0159 19.0045 21.8308 19.6545 21.8525 19.6619C22.0246 19.7204 22.2015 19.7498 22.3798 19.7498C23.0725 19.7498 23.6877 19.3122 23.9116 18.661C24.0525 18.2514 24.0253 17.8131 23.8355 17.4259L23.8352 17.4252ZM6.25957 4.24213C7.92414 2.05433 10.4561 0.799743 13.2065 0.799743C15.7377 0.799743 18.1399 1.89475 19.7982 3.80347C20.0927 4.14359 20.056 4.65763 19.7158 4.95142C19.375 5.24594 18.8598 5.20917 18.5646 4.86979C17.2166 3.317 15.2641 2.42681 13.2065 2.42681C10.9712 2.42681 8.91251 3.44753 7.55975 5.22646C7.39907 5.43678 7.15565 5.54819 6.90856 5.54819C6.73721 5.54819 6.56366 5.49377 6.41658 5.38273C6.05734 5.11063 5.98711 4.60027 6.25994 4.24213H6.25957ZM4.3685 6.45714C4.55235 5.94126 5.12118 5.67174 5.6389 5.85412L6.67801 6.22218C7.19573 6.4053 7.46599 6.97265 7.28287 7.48853C7.138 7.89557 6.75486 8.14929 6.34524 8.14929C6.23493 8.14929 6.12279 8.1309 6.01321 8.09156L4.97336 7.72349C4.45565 7.54038 4.18539 6.97376 4.3685 6.45714ZM23.1545 18.4003C23.0387 18.7379 22.7196 18.9489 22.3794 18.9489C22.2916 18.9489 22.2011 18.9346 22.1132 18.9041C22.0845 18.8945 19.9828 18.1338 19.5621 15.4356C17.9711 17.1285 15.7112 18.1889 13.2065 18.1889C9.97552 18.1889 7.15087 16.4243 5.64625 13.8122C5.33922 14.6906 4.88953 15.3826 4.29901 15.8816C3.51985 16.5416 2.63039 16.7247 1.99281 16.7247C1.77697 16.7247 1.59054 16.7038 1.44641 16.6729C1.00554 16.5784 0.724984 16.1456 0.819114 15.7066C0.912877 15.2705 1.34161 14.9914 1.77917 15.0793C1.82881 15.0888 2.58811 15.212 3.26541 14.6219C3.87505 14.0917 4.56632 12.8602 4.50675 10.0117C4.49719 9.85577 4.49241 9.69987 4.49168 9.54213C4.49094 9.53882 4.49094 9.53587 4.49094 9.53257V9.53109C4.49094 9.51896 4.49021 9.50646 4.49021 9.49432C4.49021 9.47336 4.49499 9.45425 4.49646 9.43365C4.49793 9.40497 4.49977 9.37593 4.50455 9.34872C4.50933 9.32298 4.51742 9.29834 4.5244 9.27444C4.53176 9.24723 4.53874 9.22076 4.54831 9.19539C4.55787 9.17149 4.57 9.14906 4.58177 9.12663C4.5939 9.10273 4.60567 9.07846 4.62001 9.05603C4.63361 9.03433 4.64979 9.01521 4.6656 8.99536C4.68251 8.97366 4.69833 8.95307 4.71671 8.93359C4.73436 8.9152 4.75348 8.89902 4.7726 8.88321C4.79246 8.86483 4.81268 8.84718 4.83511 8.83136C4.85497 8.81702 4.87739 8.80489 4.89982 8.79202C4.92299 8.77842 4.94615 8.76481 4.97116 8.75378C4.99506 8.74349 5.02006 8.7354 5.0447 8.72657C5.07044 8.71848 5.09581 8.70892 5.12228 8.70341C5.14876 8.69715 5.17597 8.69458 5.20391 8.69054C5.22487 8.68833 5.24472 8.68245 5.26715 8.68171C5.27341 8.68098 5.28002 8.68245 5.28701 8.68245C5.29326 8.68245 5.29914 8.68098 5.30539 8.68098C5.32378 8.68098 5.34216 8.68502 5.36055 8.68649C5.39254 8.68796 5.42379 8.6898 5.45505 8.69532C5.4749 8.69936 5.49439 8.70561 5.51425 8.71113C5.54697 8.71922 5.57823 8.72804 5.60948 8.73981C5.62787 8.7479 5.64478 8.75672 5.66243 8.76555C5.69221 8.77989 5.72089 8.79423 5.74884 8.81261C5.76575 8.82291 5.78083 8.83651 5.79664 8.84865C5.82238 8.86777 5.84701 8.88689 5.87018 8.90858C5.88525 8.92366 5.89886 8.94057 5.9132 8.95675C5.93305 8.97918 5.95328 9.00161 5.97093 9.02625C5.98453 9.04537 5.99556 9.06632 6.00696 9.08618C6.0213 9.11082 6.03638 9.13508 6.04851 9.16119C6.05881 9.18435 6.06616 9.20826 6.07425 9.23326C6.08308 9.259 6.09264 9.28437 6.09889 9.31158C6.1044 9.33805 6.10771 9.36526 6.11102 9.39247C6.11359 9.41343 6.11911 9.43402 6.12058 9.45572C6.12793 9.61566 6.13161 9.77157 6.13566 9.92674C6.36032 13.6225 9.44494 16.5607 13.2057 16.5607C16.9666 16.5607 20.2909 13.3905 20.2909 9.49396C20.2909 8.7843 20.1861 8.08862 19.9798 7.41904C19.8725 7.4411 19.7662 7.46022 19.6603 7.47787C19.4099 6.45089 19.022 5.92839 19.0205 5.92655C19.8346 5.83169 20.7112 5.58937 21.6422 5.14225C22.0478 4.94701 22.5357 5.11651 22.7317 5.52135C22.9269 5.92692 22.7563 6.41338 22.3508 6.60753C22.0779 6.7388 21.8091 6.85462 21.5444 6.95721C21.7948 7.77644 21.9228 8.62766 21.9228 9.49396C21.9228 10.3603 21.7922 11.2052 21.5525 11.9987C21.551 12.005 21.551 12.0108 21.5484 12.0171C20.167 16.3824 22.5501 17.3303 22.6515 17.3678C23.0781 17.5134 23.3002 17.9749 23.1538 18.3996L23.1545 18.4003Z" fill="white"/>
    <path d="M10.3437 10.13C10.9359 10.13 11.4159 9.65116 11.4159 9.06042C11.4159 8.46967 10.9359 7.99078 10.3437 7.99078C9.75153 7.99078 9.27148 8.46967 9.27148 9.06042C9.27148 9.65116 9.75153 10.13 10.3437 10.13Z" fill="#001126"/>
    <path d="M16.6674 10.8191C17.2596 10.8191 17.7396 10.3402 17.7396 9.7495C17.7396 9.15876 17.2596 8.67987 16.6674 8.67987C16.0753 8.67987 15.5952 9.15876 15.5952 9.7495C15.5952 10.3402 16.0753 10.8191 16.6674 10.8191Z" fill="#001126"/>
    <path d="M6.41594 5.38236C6.56375 5.49414 6.73657 5.54819 6.90865 5.54819C7.15538 5.54819 7.39879 5.43715 7.55911 5.22646C8.91224 3.44753 10.971 2.42754 13.2066 2.42754C15.2635 2.42754 17.216 3.31774 18.5643 4.87016C18.8596 5.20991 19.3743 5.24668 19.7152 4.95215C20.0557 4.65799 20.0928 4.14395 19.7976 3.8042C18.1392 1.89511 15.7371 0.80011 13.2066 0.80011C10.4562 0.80011 7.92387 2.05469 6.2593 4.2425C5.98683 4.60063 6.05706 5.111 6.41594 5.38273V5.38236Z" fill="#001126"/>
    <path d="M9.53874 13.2867C10.9522 14.6226 12.3428 15.0517 13.5474 15.0517C15.6988 15.0517 17.256 13.6816 17.2799 13.66C17.613 13.3595 17.6384 12.8484 17.3391 12.5149C17.0394 12.1814 16.5246 12.1535 16.1886 12.4502C15.9157 12.6918 13.4407 14.7329 10.6613 12.1053C10.3341 11.7961 9.81782 11.8101 9.50785 12.1362C9.19788 12.4624 9.21186 12.9775 9.53874 13.2867Z" fill="#001126"/>
    <path d="M22.6527 17.3686C22.5505 17.3303 20.1675 16.3824 21.5493 12.0175C21.5511 12.0116 21.5515 12.0053 21.553 11.9991C21.7927 11.2056 21.9232 10.365 21.9232 9.49433C21.9232 8.62362 21.7953 7.77718 21.5449 6.95758C21.81 6.85499 22.0788 6.73917 22.3509 6.60827C22.7568 6.41339 22.9274 5.92693 22.7318 5.52172C22.5362 5.11652 22.0482 4.94701 21.6427 5.14189C16.3276 7.69592 12.7676 3.57917 12.6168 3.40047C12.3285 3.05668 11.8152 3.00961 11.4692 3.29642C11.1228 3.58395 11.0754 4.09689 11.3633 4.44253C11.3975 4.48334 14.0556 7.59811 18.2404 7.59811C18.7945 7.59811 19.3755 7.54296 19.9807 7.41941C20.1866 8.08862 20.2918 8.78467 20.2918 9.49396C20.2918 13.3908 17.1134 16.5611 13.2066 16.5611C9.2998 16.5611 6.36116 13.6225 6.13613 9.92674C6.13245 9.77157 6.12841 9.61567 6.12069 9.45572C6.11958 9.43403 6.11407 9.4138 6.11113 9.39248C6.10782 9.36527 6.10524 9.33806 6.09899 9.31158C6.09274 9.28437 6.08355 9.259 6.07472 9.23326C6.06627 9.209 6.05891 9.18436 6.04862 9.16119C6.03685 9.13509 6.02214 9.11082 6.0078 9.08618C5.99604 9.06596 5.985 9.045 5.9714 9.02588C5.95412 9.00125 5.9339 8.97882 5.91404 8.95639C5.8997 8.94021 5.88609 8.92366 5.87065 8.90859C5.84785 8.88652 5.82285 8.86777 5.79748 8.84865C5.7813 8.83652 5.76623 8.82365 5.74894 8.81262C5.72137 8.7946 5.69232 8.78026 5.66253 8.76592C5.64489 8.75746 5.62797 8.7479 5.60959 8.74055C5.57907 8.72842 5.54708 8.71959 5.51472 8.71113C5.49486 8.70599 5.47538 8.69973 5.45515 8.69569C5.42427 8.69017 5.39264 8.68834 5.36102 8.68613C5.34264 8.68503 5.32462 8.68061 5.30587 8.68061C5.29962 8.68061 5.29373 8.68245 5.28748 8.68245C5.2805 8.68245 5.27425 8.68098 5.26726 8.68135C5.24556 8.68245 5.22534 8.68797 5.20402 8.69091C5.17681 8.69422 5.14923 8.69679 5.12275 8.70304C5.09591 8.70929 5.07091 8.71849 5.04517 8.72694C5.02017 8.7354 4.99516 8.74312 4.97126 8.75379C4.94626 8.76518 4.92309 8.77879 4.89956 8.79239C4.8775 8.8049 4.85544 8.81703 4.83485 8.83137C4.81279 8.84718 4.79293 8.8652 4.77234 8.88285C4.75322 8.89939 4.7341 8.91521 4.71645 8.93322C4.69806 8.95271 4.68188 8.97367 4.66534 8.995C4.64953 9.01485 4.63335 9.03434 4.61974 9.05567C4.6054 9.07809 4.59364 9.10236 4.5815 9.12626C4.56974 9.14906 4.5576 9.17112 4.54804 9.19539C4.53775 9.22076 4.53113 9.2476 4.52341 9.27408C4.51642 9.29871 4.5087 9.32298 4.50392 9.34872C4.49877 9.37667 4.4973 9.40498 4.49546 9.43366C4.49399 9.45425 4.48921 9.47374 4.48921 9.49433C4.48921 9.50683 4.48995 9.51896 4.49031 9.5311C4.49031 9.53183 4.49031 9.5322 4.49031 9.53294C4.49031 9.53625 4.49031 9.53919 4.49068 9.5425C4.49142 9.69987 4.49693 9.85651 4.50612 10.012C4.56532 12.861 3.87405 14.092 3.26478 14.6222C2.58674 15.2124 1.82745 15.0892 1.77781 15.08C1.34098 14.9918 0.911879 15.2709 0.818116 15.7073C0.723618 16.1467 1.00417 16.5795 1.44504 16.6736C1.58881 16.7045 1.77597 16.7255 1.99181 16.7255C2.62903 16.7255 3.51849 16.542 4.29801 15.8823C4.88816 15.383 5.33749 14.691 5.64489 13.8122C7.15024 16.4247 9.97453 18.1889 13.2059 18.1889C15.7106 18.1889 17.9701 17.1285 19.5615 15.4356C19.9822 18.1334 22.0832 18.8945 22.1122 18.9045C22.2005 18.9346 22.2902 18.9489 22.3784 18.9489C22.7182 18.9489 23.0377 18.7379 23.1535 18.4003C23.2995 17.9749 23.0778 17.5142 22.6513 17.3686H22.6527Z" fill="#001126"/>
    <path d="M4.9735 7.72348L6.01298 8.09154C6.12292 8.13052 6.23507 8.1489 6.34538 8.1489C6.75463 8.1489 7.13777 7.89519 7.28264 7.48852C7.46612 6.97227 7.19586 6.40528 6.67815 6.22217L5.63867 5.8541C5.12168 5.67099 4.55285 5.94088 4.369 6.45713C4.18552 6.97337 4.45578 7.54036 4.9735 7.72348Z" fill="#15ECDA"/>
  </g>
  <defs>
    <clipPath id="clip0_4219_1186">
      <rect width="24" height="19.749" fill="white"/>
    </clipPath>
  </defs>
</svg>