<?xml version="1.0" encoding="UTF-8"?>
<svg id="Layer_2" data-name="Layer 2" xmlns="http://www.w3.org/2000/svg" viewBox="0 0 900 475.23">
  <defs>
    <style>
      .cls-1 {
        fill: #363636;
      }
    </style>
  </defs>
  <g id="Línea_4_copia_Image" data-name="Línea 4 copia Image">
    <g>
      <path class="cls-1" d="M.36,338.37c4.49-37.29,36.33-76.13,70.97-89.8,27.69-10.93,51.42-5.03,78.62-16.38,34.12-14.24,64.31-42.28,74.41-78.48,9.83-35.25-.71-62.58,19.93-97.7,53.15-90.41,193.19-66.38,211.41,36.39,5.96,33.64-3.49,57.92,14.99,90.34,43.09,75.6,128.56,46.19,178.34,99.47,46.3,49.55,39.35,130.47-16.18,169.9-17.62,12.51-34.45,17.69-55.12,23.13h-24.64c-37.28-8.28-68.52-25.17-87.67-59.13-15.83-28.08-12.62-57.96-24.67-87.7-42.48-104.82-161.9-113.15-202.31-2.75-10.32,28.19-9.17,56.98-23.67,83.44-31.49,57.43-106.05,75.45-161.45,40.56C23.66,430.96,6.86,402.27.36,368.2c.81-9.51-1.11-20.57,0-29.83Z"/>
      <path class="cls-1" d="M778.05.46c152.83-12.17,166.58,219.97,15.3,227.55-148.27,7.44-163.33-215.77-15.3-227.55Z"/>
    </g>
  </g>
</svg>