<?xml version="1.0" encoding="UTF-8"?>
<svg id="Layer_2" data-name="Layer 2" xmlns="http://www.w3.org/2000/svg" viewBox="0 0 1809.07 182.28">
  <defs>
    <style>
      .cls-1 {
        fill: #363636;
      }
    </style>
  </defs>
  <g id="Línea_4_copia_Image" data-name="Línea 4 copia Image">
    <g>
      <g>
        <path class="cls-1" d="M1135.59,30.34V3.93h125.29v26.41h-125.29Z"/>
        <path class="cls-1" d="M1135.59,178.35v-26.41h128.35v26.41h-128.35Z"/>
        <path class="cls-1" d="M1135.59,104.35v-26.41h112.07v26.41h-112.07Z"/>
      </g>
      <g>
        <path class="cls-1" d="M.14,129.79c1.72-14.3,13.94-29.2,27.22-34.45,10.62-4.19,19.72-1.93,30.16-6.28,13.09-5.46,24.67-16.22,28.54-30.1,3.77-13.52-.27-24,7.65-37.47,20.39-34.68,74.1-25.46,81.09,13.96,2.29,12.9-1.34,22.22,5.75,34.65,16.53,29,49.31,17.72,68.41,38.15,17.76,19,15.09,50.05-6.21,65.17-6.76,4.8-13.21,6.79-21.14,8.87h-9.45c-14.3-3.18-26.28-9.65-33.63-22.68-6.07-10.77-4.84-22.23-9.46-33.64-16.29-40.21-62.1-43.4-77.6-1.05-3.96,10.81-3.52,21.86-9.08,32-12.08,22.03-40.68,28.94-61.93,15.56-11.37-7.16-17.82-18.17-20.31-31.24.31-3.65-.43-7.89,0-11.44Z"/>
        <path class="cls-1" d="M298.44.18c58.62-4.67,63.89,84.37,5.87,87.28-56.87,2.85-62.65-82.76-5.87-87.28Z"/>
      </g>
      <path class="cls-1" d="M529.74,111.9h30.34c-5.65,42.62-37.1,70.38-78.61,70.38-48.27,0-82.18-37.1-82.18-91.14S433.19,0,481.46,0C522.98,0,554.42,27.76,560.08,70.38h-30.34c-5.77-30.46-27.39-44.47-48.64-44.47-26.29,0-51.83,20.64-51.83,65.22s25.55,65.23,51.83,65.23c21.25,0,42.87-14,48.64-44.47Z"/>
      <path class="cls-1" d="M589.47,91.14C589.47,36.97,623.13,0,673.37,0s83.65,36.97,83.65,91.14-33.53,91.14-83.65,91.14-83.9-36.97-83.9-91.14ZM727.05,91.14c0-44.34-26.41-65.22-53.68-65.22s-53.92,20.88-53.92,65.22,26.65,65.23,53.92,65.23,53.68-20.88,53.68-65.23Z"/>
      <path class="cls-1" d="M1584.37,178.35l-41.27-65.1-41.03,65.1h-34.15l57.73-88.19-56.75-86.23h33.41l41.03,64.61,40.9-64.61h33.41l-56.75,86.23,57.73,88.19h-34.27Z"/>
      <g>
        <polygon class="cls-1" points="1057.78 147.15 1106.19 3.93 1075.48 3.93 1044.19 103.4 1057.78 147.15"/>
        <polygon class="cls-1" points="986.92 3.93 955.84 3.93 1015.66 178.35 1041.81 178.35 986.92 3.93"/>
      </g>
      <g>
        <polygon class="cls-1" points="1725.49 28.1 1752.57 28.1 1743.48 3.93 1717.21 3.93 1725.49 28.1"/>
        <polygon class="cls-1" points="1761.78 52.6 1733.98 52.6 1756.13 115.59 1701.1 115.59 1715.52 74.59 1701.95 34.99 1648.04 178.35 1679.11 178.35 1692.75 139.42 1764.61 139.42 1778.36 178.35 1809.07 178.35 1761.78 52.6"/>
      </g>
      <g>
        <polygon class="cls-1" points="786.41 49.1 786.41 178.35 816.26 178.35 816.26 95.37 786.41 49.1"/>
        <polygon class="cls-1" points="896.47 3.93 896.47 127.62 813.68 3.93 786.44 3.93 896.63 174.73 899.05 178.35 926.44 178.35 926.44 3.93 896.47 3.93"/>
      </g>
      <path class="cls-1" d="M1369.12,91.63c18.92,0,31.94-8.6,31.94-30.71s-13.02-30.71-31.94-30.71h-75.79V3.93h78.37c36.48,0,59.2,20.27,59.2,56.5,0,24.44-10.57,41.64-28.74,50.24l36.36,67.68h-32.67l-31.45-61.54h-51.22v61.54h-29.85v-86.72h75.79Z"/>
    </g>
  </g>
</svg>