<svg width="24" height="24" viewBox="0 0 24 24" fill="none" xmlns="http://www.w3.org/2000/svg">
<rect width="24" height="24" rx="4" fill="#25D366"/>
<g clip-path="url(#clip0_4448_3779)">
<path fill-rule="evenodd" clip-rule="evenodd" d="M17.3145 6.69077C15.9045 5.27849 14.0295 4.50075 12.0317 4.5C7.91464 4.5 4.56406 7.85021 4.56255 11.968C4.5618 13.2845 4.90582 14.5695 5.55959 15.7018L4.5 19.5723L8.45951 18.5339C9.55037 19.1292 10.7788 19.4423 12.0286 19.4427H12.032C16.1483 19.4427 19.4992 16.0921 19.5004 11.9744C19.5011 9.9788 18.7249 8.10229 17.3149 6.69077H17.3145ZM12.0317 18.1812H12.029C10.9152 18.1812 9.8228 17.8812 8.86947 17.316L8.64263 17.1815L6.29286 17.798L6.91987 15.507L6.77216 15.2722C6.1508 14.2838 5.8226 13.1414 5.82298 11.9687C5.82448 8.54617 8.6091 5.76156 12.0335 5.76156C13.6915 5.76231 15.25 6.40854 16.4222 7.5823C17.5945 8.7553 18.2392 10.3153 18.2384 11.974C18.2369 15.3969 15.4523 18.1815 12.0309 18.1815L12.0317 18.1812Z" fill="white"/>
<path fill-rule="evenodd" clip-rule="evenodd" d="M15.4364 13.5325C15.2499 13.439 14.3323 12.9876 14.1613 12.9255C13.9902 12.8633 13.8658 12.832 13.7415 13.0189C13.6172 13.2058 13.2596 13.6263 13.1507 13.7507C13.0418 13.8754 12.9329 13.8908 12.7464 13.7974C12.5598 13.7039 11.9584 13.5069 11.2455 12.8712C10.6909 12.3764 10.3163 11.7653 10.2074 11.5784C10.0985 11.3915 10.1961 11.2905 10.2892 11.1978C10.3728 11.1141 10.4757 10.9796 10.5692 10.8707C10.6626 10.7618 10.6935 10.6838 10.7557 10.5595C10.8178 10.4347 10.7869 10.3259 10.7402 10.2324C10.6935 10.139 10.3205 9.22029 10.1648 8.84688C10.0134 8.48288 9.85924 8.53262 9.74507 8.52621C9.63617 8.52094 9.51183 8.51981 9.38748 8.51981C9.26313 8.51981 9.06079 8.56653 8.88971 8.75343C8.71864 8.94032 8.23633 9.39174 8.23633 10.31C8.23633 11.2283 8.90479 12.1161 8.99824 12.2408C9.09168 12.3655 10.3144 14.2503 12.186 15.0589C12.631 15.2511 12.9788 15.366 13.2501 15.4523C13.697 15.5944 14.104 15.5744 14.4254 15.5266C14.7838 15.4727 15.5295 15.0751 15.6851 14.6392C15.8403 14.2032 15.8403 13.8294 15.794 13.7518C15.7476 13.6742 15.6229 13.6271 15.4364 13.5336V13.5329V13.5325Z" fill="white"/>
</g>
<defs>
<clipPath id="clip0_4448_3779">
<rect width="15" height="15.0723" fill="white" transform="translate(4.5 4.5)"/>
</clipPath>
</defs>
</svg>
