<svg width="30" height="25" viewBox="0 0 30 25" fill="none" xmlns="http://www.w3.org/2000/svg">
<path d="M12.7831 12.9471C13.5764 12.9471 14.2195 12.3058 14.2195 11.5147C14.2195 10.7236 13.5764 10.0823 12.7831 10.0823C11.9898 10.0823 11.3467 10.7236 11.3467 11.5147C11.3467 12.3058 11.9898 12.9471 12.7831 12.9471Z" fill="#001130"/>
<path d="M21.2536 13.8705C22.0469 13.8705 22.69 13.2292 22.69 12.4381C22.69 11.647 22.0469 11.0057 21.2536 11.0057C20.4602 11.0057 19.8171 11.647 19.8171 12.4381C19.8171 13.2292 20.4602 13.8705 21.2536 13.8705Z" fill="#001130"/>
<path d="M7.52283 6.58873C7.72079 6.7384 7.95255 6.81083 8.1827 6.81083C8.51264 6.81083 8.83936 6.66195 9.05422 6.3795C10.8664 3.99672 13.6242 2.63031 16.6186 2.63031C19.3731 2.63031 21.9885 3.8229 23.7943 5.90149C24.1894 6.35616 24.879 6.40525 25.3353 6.01174C25.7916 5.61743 25.8407 4.92939 25.4456 4.47392C23.2253 1.91732 20.0073 0.450317 16.6186 0.450317C12.9346 0.450317 9.54268 2.13057 7.31361 5.06137C6.94907 5.54098 7.04241 6.22499 7.52364 6.58873H7.52283Z" fill="#001130"/>
<path d="M11.705 17.1756C13.5977 18.9645 15.4606 19.5399 17.074 19.5399C19.9558 19.5399 22.0416 17.7051 22.0738 17.6761C22.5196 17.2738 22.5542 16.589 22.1526 16.1423C21.7511 15.6957 21.0622 15.6587 20.6116 16.0554C20.2463 16.3789 16.9308 19.1126 13.209 15.5935C12.7704 15.1791 12.0791 15.1976 11.6639 15.6346C11.2487 16.0715 11.2672 16.762 11.7058 17.1756H11.705Z" fill="#001130"/>
<path d="M29.2696 22.643C29.1328 22.5923 25.9413 21.3225 27.7921 15.4754C27.7945 15.4673 27.7945 15.4593 27.797 15.4512C28.118 14.3882 28.2927 13.2624 28.2927 12.0964C28.2927 10.9303 28.1213 9.79646 27.7857 8.69882C28.1406 8.56202 28.5003 8.40671 28.8656 8.23128C29.4096 7.96974 29.6382 7.31872 29.3758 6.77634C29.1135 6.23396 28.4601 6.00623 27.9169 6.26776C20.7983 9.68863 16.0295 4.17468 15.8276 3.93488C15.4413 3.47458 14.7541 3.41181 14.2905 3.79566C13.8262 4.18031 13.7626 4.86835 14.1489 5.33107C14.1948 5.38579 17.7549 9.55746 23.3597 9.55746C24.1017 9.55746 24.8799 9.48342 25.691 9.31846C25.967 10.2149 26.1079 11.1468 26.1079 12.0972C26.1079 17.3166 21.8509 21.5631 16.6186 21.5631C11.3863 21.5631 7.4496 17.6272 7.14864 12.6774C7.14381 12.4697 7.13818 12.2605 7.12772 12.0465C7.12611 12.0175 7.11886 11.9901 7.11484 11.962C7.11001 11.9257 7.10679 11.8887 7.09875 11.8541C7.0907 11.8179 7.07782 11.7841 7.06575 11.7487C7.05449 11.7157 7.04483 11.6835 7.03034 11.6521C7.01425 11.6167 6.99494 11.5845 6.97562 11.5516C6.95953 11.5242 6.94504 11.4968 6.92654 11.4711C6.9032 11.4381 6.87664 11.4083 6.84928 11.3777C6.82997 11.356 6.81227 11.3335 6.79134 11.3134C6.76076 11.2836 6.72697 11.2586 6.69317 11.2329C6.67144 11.2168 6.65132 11.1991 6.62798 11.1846C6.59097 11.1605 6.55154 11.1411 6.51211 11.1218C6.48877 11.1106 6.46624 11.0977 6.44129 11.088C6.40025 11.0719 6.3576 11.0599 6.31414 11.0486C6.28759 11.0414 6.26184 11.0333 6.23448 11.0277C6.19344 11.0204 6.15079 11.018 6.10814 11.0148C6.08319 11.0132 6.05985 11.0076 6.0341 11.0076C6.02525 11.0076 6.01801 11.01 6.00915 11.01C6.0003 11.01 5.99145 11.0084 5.9826 11.0084C5.95363 11.01 5.92627 11.0172 5.8981 11.0212C5.86189 11.0261 5.82487 11.0293 5.78947 11.0373C5.75406 11.0454 5.72026 11.0575 5.68566 11.0695C5.65266 11.0808 5.61887 11.0913 5.58668 11.1049C5.55288 11.1202 5.5223 11.1387 5.49091 11.1572C5.46114 11.1741 5.43217 11.1902 5.404 11.2095C5.37423 11.2305 5.34767 11.2546 5.32031 11.2788C5.29456 11.3005 5.26881 11.3222 5.24548 11.3464C5.22053 11.3721 5.19961 11.4011 5.17707 11.4292C5.15615 11.4558 5.13442 11.4823 5.11592 11.5105C5.0966 11.5403 5.08131 11.5725 5.06441 11.6047C5.04912 11.6352 5.03222 11.665 5.01935 11.6972C5.00567 11.731 4.99682 11.7672 4.98636 11.8026C4.9767 11.8356 4.96704 11.8678 4.9606 11.9024C4.95417 11.9394 4.95175 11.9781 4.94934 12.0167C4.94692 12.044 4.94129 12.0698 4.94129 12.098C4.94129 12.1149 4.9421 12.131 4.9429 12.147C4.9429 12.147 4.9429 12.1487 4.9429 12.1495C4.9429 12.1535 4.9429 12.1575 4.9429 12.1623C4.94371 12.3732 4.95175 12.5832 4.96382 12.7908C5.04269 16.6068 4.11726 18.2557 3.30127 18.9663C2.39274 19.7565 1.37638 19.5915 1.30959 19.5794C0.724555 19.4612 0.149984 19.8353 0.0244479 20.4196C-0.101893 21.0078 0.273911 21.588 0.863771 21.7136C1.0569 21.7546 1.30717 21.7828 1.59607 21.7828C2.44988 21.7828 3.64086 21.5373 4.68459 20.6537C5.47482 19.985 6.07675 19.058 6.48877 17.8815C8.50459 21.3804 12.2876 23.7439 16.6162 23.7439C19.9711 23.7439 22.9976 22.3235 25.1285 20.0558C25.6918 23.669 28.5059 24.6886 28.5454 24.7023C28.6637 24.7425 28.7836 24.7618 28.9018 24.7618C29.3573 24.7618 29.7854 24.4786 29.9399 24.0271C30.1355 23.4574 29.8385 22.8402 29.2672 22.6454L29.2696 22.643Z" fill="#001130"/>
<path d="M5.59079 9.72364L6.98295 10.2161C7.13022 10.2684 7.2807 10.2926 7.42796 10.2926C7.97598 10.2926 8.48939 9.95218 8.68333 9.40819C8.92957 8.71694 8.56664 7.95728 7.87378 7.71184L6.48161 7.21935C5.78875 6.97391 5.02748 7.33604 4.78124 8.02729C4.53499 8.71855 4.89792 9.4782 5.59079 9.72364Z" fill="#15ECDA"/>
</svg>
