<svg width="16" height="17" viewBox="0 0 16 17" fill="none" xmlns="http://www.w3.org/2000/svg">
<path fill-rule="evenodd" clip-rule="evenodd" d="M13.6688 2.44332C12.1648 0.936892 10.1648 0.10731 8.03376 0.106506C3.64228 0.106506 0.068328 3.68006 0.0667203 8.07234C0.0659164 9.47668 0.432878 10.8473 1.13023 12.0551L0 16.1837L4.22347 15.076C5.38706 15.711 6.69735 16.045 8.03055 16.0454H8.03416C12.4248 16.0454 15.9992 12.4715 16.0004 8.07918C16.0012 5.95056 15.1732 3.94895 13.6692 2.44332H13.6688ZM11.9309 10.9208C11.7653 11.3858 10.9699 11.8103 10.5872 11.8674C10.2444 11.9184 9.81029 11.9401 9.3336 11.7882C9.04461 11.6965 8.67363 11.574 8.19855 11.3686C6.20177 10.506 4.89791 8.49557 4.79823 8.36254C4.69855 8.2295 3.98553 7.28255 3.98553 6.30305C3.98553 5.32355 4.4996 4.84204 4.68248 4.64268C4.86495 4.44332 5.08039 4.39348 5.21343 4.39348C5.34646 4.39348 5.4787 4.39469 5.59486 4.40032C5.71664 4.40675 5.88103 4.35409 6.0426 4.74236C6.2086 5.14067 6.60691 6.12057 6.65635 6.22025C6.70619 6.31993 6.73915 6.43609 6.67283 6.56913C6.60651 6.70176 6.57355 6.78496 6.47388 6.90112C6.3742 7.01728 6.26447 7.16037 6.17524 7.25C6.07596 7.34887 5.97187 7.45659 6.08802 7.65594C6.20418 7.8553 6.6037 8.50683 7.19534 9.03496C7.95579 9.71302 8.59727 9.92323 8.79622 10.0229C8.99518 10.1226 9.11133 10.1061 9.22749 9.97307C9.34365 9.84043 9.72508 9.39228 9.85772 9.19252C9.99035 8.99316 10.123 9.02652 10.3055 9.09284C10.4879 9.15916 11.4666 9.64067 11.6656 9.74035V9.74115C11.8641 9.84083 11.9972 9.89107 12.047 9.97387C12.0969 10.0567 12.0969 10.4554 11.9309 10.9204V10.9208Z" fill="#001130"/>
</svg>
