<svg width="16" height="17" viewBox="0 0 16 17" fill="none" xmlns="http://www.w3.org/2000/svg">
<g clip-path="url(#clip0_4674_340)">
<path d="M4.68672 0.161629C3.83552 0.201629 3.25432 0.338029 2.74592 0.537229C2.21992 0.742429 1.77432 1.01683 1.33072 1.46243C0.886724 1.90803 0.613924 2.35443 0.410724 2.88123C0.213924 3.39043 0.0803237 3.97203 0.0427237 4.82403C0.00512368 5.67723 -0.00327632 5.94923 0.000723678 8.12163C0.00472368 10.2936 0.0143237 10.5664 0.0551237 11.42C0.0959237 12.2708 0.231524 12.852 0.430724 13.3604C0.635924 13.8864 0.910324 14.332 1.35592 14.7756C1.80112 15.2192 2.24792 15.4916 2.77472 15.6956C3.28352 15.8924 3.86552 16.0264 4.71672 16.0636C5.56992 16.1012 5.84232 16.1096 8.01432 16.1052C10.1871 16.1012 10.4595 16.0916 11.3127 16.0512C12.1639 16.0104 12.7447 15.874 13.2535 15.6756C13.7795 15.4696 14.2251 15.196 14.6687 14.7504C15.1123 14.3052 15.3847 13.8584 15.5883 13.3316C15.7851 12.8228 15.9191 12.2408 15.9563 11.39C15.9935 10.536 16.0023 10.2636 15.9983 8.09123C15.9943 5.91883 15.9843 5.64683 15.9439 4.79363C15.9035 3.94203 15.7671 3.36083 15.5683 2.85243C15.3627 2.32643 15.0887 1.88123 14.6431 1.43723C14.1979 0.993629 13.7511 0.720429 13.2243 0.517629C12.7151 0.320829 12.1335 0.186429 11.2823 0.149629C10.4295 0.111629 10.1571 0.103229 7.98432 0.107229C5.81232 0.111229 5.53992 0.120829 4.68632 0.161629M4.77992 14.624C3.99992 14.59 3.57632 14.4604 3.29432 14.352C2.92072 14.2072 2.65392 14.034 2.37312 13.7552C2.09312 13.4756 1.91912 13.2096 1.77312 12.8364C1.66352 12.554 1.53152 12.1312 1.49512 11.3512C1.45552 10.508 1.44632 10.2552 1.44232 8.11883C1.43832 5.98323 1.44592 5.73043 1.48272 4.88643C1.51632 4.10683 1.64672 3.68283 1.75472 3.40083C1.89952 3.02643 2.07232 2.76043 2.35152 2.47963C2.63112 2.19883 2.89712 2.02563 3.27032 1.87963C3.55232 1.76963 3.97552 1.63843 4.75512 1.60163C5.59872 1.56163 5.85152 1.55323 7.98712 1.54883C10.1231 1.54483 10.3763 1.55203 11.2203 1.58923C11.9999 1.62323 12.4239 1.75243 12.7055 1.86123C13.0795 2.00603 13.3463 2.17843 13.6267 2.45803C13.9071 2.73763 14.0811 3.00323 14.2271 3.37723C14.3371 3.65843 14.4683 4.08203 14.5051 4.86163C14.5451 5.70523 14.5543 5.95843 14.5583 8.09403C14.5623 10.23 14.5547 10.4832 14.5175 11.3264C14.4835 12.1064 14.3543 12.53 14.2455 12.8128C14.1007 13.1864 13.9279 13.4532 13.6487 13.7336C13.3691 14.0132 13.1035 14.1876 12.7299 14.3336C12.4483 14.4436 12.0247 14.5748 11.2459 14.6116C10.4023 14.6512 10.1495 14.6604 8.01312 14.6644C5.87752 14.6684 5.62472 14.6604 4.78072 14.624M11.3019 3.83003C11.3031 4.36003 11.7339 4.78883 12.2635 4.78763C12.7935 4.78643 13.2227 4.35603 13.2219 3.82643C13.2207 3.29643 12.7899 2.86723 12.2599 2.86843C11.7299 2.86963 11.3007 3.30043 11.3019 3.83003ZM3.89232 8.11403C3.89672 10.3828 5.73952 12.218 8.00752 12.2136C10.2759 12.2092 12.1123 10.3672 12.1079 8.09843C12.1035 5.83043 10.2607 3.99403 7.99192 3.99843C5.72352 4.00283 3.88792 5.84563 3.89232 8.11403ZM5.33312 8.11123C5.33072 6.63883 6.52232 5.44243 7.99472 5.44003C9.46712 5.43723 10.6635 6.62843 10.6667 8.10123C10.6695 9.57403 9.47792 10.77 8.00512 10.7728C6.53272 10.7756 5.33632 9.58403 5.33352 8.11123" fill="#001130"/>
</g>
<defs>
<clipPath id="clip0_4674_340">
<rect width="16" height="16" fill="white" transform="translate(0 0.106506)"/>
</clipPath>
</defs>
</svg>
