<svg width="300" height="59" viewBox="0 0 300 59" fill="none" xmlns="http://www.w3.org/2000/svg">
<g clip-path="url(#clip0_6_729)">
<path d="M84.3209 33.6659C84.3209 33.6659 84.3209 33.6659 84.3149 33.6659L79.3897 32.4721C78.178 32.1841 77.1821 31.8362 76.4263 31.4343C75.7004 31.0503 75.1365 30.6484 74.7406 30.2285C74.3926 29.8566 74.1587 29.4726 74.0327 29.0587C73.8827 28.5668 73.8108 28.0209 73.8108 27.433C73.8108 26.9591 73.9067 26.4372 74.0927 25.8733C74.2607 25.3694 74.5546 24.9074 74.9865 24.4635C75.4245 24.0136 76.0543 23.6237 76.8522 23.3057C77.6741 22.9818 78.7479 22.8138 80.0436 22.8138C81.3394 22.8138 82.4432 22.9398 83.343 23.1918C84.2489 23.4437 85.0167 23.7497 85.6166 24.0976C86.2225 24.4515 86.7144 24.7995 87.0684 25.1474C87.4523 25.5193 87.7582 25.8433 87.9682 26.1072C88.4001 26.6951 88.862 27.0731 89.366 27.253C90.4638 27.649 91.6575 27.463 92.5274 26.6471C93.1153 26.0892 93.4272 25.3934 93.4272 24.6255C93.4272 23.9296 93.1213 23.1918 92.4614 22.2919C92.1195 21.83 91.6395 21.3261 91.0097 20.7442C90.3618 20.1503 89.5339 19.5864 88.5501 19.0645C87.5723 18.5486 86.3845 18.1107 85.0227 17.7687C83.649 17.4208 82.0233 17.2468 80.1936 17.2468C78.19 17.2468 76.3963 17.5168 74.8606 18.0447C73.2948 18.5846 71.9631 19.3405 70.9133 20.2823C69.8395 21.2421 69.0296 22.3819 68.4957 23.6717C67.9798 24.9314 67.7158 26.2632 67.7158 27.637C67.7158 29.0107 67.9258 30.3365 68.3337 31.4343C68.7597 32.5801 69.4255 33.5999 70.3134 34.4697C71.1652 35.3036 72.257 36.0294 73.5528 36.6233C74.7826 37.1872 76.2583 37.6791 77.926 38.0811L81.6513 38.9869C83.8289 39.5208 85.3827 40.2647 86.2525 41.2005C87.0744 42.0824 87.4763 43.1622 87.4763 44.5059C87.4763 45.3098 87.3203 46.0236 87.0204 46.6175C86.7084 47.2294 86.2825 47.7273 85.7186 48.1533C85.1307 48.5912 84.4108 48.9271 83.583 49.1491C82.6952 49.383 81.7173 49.503 80.6735 49.503C79.2758 49.503 78.082 49.383 77.1222 49.1431C76.1563 48.9031 75.3225 48.6032 74.6506 48.2552C73.9787 47.9133 73.4268 47.5594 73.0009 47.2054C72.509 46.7915 72.0831 46.4136 71.6991 46.0656C71.3872 45.7837 71.1412 45.5617 70.9613 45.3998C70.5053 44.9918 69.9175 44.7699 69.2636 44.7699C68.6577 44.7699 68.0518 45.0158 67.4039 45.5197C66.4741 46.2456 66.2821 47.0855 66.2821 47.6554C66.2821 48.1233 66.3841 48.5792 66.5761 49.0171C66.762 49.443 67.086 49.881 67.5599 50.3609C67.9258 50.7628 68.4237 51.2187 69.0836 51.7526C69.7855 52.3285 70.6853 52.8624 71.7531 53.3423C72.7909 53.8102 74.0207 54.2122 75.4185 54.5361C76.8282 54.8601 78.5019 55.028 80.3856 55.028C82.2692 55.028 83.9549 54.8061 85.5146 54.3741C87.1224 53.9302 88.5381 53.2523 89.7199 52.3585C90.9377 51.4347 91.8975 50.2769 92.5694 48.9091C93.2413 47.5414 93.5832 45.9757 93.5832 44.254C93.5832 41.3145 92.7253 38.9389 91.0337 37.2052C89.4259 35.5615 87.1703 34.3677 84.3329 33.6659H84.3209Z" fill="#212121"/>
<path d="M132.228 22.6879C130.537 20.9962 128.521 19.6524 126.235 18.6866C123.944 17.7208 121.442 17.2289 118.803 17.2289C116.163 17.2289 113.662 17.7208 111.37 18.6866C109.084 19.6524 107.069 20.9962 105.377 22.6879C103.685 24.3796 102.342 26.4012 101.382 28.6868C100.416 30.9784 99.9301 33.486 99.9301 36.1255C99.9301 38.765 100.416 41.2726 101.382 43.5641C102.342 45.8557 103.685 47.8714 105.377 49.5631C107.069 51.2548 109.084 52.6045 111.37 53.5643C113.662 54.5302 116.163 55.0221 118.803 55.0221C121.442 55.0221 123.944 54.5302 126.235 53.5643C128.521 52.6045 130.537 51.2548 132.228 49.5631C133.92 47.8714 135.264 45.8497 136.224 43.5641C137.189 41.2666 137.675 38.765 137.675 36.1255C137.675 33.486 137.189 30.9784 136.224 28.6868C135.264 26.4012 133.914 24.3796 132.228 22.6879ZM118.803 49.2031C117.009 49.2031 115.311 48.8672 113.758 48.2013C112.198 47.5354 110.836 46.6116 109.708 45.4538C108.574 44.29 107.669 42.8983 107.015 41.3145C106.361 39.7368 106.031 37.9971 106.031 36.1315C106.031 34.2658 106.361 32.5201 107.015 30.9484C107.669 29.3647 108.574 27.9729 109.708 26.8092C110.836 25.6514 112.198 24.7275 113.758 24.0617C115.311 23.3958 117.009 23.0598 118.797 23.0598C120.584 23.0598 122.282 23.3958 123.836 24.0617C125.395 24.7275 126.757 25.6514 127.885 26.8092C129.019 27.9729 129.925 29.3647 130.579 30.9484C131.232 32.5261 131.562 34.2718 131.562 36.1315C131.562 37.9911 131.232 39.7368 130.579 41.3145C129.925 42.8983 129.019 44.29 127.885 45.4538C126.757 46.6116 125.395 47.5354 123.836 48.2013C122.282 48.8672 120.584 49.2031 118.797 49.2031H118.803Z" fill="#212121"/>
<path d="M166.818 18.0387H148.251C146.41 18.0387 145.222 19.2265 145.222 21.0682V51.6087C145.222 52.6225 145.54 53.3963 146.158 53.8942C146.686 54.3262 147.358 54.5421 148.155 54.5421C148.953 54.5421 149.601 54.3322 150.141 53.9242C150.597 53.5763 151.137 52.8924 151.137 51.6087V38.627H165.384C166.584 38.627 167.982 37.8831 167.982 35.7895C167.982 34.0918 166.962 33 165.384 33H151.137V23.6717H166.818C168.018 23.6717 169.416 22.9278 169.416 20.8342C169.416 19.1365 168.396 18.0447 166.818 18.0447V18.0387Z" fill="#212121"/>
<path d="M175.169 46.7676C174.107 46.7676 173.159 47.1935 172.433 48.0034C171.743 48.7652 171.377 49.7011 171.377 50.7029C171.377 51.7047 171.749 52.6466 172.445 53.3964C173.171 54.1763 174.113 54.5902 175.169 54.5902C176.224 54.5902 177.106 54.1823 177.85 53.4144C178.576 52.6586 178.96 51.7227 178.96 50.6969C178.96 49.6711 178.582 48.7473 177.862 47.9734C177.118 47.1755 176.188 46.7556 175.169 46.7556V46.7676Z" fill="#212121"/>
<path d="M189.248 17.7088C188.45 17.7088 187.778 17.9247 187.25 18.3566C186.626 18.8606 186.314 19.6284 186.314 20.6422V51.6147C186.314 52.6285 186.632 53.4023 187.25 53.9002C187.778 54.3322 188.45 54.5481 189.248 54.5481C190.046 54.5481 190.718 54.3322 191.246 53.9002C191.869 53.3963 192.181 52.6285 192.181 51.6147V20.6422C192.181 19.6284 191.869 18.8606 191.246 18.3506C190.718 17.9247 190.046 17.7028 189.248 17.7028V17.7088Z" fill="#212121"/>
<path d="M230.743 50.457C230.743 50.457 230.73 50.433 230.724 50.421L217.917 19.6105C217.677 19.0766 217.311 18.6267 216.813 18.2787C216.285 17.9068 215.619 17.7148 214.827 17.7148C213.232 17.7148 212.026 18.4827 211.438 19.8805L198.702 50.5469C198.546 50.9069 198.462 51.1768 198.432 51.4228C198.402 51.6267 198.39 51.7887 198.39 51.9027C198.39 52.8505 198.828 53.6484 199.59 54.0863C200.124 54.3922 200.736 54.5542 201.42 54.5542C202.512 54.5542 203.423 53.9423 203.945 52.8325L207.563 44.374H221.852L225.385 52.7845C225.559 53.1865 225.799 53.5464 226.105 53.8523C226.423 54.1763 227.005 54.5602 227.959 54.5602C228.553 54.5602 229.147 54.4042 229.729 54.1043C230.587 53.6544 231.084 52.8385 231.084 51.8667C231.084 51.5068 230.982 51.0868 230.748 50.4689L230.743 50.457ZM209.878 38.879L214.737 26.5273L219.561 38.879H209.878Z" fill="#212121"/>
<path d="M262.987 43.3003H265.344L264.168 40.2828L262.987 43.3003Z" fill="#212121"/>
<path d="M293.803 30.6545H243.592C240.167 30.6545 237.395 33.432 237.395 36.8634V48.5253C237.395 51.9507 240.173 54.7342 243.592 54.7342H293.803C297.228 54.7342 300 51.9567 300 48.5253V36.8634C300 33.438 297.222 30.6545 293.803 30.6545ZM255.914 46.7496C255.362 47.7455 254.558 48.5433 253.544 49.1072C252.549 49.6651 251.421 49.9471 250.203 49.9471C249.159 49.9471 248.175 49.7431 247.281 49.3352C246.4 48.9333 245.632 48.3813 244.996 47.7035C244.366 47.0256 243.88 46.2517 243.55 45.3999C243.22 44.548 243.052 43.6362 243.052 42.6884C243.052 41.3206 243.382 40.0608 244.042 38.951C244.696 37.8412 245.578 36.9654 246.658 36.3535C247.737 35.7416 248.925 35.4357 250.197 35.4357C251.469 35.4357 252.549 35.7176 253.574 36.2695C254.636 36.8394 255.41 37.6133 255.878 38.5671C256.034 38.8791 256.112 39.209 256.112 39.5389C256.112 39.9469 255.938 40.3188 255.62 40.5828C255.344 40.8107 255.008 40.9307 254.636 40.9307C254.33 40.9307 254.048 40.8467 253.82 40.6847C253.628 40.5528 253.466 40.3668 253.304 40.0968C252.543 38.9031 251.559 38.3392 250.203 38.3392C249.405 38.3392 248.709 38.5311 248.073 38.9271C247.431 39.329 246.946 39.8449 246.598 40.5048C246.238 41.1766 246.064 41.8905 246.064 42.6944C246.064 43.5522 246.25 44.2961 246.64 44.968C247.03 45.6398 247.521 46.1438 248.151 46.5097C248.781 46.8756 249.453 47.0496 250.203 47.0496C251.559 47.0496 252.603 46.4317 253.394 45.1659C253.556 44.902 253.718 44.716 253.904 44.59C254.138 44.4281 254.42 44.3441 254.726 44.3441C255.098 44.3441 255.434 44.4641 255.71 44.692C256.028 44.956 256.202 45.3279 256.202 45.7358C256.202 46.0958 256.106 46.4377 255.914 46.7556V46.7496ZM269.801 49.5631C269.531 49.7011 269.256 49.7731 268.98 49.7731C268.5 49.7731 268.2 49.5691 268.032 49.4012C267.888 49.2572 267.768 49.0832 267.684 48.8913L266.502 46.0778H261.835L260.623 48.9093C260.623 48.9093 260.617 48.9273 260.611 48.9393C260.365 49.4612 259.891 49.7731 259.345 49.7731C259.027 49.7731 258.739 49.7011 258.487 49.5511C258.086 49.3172 257.852 48.9033 257.852 48.4173C257.852 48.3634 257.852 48.2854 257.87 48.1834C257.888 48.0634 257.924 47.9314 257.996 47.7695L262.621 36.6355C262.897 35.9816 263.479 35.6037 264.216 35.6037C264.588 35.6037 264.906 35.6936 265.164 35.8796C265.404 36.0476 265.584 36.2635 265.698 36.5275C265.698 36.5335 265.704 36.5395 265.71 36.5515L270.353 47.7275C270.467 48.0274 270.509 48.2194 270.509 48.3993C270.509 48.8973 270.245 49.3292 269.807 49.5631H269.801ZM281.073 49.6531H274.331C273.437 49.6531 272.837 49.0532 272.837 48.1594V37.0674C272.837 36.4555 273.101 36.1136 273.323 35.9276C273.503 35.7776 273.821 35.6037 274.295 35.6037C274.769 35.6037 275.086 35.7776 275.266 35.9276C275.488 36.1076 275.752 36.4555 275.752 37.0674V46.8216H281.073C281.859 46.8216 282.411 47.4035 282.411 48.2314C282.411 49.0592 281.859 49.6591 281.073 49.6591V49.6531ZM292.999 49.6531H286.256C285.363 49.6531 284.763 49.0532 284.763 48.1594V37.0674C284.763 36.4555 285.027 36.1136 285.249 35.9276C285.429 35.7776 285.747 35.6037 286.22 35.6037C286.694 35.6037 287.012 35.7776 287.192 35.9276C287.414 36.1076 287.678 36.4555 287.678 37.0674V46.8216H292.999C293.785 46.8216 294.337 47.4035 294.337 48.2314C294.337 49.0592 293.785 49.6591 292.999 49.6591V49.6531Z" fill="#212121"/>
<path d="M7.80463 21.2902C7.32472 21.2902 6.8388 21.1402 6.42488 20.8282C5.41706 20.0664 5.21909 18.6326 5.98696 17.6248C10.8641 11.194 18.2787 7.50464 26.3353 7.50464C33.744 7.50464 40.7807 10.7261 45.6398 16.335C46.4677 17.2889 46.3597 18.7346 45.4059 19.5625C44.452 20.3903 43.0063 20.2823 42.1784 19.3285C38.1892 14.7213 32.4182 12.0758 26.3353 12.0758C19.7245 12.0758 13.6356 15.1053 9.6343 20.3843C9.18438 20.9782 8.5005 21.2902 7.81063 21.2902H7.80463Z" fill="#212121"/>
<path d="M26.3292 58.6155C12.2558 58.6155 0.803833 47.1516 0.803833 33.0601C0.803833 31.8004 1.82965 30.7745 3.08942 30.7745C4.34919 30.7745 5.37501 31.8004 5.37501 33.0601C5.37501 44.632 14.7753 54.0443 26.3292 54.0443C27.769 54.0443 29.2087 53.9004 30.6005 53.6064C31.8362 53.3485 33.048 54.1463 33.306 55.3821C33.5639 56.6179 32.7661 57.8297 31.5303 58.0876C29.8326 58.4416 28.0809 58.6215 26.3292 58.6215V58.6155Z" fill="#212121"/>
<path d="M27.3371 49.3531C23.8157 49.3531 19.7485 48.0933 15.6212 44.1701C14.7034 43.3002 14.6674 41.8545 15.5372 40.9366C16.4071 40.0188 17.8528 39.9828 18.7706 40.8527C27.2351 48.8912 34.8537 42.1724 35.1717 41.8785C36.1075 41.0326 37.5533 41.1046 38.3991 42.0404C39.245 42.9763 39.173 44.422 38.2371 45.2679C38.1651 45.3338 33.618 49.3471 27.3371 49.3471V49.3531Z" fill="#212121"/>
<path d="M17.9068 34.9317C19.6495 34.9317 21.0622 33.519 21.0622 31.7763C21.0622 30.0336 19.6495 28.6208 17.9068 28.6208C16.1641 28.6208 14.7513 30.0336 14.7513 31.7763C14.7513 33.519 16.1641 34.9317 17.9068 34.9317Z" fill="#212121"/>
<path d="M36.5094 36.9714C38.2521 36.9714 39.6649 35.5587 39.6649 33.816C39.6649 32.0733 38.2521 30.6605 36.5094 30.6605C34.7667 30.6605 33.354 32.0733 33.354 33.816C33.354 35.5587 34.7667 36.9714 36.5094 36.9714Z" fill="#212121"/>
<path d="M6.14294 28.441C5.89098 28.441 5.63303 28.399 5.37507 28.309L2.31562 27.2232C1.12784 26.8033 0.503951 25.4955 0.923875 24.3017C1.3438 23.1139 2.65156 22.49 3.84535 22.91L6.9048 23.9958C8.09258 24.4157 8.71647 25.7235 8.29655 26.9172C7.96661 27.8531 7.08477 28.441 6.14294 28.441Z" fill="#212121"/>
<path d="M44.5119 49.839C44.014 49.839 43.5101 49.6771 43.0902 49.3411C42.1004 48.5553 41.9384 47.1155 42.7243 46.1317C45.7057 42.3824 47.2834 37.8652 47.2834 33.06C47.2834 32.3342 47.2474 31.6083 47.1755 30.8884C47.0495 29.6347 47.9613 28.5129 49.2151 28.3809C50.4749 28.2549 51.5967 29.1667 51.7226 30.4205C51.8126 31.2904 51.8546 32.1782 51.8546 33.06C51.8546 38.825 49.881 44.482 46.2996 48.9812C45.8497 49.5511 45.1838 49.845 44.5119 49.845V49.839Z" fill="#212121"/>
<path d="M41.0806 27.3551C31.3383 27.3551 24.4816 21.5841 22.136 19.2805C21.2361 18.3927 21.2241 16.9469 22.106 16.0471C22.9938 15.1473 24.4396 15.1353 25.3394 16.0171C28.7828 19.4005 38.1891 26.5812 51.1887 20.3123C52.3285 19.7664 53.6903 20.2404 54.2422 21.3802C54.7881 22.5199 54.3142 23.8817 53.1744 24.4336C48.7952 26.5452 44.7339 27.3611 41.0806 27.3611V27.3551Z" fill="#212121"/>
<path d="M37.3913 55.82C36.5815 55.82 35.7956 55.388 35.3817 54.6262C34.7818 53.5164 35.1897 52.1306 36.2995 51.5247C36.8214 51.2428 37.3374 50.9308 37.8293 50.6069C38.8851 49.911 40.3008 50.205 40.9967 51.2548C41.6926 52.3106 41.3986 53.7263 40.3488 54.4222C39.7429 54.8241 39.113 55.1961 38.4831 55.544C38.1352 55.73 37.7633 55.82 37.3973 55.82H37.3913Z" fill="#212121"/>
<path d="M3.39539 14.4994C2.61554 14.4994 1.85967 14.1035 1.42775 13.3836C1.21179 13.0237 -0.659875 9.74827 0.239963 6.20291C0.749871 4.19327 2.07563 2.50157 4.07327 1.31979C9.39431 -1.82965 14.1935 1.36778 15.9931 3.50339C16.809 4.46922 16.683 5.90896 15.7172 6.72481C14.7573 7.53467 13.3176 7.41469 12.5078 6.46086C12.2138 6.12492 9.64027 3.34142 6.40685 5.25508C5.45302 5.81898 4.88313 6.49685 4.67316 7.3307C4.23524 9.05839 5.33905 11.02 5.35104 11.038C5.99893 12.1238 5.64499 13.5276 4.55919 14.1755C4.19325 14.3974 3.78532 14.4994 3.3894 14.4994H3.39539Z" fill="#212121"/>
</g>
<defs>
<clipPath id="clip0_6_729">
<rect width="300" height="58.6154" fill="white"/>
</clipPath>
</defs>
</svg>
