<svg width="16" height="17" viewBox="0 0 16 17" fill="none" xmlns="http://www.w3.org/2000/svg">
<g clip-path="url(#clip0_4674_334)">
<path d="M13.6328 13.7392H11.262V10.0264C11.262 9.14122 11.246 8.00162 10.0288 8.00162C8.8116 8.00162 8.6052 8.96602 8.6052 9.96202V13.7388H6.2344V6.10402H8.5104V7.14722H8.5424C9.0064 6.35362 9.8692 5.88002 10.788 5.91402C13.1908 5.91402 13.634 7.49442 13.634 9.55042L13.6328 13.7388V13.7392ZM3.5596 5.06042C2.7996 5.06042 2.1836 4.44482 2.1836 3.68482C2.1836 2.92482 2.7992 2.30882 3.5592 2.30882C4.3192 2.30882 4.9352 2.92442 4.9352 3.68442C4.9352 4.44442 4.3196 5.06042 3.5596 5.06042ZM4.7452 13.7392H2.372V6.10442H4.7452V13.7392ZM14.8148 0.107624H1.1808C0.5364 0.100424 0.008 0.616424 0 1.26082V14.9512C0.0076 15.596 0.536 16.1124 1.1808 16.1056H14.8148C15.4608 16.1136 15.9912 15.5972 16 14.9512V1.25962C15.9908 0.614024 15.4604 0.0980244 14.8148 0.106424" fill="#001130"/>
</g>
<defs>
<clipPath id="clip0_4674_334">
<rect width="16" height="15.9996" fill="white" transform="translate(0 0.106506)"/>
</clipPath>
</defs>
</svg>
