<svg width="120" height="22" viewBox="0 0 120 22" fill="none" xmlns="http://www.w3.org/2000/svg">
<g clip-path="url(#clip0_4674_271)">
<path d="M117.821 9.45655H107.625C106.766 9.45655 106.068 10.1531 106.068 11.0132V16.7731C106.068 17.6324 106.765 18.3297 107.625 18.3297H114.941V18.3115H117.821C118.68 18.3115 119.378 17.615 119.378 16.7549V11.0132C119.378 10.1538 118.681 9.45655 117.821 9.45655Z" fill="#15ECDA"/>
<path d="M111.128 18.9515H107.625C106.423 18.9515 105.446 17.9741 105.446 16.7724V11.0125C105.446 9.81077 106.423 8.83333 107.625 8.83333H117.821C119.023 8.83333 120 9.81077 120 11.0125V16.7542C120 17.9559 119.023 18.9334 117.821 18.9334H111.128V18.9515ZM107.625 10.0791C107.11 10.0791 106.691 10.4983 106.691 11.0132V16.7731C106.691 17.288 107.11 17.7072 107.625 17.7072H109.883V17.689H117.822C118.336 17.689 118.756 17.2698 118.756 16.7549V11.0132C118.756 10.4983 118.336 10.0791 117.822 10.0791H107.626H107.625Z" fill="#001130"/>
<path d="M110.158 14.8342L108.985 14.8328L109.404 12.6977C109.429 12.5705 109.384 12.4965 109.342 12.4553C109.309 12.4231 109.247 12.384 109.148 12.384C109.078 12.384 109.016 12.4022 108.964 12.4385C108.904 12.4804 108.865 12.5461 108.848 12.6327L108.372 15.0543C108.35 15.1689 108.385 15.2423 108.419 15.2842C108.454 15.3254 108.519 15.375 108.634 15.375L110.117 15.3764C110.226 15.3764 110.354 15.3128 110.389 15.1354C110.411 15.0257 110.376 14.9551 110.344 14.916C110.319 14.8852 110.261 14.8335 110.158 14.8335V14.8342Z" fill="#001130"/>
<path d="M112.78 14.837L111.607 14.8356L112.026 12.7005C112.051 12.5733 112.006 12.4993 111.965 12.4581C111.931 12.4259 111.87 12.3868 111.77 12.3868C111.704 12.3903 111.638 12.405 111.586 12.4413C111.526 12.4832 111.487 12.5489 111.47 12.6355L110.994 15.0571C110.972 15.1717 111.007 15.2451 111.042 15.287C111.076 15.3282 111.14 15.3778 111.256 15.3778L112.739 15.3792C112.848 15.3792 112.976 15.3156 113.011 15.1382C113.033 15.0285 112.999 14.9579 112.966 14.9188C112.941 14.888 112.883 14.8363 112.78 14.8363V14.837Z" fill="#001130"/>
<path d="M117.002 12.4706C116.945 12.4189 116.869 12.3924 116.776 12.3924C116.68 12.3924 116.599 12.4175 116.535 12.4664C116.486 12.5042 116.442 12.5524 116.4 12.6146L115.223 14.4933L114.776 12.6376C114.755 12.5531 114.715 12.4895 114.658 12.4483C114.603 12.4091 114.535 12.3903 114.447 12.3896C114.36 12.3896 114.285 12.4105 114.223 12.4525C114.152 12.5007 114.105 12.5775 114.085 12.6802L113.609 15.1018C113.586 15.2234 113.626 15.2954 113.664 15.3345C113.711 15.3827 113.777 15.4079 113.859 15.4079C113.929 15.4079 113.99 15.3904 114.04 15.3554C114.1 15.3149 114.138 15.2513 114.154 15.1668L114.444 13.6919L114.799 15.1333C114.812 15.1934 114.839 15.2451 114.878 15.287C114.914 15.3254 114.979 15.3708 115.09 15.3708C115.162 15.3708 115.228 15.3506 115.285 15.3114C115.334 15.2779 115.374 15.236 115.404 15.1871L116.316 13.7415L116.048 15.1046C116.022 15.2395 116.08 15.3135 116.116 15.3464C116.164 15.389 116.229 15.4106 116.305 15.4106C116.373 15.4106 116.432 15.3932 116.482 15.3589C116.542 15.3184 116.58 15.2548 116.597 15.1703L117.073 12.7487C117.102 12.6013 117.05 12.5167 117.001 12.472L117.002 12.4706Z" fill="#001130"/>
<path d="M11.097 10.8497C11.7858 10.8497 12.3442 10.2929 12.3442 9.60607C12.3442 8.91922 11.7858 8.36243 11.097 8.36243C10.4083 8.36243 9.84991 8.91922 9.84991 9.60607C9.84991 10.2929 10.4083 10.8497 11.097 10.8497Z" fill="#001130"/>
<path d="M18.4513 11.6518C19.1401 11.6518 19.6984 11.095 19.6984 10.4081C19.6984 9.7213 19.1401 9.16451 18.4513 9.16451C17.7625 9.16451 17.2042 9.7213 17.2042 10.4081C17.2042 11.095 17.7625 11.6518 18.4513 11.6518Z" fill="#001130"/>
<path d="M6.52981 5.32948C6.70168 5.45944 6.9029 5.52232 7.10272 5.52232C7.38918 5.52232 7.67284 5.39306 7.85938 5.14783C9.4328 3.07906 11.8272 1.89271 14.4269 1.89271C16.8185 1.89271 19.0892 2.92814 20.657 4.73282C21 5.12757 21.5988 5.17019 21.9949 4.82853C22.3911 4.48618 22.4337 3.88882 22.0907 3.49337C20.163 1.27368 17.369 0 14.4269 0C11.2284 0 8.28348 1.45883 6.34815 4.0034C6.03165 4.41981 6.1127 5.01368 6.53051 5.32948H6.52981Z" fill="#001130"/>
<path d="M10.1608 14.5212C11.8041 16.0744 13.4215 16.5739 14.8223 16.5739C17.3243 16.5739 19.1353 14.981 19.1632 14.9558C19.5503 14.6065 19.5803 14.0119 19.2317 13.6241C18.883 13.2364 18.285 13.2042 17.8937 13.5487C17.5765 13.8295 14.698 16.2029 11.4666 13.1476C11.0858 12.7878 10.4857 12.8039 10.1252 13.1833C9.76464 13.5627 9.78071 14.1621 10.1615 14.5212H10.1608Z" fill="#001130"/>
<path d="M25.4108 19.268C25.292 19.224 22.5211 18.1215 24.128 13.0449C24.1301 13.038 24.1301 13.031 24.1322 13.024C24.411 12.101 24.5626 11.1236 24.5626 10.1112C24.5626 9.09883 24.4138 8.1144 24.1224 7.16141C24.4305 7.04263 24.7428 6.90779 25.06 6.75548C25.5323 6.52841 25.7308 5.96318 25.503 5.49228C25.2752 5.02137 24.7079 4.82365 24.2363 5.05071C18.0558 8.02078 13.9155 3.23346 13.7401 3.02526C13.4048 2.62562 12.8081 2.57112 12.4057 2.90439C12.0025 3.23835 11.9473 3.83572 12.2827 4.23746C12.3225 4.28497 15.4135 7.90689 20.2797 7.90689C20.9239 7.90689 21.5995 7.84261 22.3038 7.69939C22.5434 8.47771 22.6657 9.28677 22.6657 10.1119C22.6657 14.6435 18.9697 18.3304 14.4269 18.3304C9.88415 18.3304 6.46624 14.9132 6.20494 10.6157C6.20074 10.4354 6.19585 10.2537 6.18677 10.0679C6.18537 10.0427 6.17909 10.019 6.17559 9.99453C6.1714 9.96309 6.16861 9.93095 6.16162 9.90091C6.15463 9.86947 6.14345 9.84012 6.13297 9.80938C6.12319 9.78073 6.11481 9.75279 6.10223 9.72554C6.08826 9.6948 6.07149 9.66685 6.05472 9.63821C6.04075 9.61445 6.02817 9.5907 6.0121 9.56834C5.99184 9.53969 5.96878 9.51384 5.94503 9.48729C5.92826 9.46843 5.91289 9.44887 5.89473 9.4314C5.86818 9.40555 5.83883 9.38389 5.80949 9.36153C5.79062 9.34756 5.77316 9.33219 5.75289 9.31961C5.72076 9.29865 5.68652 9.28188 5.65229 9.26511C5.63202 9.25533 5.61246 9.24415 5.5908 9.23577C5.55517 9.2218 5.51814 9.21132 5.48041 9.20153C5.45736 9.19525 5.435 9.18826 5.41124 9.18337C5.37561 9.17708 5.33858 9.17498 5.30155 9.17219C5.27989 9.17079 5.25963 9.1659 5.23727 9.1659C5.22959 9.1659 5.2233 9.168 5.21561 9.168C5.20793 9.168 5.20024 9.1666 5.19256 9.1666C5.16741 9.168 5.14365 9.17429 5.1192 9.17778C5.08776 9.18197 5.05562 9.18477 5.02488 9.19175C4.99413 9.19874 4.96479 9.20922 4.93475 9.2197C4.9061 9.22948 4.87676 9.23856 4.84881 9.25044C4.81947 9.26372 4.79292 9.27979 4.76567 9.29586C4.73982 9.31053 4.71467 9.3245 4.69021 9.34127C4.66436 9.35943 4.6413 9.38039 4.61755 9.40136C4.59519 9.42022 4.57283 9.43908 4.55257 9.46004C4.53091 9.4824 4.51275 9.50755 4.49319 9.53201C4.47502 9.55506 4.45616 9.57812 4.44009 9.60257C4.42332 9.62842 4.41004 9.65637 4.39537 9.68432C4.3821 9.71087 4.36742 9.73672 4.35625 9.76467C4.34437 9.79401 4.33668 9.82545 4.3276 9.85619C4.31922 9.88484 4.31083 9.91278 4.30524 9.94283C4.29965 9.97497 4.29756 10.0085 4.29546 10.042C4.29337 10.0658 4.28848 10.0882 4.28848 10.1126C4.28848 10.1273 4.28917 10.1413 4.28987 10.1552C4.28987 10.1552 4.28987 10.1566 4.28987 10.1573C4.28987 10.1608 4.28987 10.1643 4.28987 10.1685C4.29057 10.3516 4.29756 10.5339 4.30804 10.7142C4.37651 14.0273 3.57303 15.4589 2.86458 16.0758C2.07578 16.7619 1.19335 16.6187 1.13536 16.6082C0.627424 16.5055 0.128571 16.8304 0.0195782 17.3376C-0.0901136 17.8483 0.236167 18.3521 0.748295 18.4611C0.915977 18.4967 1.13326 18.5211 1.38409 18.5211C2.12538 18.5211 3.15942 18.308 4.0656 17.5409C4.7517 16.9603 5.2743 16.1554 5.63202 15.134C7.3822 18.1718 10.6667 20.2238 14.4248 20.2238C17.3376 20.2238 19.9653 18.9907 21.8154 17.0218C22.3045 20.1588 24.7477 21.0441 24.782 21.0559C24.8847 21.0909 24.9888 21.1076 25.0915 21.1076C25.4869 21.1076 25.8586 20.8617 25.9928 20.4697C26.1626 19.9751 25.9047 19.4392 25.4087 19.2701L25.4108 19.268Z" fill="#001130"/>
<path d="M4.8523 8.05151L6.061 8.4791C6.18886 8.52451 6.31951 8.54547 6.44737 8.54547C6.92316 8.54547 7.36892 8.24994 7.5373 7.77763C7.75109 7.17747 7.43599 6.51792 6.83443 6.30483L5.62573 5.87724C5.02417 5.66414 4.36322 5.97855 4.14943 6.57871C3.93564 7.17887 4.25074 7.83842 4.8523 8.05151Z" fill="#15ECDA"/>
<path d="M39.2319 9.49218H39.2291L37.1261 8.9556C36.6112 8.82705 36.185 8.67054 35.8601 8.49098C35.5499 8.31981 35.3068 8.13746 35.137 7.94742C34.9826 7.77554 34.8806 7.59808 34.8254 7.40455C34.7604 7.17818 34.7276 6.92735 34.7283 6.66046C34.7283 6.44247 34.7702 6.20143 34.8526 5.94432C34.9274 5.71096 35.056 5.49926 35.2453 5.29595C35.4346 5.09333 35.7043 4.91867 36.0474 4.77684C36.3981 4.63221 36.8606 4.55675 37.4091 4.55955C37.959 4.55955 38.4327 4.61684 38.8155 4.72863C39.2026 4.84111 39.5296 4.97736 39.7874 5.13316C40.048 5.29106 40.2576 5.44966 40.4106 5.60407C40.5755 5.77105 40.7061 5.91567 40.7991 6.03585C40.9814 6.29505 41.1749 6.45994 41.3887 6.53959C41.5536 6.60177 41.7234 6.63321 41.8946 6.63321H41.896C42.2104 6.63321 42.5038 6.50815 42.7428 6.2727C42.9852 6.03445 43.1131 5.73611 43.1138 5.41123C43.1138 5.11639 42.9873 4.79849 42.712 4.40584C42.5667 4.20253 42.3655 3.97825 42.0958 3.71974C41.8198 3.45564 41.467 3.20412 41.0485 2.97286C40.6307 2.7423 40.1241 2.54737 39.5407 2.39156C38.9532 2.23576 38.258 2.15611 37.4741 2.15541C36.621 2.15262 35.8483 2.27419 35.1908 2.51034C34.5215 2.75068 33.9542 3.08535 33.5056 3.50385C33.0508 3.92795 32.707 4.43169 32.482 4.99971C32.2634 5.55376 32.1516 6.13995 32.1509 6.7429C32.1509 7.36752 32.2375 7.92995 32.4101 8.41413C32.5889 8.91787 32.8698 9.36782 33.2443 9.75139C33.6062 10.1231 34.0708 10.4459 34.6242 10.7114C35.1489 10.9636 35.7791 11.183 36.4938 11.3632L38.084 11.7699C39.016 12.0088 39.6791 12.3435 40.0543 12.7655C40.4141 13.1707 40.5888 13.6661 40.5881 14.2802C40.5881 14.6512 40.5196 14.9789 40.3854 15.2534C40.2492 15.5315 40.0641 15.76 39.8181 15.9507C39.5645 16.1477 39.2564 16.2973 38.9029 16.3951C38.5263 16.4992 38.1106 16.5523 37.6683 16.5523H37.6627C37.066 16.5523 36.5567 16.4971 36.148 16.3895C35.7351 16.2812 35.3801 16.1484 35.0916 15.9933C34.8037 15.8396 34.5662 15.6803 34.3859 15.521C34.1742 15.3338 33.9891 15.164 33.8305 15.0117C33.6963 14.8852 33.5922 14.7867 33.5161 14.7141C33.324 14.5317 33.0731 14.4353 32.7902 14.4353C32.5296 14.4353 32.2697 14.5443 31.9958 14.7679C31.6115 15.0816 31.5305 15.4365 31.5305 15.6782C31.5305 15.876 31.5703 16.073 31.6492 16.2602C31.7261 16.4447 31.8602 16.6368 32.0594 16.8471C32.2152 17.026 32.4276 17.2286 32.7063 17.4668C33.0047 17.7226 33.3875 17.9615 33.8452 18.1767C34.2881 18.3856 34.8156 18.5659 35.4123 18.7112C36.0159 18.8579 36.7307 18.9327 37.5377 18.9334H37.5474C38.3334 18.9334 39.0677 18.8362 39.7315 18.6441C40.4183 18.4457 41.0226 18.1439 41.5264 17.747C42.0434 17.3404 42.4507 16.8269 42.7365 16.2225C43.0201 15.6223 43.1648 14.9335 43.1655 14.1747C43.1669 12.8794 42.8057 11.8341 42.0923 11.0691C41.4083 10.3362 40.4462 9.80519 39.2333 9.49079L39.2319 9.49218Z" fill="#001130"/>
<path d="M59.7052 4.61125C58.9855 3.85738 58.1262 3.25652 57.1508 2.82613C56.1706 2.39366 55.1009 2.17357 53.9725 2.17287H53.9635C52.8379 2.17287 51.771 2.39086 50.7929 2.81985C49.8168 3.24813 48.9561 3.8469 48.235 4.60007C47.5154 5.35114 46.9432 6.24614 46.5331 7.26062C46.1229 8.27579 45.9147 9.38459 45.9133 10.5542C45.9119 11.7251 46.118 12.8332 46.5261 13.8491C46.9334 14.865 47.5042 15.7614 48.2225 16.5132C48.9421 17.2677 49.8015 17.8679 50.7768 18.2983C51.757 18.7307 52.826 18.9508 53.9551 18.9515H53.9642C55.0897 18.9515 56.1566 18.7342 57.1354 18.3046C58.1115 17.8763 58.9722 17.2775 59.6933 16.5243C60.4122 15.774 60.9851 14.879 61.3952 13.8638C61.8054 12.8479 62.0136 11.7398 62.015 10.5702C62.0164 9.40065 61.8103 8.29186 61.4022 7.27529C60.9942 6.26012 60.4241 5.36372 59.7059 4.61125H59.7052ZM53.9579 16.4412C53.1935 16.4405 52.4697 16.2896 51.8066 15.9919C51.1394 15.6929 50.556 15.2786 50.0725 14.7588C49.5856 14.2355 49.1957 13.6088 48.9134 12.8954C48.6319 12.1842 48.49 11.3968 48.4907 10.5556C48.4914 9.71436 48.6354 8.92765 48.9183 8.2164C49.2013 7.50445 49.5925 6.87844 50.0809 6.35583C50.5651 5.83812 51.1492 5.4245 51.8171 5.12687C52.4795 4.83203 53.2012 4.68251 53.9628 4.68251H53.969C54.7327 4.68321 55.4565 4.83412 56.1196 5.13176C56.7868 5.43079 57.3702 5.8458 57.8537 6.36492C58.3413 6.88892 58.7312 7.51563 59.0128 8.22828C59.2943 8.94023 59.4362 9.72763 59.4355 10.5681C59.4348 11.4086 59.2908 12.1953 59.0079 12.9073C58.7242 13.6199 58.333 14.246 57.8453 14.7679C57.3604 15.2863 56.7763 15.6999 56.1084 15.9975C55.4446 16.2931 54.725 16.4433 53.9565 16.4419L53.9579 16.4412Z" fill="#001130"/>
<path d="M74.4919 2.55645L66.5571 2.54807H66.555C65.7794 2.54807 65.2778 3.06089 65.2764 3.85528L65.2617 17.4843C65.2617 17.9182 65.3903 18.2473 65.6446 18.4632C65.8689 18.6539 66.156 18.751 66.4984 18.7517H66.4998C66.8337 18.7517 67.1195 18.6595 67.3487 18.4764C67.6197 18.2598 67.7574 17.9273 67.7581 17.4871L67.7644 11.6511L73.8694 11.6574H73.8708C74.3759 11.6574 74.9649 11.3374 74.9663 10.4354C74.9663 10.0965 74.8804 9.81776 74.7092 9.60746C74.5129 9.36572 74.2152 9.23228 73.8722 9.23228L67.7672 9.22599L67.7714 4.97526L74.4884 4.98224H74.4898C74.9949 4.98224 75.5839 4.66225 75.5853 3.76026C75.586 2.87295 74.9963 2.55785 74.4912 2.55715L74.4919 2.55645Z" fill="#001130"/>
<path d="M78.0474 15.3792H78.0453C77.5919 15.3792 77.1887 15.5678 76.8792 15.9256C76.5886 16.2616 76.4405 16.6536 76.4398 17.0917C76.4398 17.5276 76.5928 17.9301 76.8827 18.2556C77.1915 18.6022 77.5926 18.7859 78.0432 18.7859H78.0446C78.4764 18.7859 78.8711 18.6064 79.1869 18.2661C79.4895 17.9391 79.6495 17.5346 79.6502 17.0951C79.6502 16.6606 79.4937 16.2539 79.196 15.92C78.8809 15.5671 78.4834 15.3799 78.0467 15.3799L78.0474 15.3792Z" fill="#001130"/>
<path d="M84.9315 2.70527C84.7072 2.51453 84.4201 2.41741 84.0784 2.41741H84.0763C83.7354 2.41741 83.4482 2.51383 83.2239 2.70387C82.9689 2.91976 82.8397 3.24883 82.839 3.68201L82.8243 17.5025C82.8243 17.9357 82.9528 18.2654 83.2072 18.4813C83.4314 18.6721 83.7186 18.7692 84.0609 18.7699H84.063C84.404 18.7699 84.6904 18.6735 84.9154 18.4834C85.1704 18.2675 85.3004 17.9384 85.3004 17.5053L85.3151 3.68481C85.3151 3.25233 85.1872 2.92325 84.9315 2.70527Z" fill="#001130"/>
<path d="M101.784 17.0302C101.782 17.0246 101.78 17.0197 101.778 17.0141L96.3261 3.27259C96.324 3.2677 96.3226 3.2635 96.3206 3.25861C96.222 3.02735 96.0683 2.83242 95.8615 2.67941C95.6366 2.51313 95.3508 2.42859 95.0112 2.42859H95.0091C94.33 2.42859 93.82 2.76395 93.572 3.37669L88.1139 17.0574C88.0504 17.2125 88.0154 17.3292 88.0014 17.4312C87.9903 17.5088 87.9847 17.5758 87.9847 17.6359C87.9847 18.0432 88.16 18.3737 88.48 18.5672C88.7078 18.7049 88.9712 18.7755 89.2625 18.7755H89.2639C89.7272 18.7755 90.1135 18.5093 90.3238 18.0453C90.3266 18.0391 90.3294 18.0321 90.3322 18.0251L91.8903 14.2348L98.003 14.2411L99.5156 18.0132C99.5862 18.1858 99.6875 18.3416 99.8153 18.4757C99.9509 18.6176 100.197 18.7866 100.604 18.7873H100.606C100.86 18.7873 101.114 18.7189 101.364 18.5833C101.72 18.3891 101.925 18.0411 101.925 17.6289C101.925 17.4766 101.883 17.2971 101.786 17.0295L101.784 17.0302ZM92.846 11.8754L94.9644 6.2664L97.0563 11.8795L92.846 11.8754Z" fill="#001130"/>
</g>
<defs>
<clipPath id="clip0_4674_271">
<rect width="120" height="21.1055" fill="white"/>
</clipPath>
</defs>
</svg>
