<svg width="16" height="16" viewBox="0 0 16 16" fill="none" xmlns="http://www.w3.org/2000/svg">
<g clip-path="url(#clip0_4674_343)">
<path d="M8 0.106506C3.5816 0.106506 0 3.68811 0 8.10651C0 12.0997 2.9256 15.4093 6.75 16.0093V10.4189H4.7188V8.10651H6.75V6.34411C6.75 4.33891 7.9444 3.23171 9.7716 3.23171C10.6468 3.23171 11.5624 3.38811 11.5624 3.38811V5.35691H10.5536C9.56 5.35691 9.25 5.97371 9.25 6.60611V8.10691H11.4688L11.114 10.4193H9.25V16.0097C13.0744 15.4097 16 12.1001 16 8.10691C16 3.68811 12.4184 0.106506 8 0.106506Z" fill="#001130"/>
</g>
<defs>
<clipPath id="clip0_4674_343">
<rect width="16" height="15.9028" fill="white" transform="translate(0 0.106506)"/>
</clipPath>
</defs>
</svg>
