<svg width="35" height="29" viewBox="0 0 35 29" fill="none" xmlns="http://www.w3.org/2000/svg">
<path fill-rule="evenodd" clip-rule="evenodd" d="M8.77725 7.16079C9.00784 7.33506 9.27893 7.41955 9.54649 7.41955C9.93199 7.41955 10.3122 7.24528 10.5639 6.91611C12.678 4.13664 15.8958 2.54183 19.3899 2.54183C22.6042 2.54183 25.6547 3.93245 27.7618 6.3581C28.223 6.88795 29.0274 6.94604 29.5608 6.4866C30.0924 6.02717 30.1505 5.22449 29.6893 4.69289C27.0964 1.71098 23.3435 0 19.3882 0C15.0896 0 11.1325 1.96094 8.53257 5.37939C8.10658 5.93916 8.21572 6.73656 8.77725 7.16079ZM16.5912 12.9084C16.5912 13.8309 15.8409 14.5789 14.9154 14.5789C13.9899 14.5789 13.2396 13.8309 13.2396 12.9084C13.2396 11.9858 13.9899 11.2379 14.9154 11.2379C15.8409 11.2379 16.5912 11.9858 16.5912 12.9084ZM26.4733 13.9854C26.4733 14.908 25.723 15.6559 24.7975 15.6559C23.872 15.6559 23.1217 14.908 23.1217 13.9854C23.1217 13.0628 23.872 12.3149 24.7975 12.3149C25.723 12.3149 26.4733 13.0628 26.4733 13.9854ZM19.9215 22.271C18.038 22.271 15.8658 21.6004 13.6567 19.5127L13.6549 19.5109C13.1445 19.0286 13.1233 18.2224 13.6074 17.7137C14.0915 17.2049 14.8977 17.1821 15.4099 17.6661C19.7543 21.7711 23.6216 18.5815 24.0476 18.2048C24.5739 17.7418 25.3784 17.7858 25.8466 18.3069C26.3148 18.8297 26.2761 19.6271 25.755 20.0971L25.7535 20.0984C25.6742 20.1674 23.2546 22.271 19.9215 22.271ZM34.1498 25.8918C33.9896 25.832 30.2667 24.3516 32.4265 17.5288C32.4288 17.523 32.4296 17.5165 32.4304 17.5102C32.4308 17.5069 32.4312 17.5036 32.4318 17.5006C32.8067 16.2596 33.0109 14.9464 33.0109 13.5857C33.0109 12.2251 32.8103 10.9013 32.4195 9.62161C32.8331 9.46143 33.2538 9.28012 33.6798 9.07593C34.3135 8.7714 34.5811 8.01096 34.2748 7.37902C33.9685 6.74533 33.2063 6.48128 32.5726 6.78581C24.2676 10.7764 18.7034 4.34431 18.4676 4.06443C18.0169 3.52755 17.2142 3.45361 16.6738 3.90248C16.1317 4.35135 16.0577 5.15404 16.5084 5.69268C16.5612 5.75605 20.7154 10.6232 27.2548 10.6232C28.1209 10.6232 29.0292 10.537 29.9745 10.3433C30.2966 11.3889 30.4603 12.4768 30.4603 13.5857C30.4603 19.6745 25.4928 24.6297 19.3882 24.6297C13.2835 24.6297 8.69099 20.0371 8.33894 14.2617C8.33366 14.0188 8.32662 13.7759 8.31429 13.5259C8.31429 13.506 8.31054 13.4866 8.30676 13.4672C8.3042 13.454 8.30163 13.4408 8.30021 13.4273L8.29718 13.402C8.29324 13.3682 8.2893 13.3344 8.28085 13.3006C8.27029 13.2583 8.25621 13.2179 8.24213 13.1774L8.24212 13.1774C8.2298 13.1386 8.21748 13.1017 8.20164 13.0647C8.18403 13.0242 8.16115 12.9855 8.13827 12.9468C8.13132 12.9354 8.12482 12.924 8.11837 12.9127L8.11836 12.9127C8.10685 12.8926 8.09548 12.8727 8.08194 12.8535C8.05554 12.8148 8.02386 12.7796 7.99218 12.7444L7.99216 12.7443C7.98313 12.7346 7.97437 12.7246 7.96556 12.7145C7.95206 12.6991 7.93843 12.6836 7.92351 12.6686C7.88831 12.6352 7.84958 12.6053 7.80909 12.5753L7.80907 12.5753L7.80906 12.5753C7.78443 12.556 7.75979 12.5366 7.7334 12.519C7.69116 12.4909 7.64539 12.468 7.59786 12.4451L7.57688 12.4345L7.57685 12.4345C7.55628 12.424 7.5362 12.4138 7.51513 12.4046C7.47801 12.3895 7.43873 12.3786 7.39983 12.3679L7.36727 12.3588L7.35033 12.3541L7.35032 12.3541C7.32476 12.3469 7.29996 12.34 7.27397 12.3342C7.22644 12.3254 7.17716 12.3219 7.12611 12.3201C7.11428 12.3194 7.10245 12.3177 7.09049 12.316L7.09048 12.316C7.07397 12.3137 7.05721 12.3113 7.03986 12.3113C7.03433 12.3113 7.02929 12.3123 7.02448 12.3132C7.02009 12.314 7.01589 12.3148 7.01169 12.3148C7.00817 12.3148 7.00465 12.3146 7.00113 12.3144C6.99409 12.314 6.98705 12.3137 6.98001 12.3148C6.96007 12.3148 6.94075 12.3186 6.92132 12.3224L6.92131 12.3224L6.92129 12.3224C6.90813 12.3249 6.89493 12.3275 6.88143 12.3289L6.85482 12.3321C6.82098 12.336 6.78673 12.3399 6.75469 12.3483C6.72652 12.3541 6.69992 12.3631 6.67332 12.3721C6.66002 12.3766 6.64673 12.3811 6.63323 12.3852C6.59451 12.3976 6.55578 12.4099 6.51882 12.4275C6.4801 12.4451 6.44314 12.4662 6.40619 12.4873L6.40616 12.4873L6.39056 12.4963C6.36192 12.5128 6.33261 12.5296 6.30582 12.5489C6.27627 12.5696 6.25044 12.5928 6.22417 12.6164L6.22416 12.6164L6.20901 12.6299L6.19009 12.6465L6.19008 12.6465C6.1666 12.6669 6.14358 12.6869 6.12275 12.7091C6.09459 12.7391 6.06818 12.7725 6.04354 12.8059L6.02625 12.828L6.02623 12.828C6.00744 12.8519 5.98889 12.8754 5.97137 12.901C5.95136 12.9318 5.93539 12.9639 5.91875 12.9974L5.91152 13.0119L5.89618 13.042L5.89617 13.042C5.88317 13.0673 5.87004 13.0928 5.85871 13.1193C5.84592 13.152 5.83657 13.1847 5.82695 13.2183L5.81999 13.2425C5.81719 13.2527 5.81427 13.2629 5.81136 13.273C5.80327 13.301 5.79524 13.3289 5.79006 13.3587C5.78292 13.3944 5.78041 13.4301 5.77784 13.4667L5.77598 13.4925C5.77523 13.5059 5.77354 13.519 5.77184 13.5322C5.76952 13.5501 5.76718 13.5682 5.76718 13.5875V13.6456V13.6474V13.6614C5.76718 13.9079 5.77774 14.1526 5.79182 14.3955C5.88336 18.8472 4.80431 20.7712 3.852 21.6003C2.79232 22.5227 1.60589 22.3308 1.52844 22.3149C0.845455 22.1776 0.174791 22.6124 0.0286881 23.2954C-0.119175 23.9819 0.319133 24.6579 1.0074 24.8057C1.23272 24.8533 1.52492 24.8867 1.86289 24.8867C2.85921 24.8867 4.24806 24.5998 5.46617 23.57C6.38856 22.7902 7.0909 21.7076 7.57146 20.3346C9.92318 24.4167 14.3379 27.1751 19.3864 27.1751C23.2995 27.1751 26.8306 25.5169 29.3179 22.8729C29.9745 27.0888 33.2591 28.2787 33.3031 28.2928C33.4404 28.3404 33.5813 28.3615 33.7186 28.3615C34.2502 28.3615 34.7483 28.0323 34.9296 27.5042C35.1585 26.8388 34.8117 26.1189 34.1445 25.8918H34.1498ZM8.14713 11.3961L6.5224 10.8204C5.71267 10.5353 5.29021 9.64811 5.57713 8.8419C5.86406 8.0357 6.753 7.61499 7.56096 7.90016L9.18569 8.47577C9.99542 8.76093 10.4179 9.64811 10.131 10.4543C9.90565 11.0898 9.30539 11.4858 8.66641 11.4858C8.49391 11.4858 8.31964 11.4577 8.14713 11.3961Z" fill="#212121"/>
</svg>
