<svg width="220" height="123" viewBox="0 0 220 123" fill="none" xmlns="http://www.w3.org/2000/svg">
<g clip-path="url(#clip0_4674_296)">
<path d="M109.611 7.11678C108.732 7.11678 108.02 7.82892 108.02 8.70787V16.1339C108.02 17.0129 108.732 17.725 109.611 17.725C110.49 17.725 111.202 17.0129 111.202 16.1339V8.70787C111.202 7.82892 110.49 7.11678 109.611 7.11678Z" fill="#15ECDA"/>
<path d="M123.743 13.1693C123.081 12.5891 122.076 12.6573 121.497 13.3187L116.547 18.9767C115.968 19.6381 116.035 20.6432 116.697 21.2219C116.998 21.4859 117.372 21.615 117.744 21.615C118.186 21.615 118.627 21.4308 118.942 21.0711L123.892 15.4131C124.471 14.7517 124.404 13.7466 123.743 13.1679V13.1693Z" fill="#15ECDA"/>
<path d="M98.8536 13.7538C98.3199 13.0547 97.322 12.9227 96.6229 13.4565C95.9238 13.9902 95.7918 14.9881 96.3256 15.6872L100.922 21.6977C101.235 22.1067 101.708 22.3228 102.188 22.3228C102.525 22.3228 102.864 22.2155 103.154 21.995C103.852 21.4613 103.985 20.4634 103.451 19.7643L98.8551 13.7538H98.8536Z" fill="#15ECDA"/>
<path d="M175.238 39.4057C174.386 39.5812 173.509 39.6638 172.631 39.6595C171.732 39.6522 171.034 40.3615 171.029 41.239C171.023 42.1179 171.729 42.8359 172.608 42.8417C172.646 42.8417 172.683 42.8417 172.721 42.8417C173.784 42.8417 174.846 42.7343 175.877 42.5226C176.739 42.3456 177.293 41.5058 177.116 40.6443C176.94 39.7842 176.101 39.2273 175.238 39.4057Z" fill="#15ECDA"/>
<path d="M205.41 76.4475C206.166 75.9978 206.413 75.0203 205.963 74.2661C205.513 73.5119 204.536 73.2653 203.78 73.7149C203.024 74.1645 202.778 75.1421 203.228 75.8963C203.677 76.6505 204.655 76.8971 205.41 76.4475Z" fill="#15ECDA"/>
<path d="M219.533 68.537L212.984 61.3589C212.661 61.0036 212.22 60.7947 211.741 60.773C211.26 60.7556 210.804 60.9166 210.458 61.2328L208.656 62.8587C208.004 63.4475 207.951 64.4541 208.54 65.1053C209.129 65.758 210.136 65.8088 210.787 65.2214L211.562 64.5223L216.241 69.6509L205.041 79.8385L200.364 74.707C200.929 74.108 200.946 73.1652 200.382 72.5459C199.792 71.8961 198.785 71.8482 198.134 72.44L197.191 73.2987C196.466 73.9629 196.415 75.0957 197.078 75.8267L203.626 83.012C203.95 83.3659 204.392 83.5719 204.871 83.5922C204.897 83.5922 204.923 83.5936 204.951 83.5936C205.402 83.5936 205.828 83.4268 206.154 83.1266L219.411 71.0694C219.766 70.7459 219.974 70.305 219.997 69.8264C220.02 69.3478 219.853 68.8894 219.531 68.537H219.533Z" fill="#15ECDA"/>
<path d="M150.449 22.4403C152.211 25.2541 154.902 27.3557 158.076 28.3797C159.505 28.8409 160.969 29.0643 162.419 29.0643C166.429 29.0643 170.327 27.3528 173.059 24.2228C173.062 24.2199 173.065 24.2156 173.068 24.2127C173.754 23.4585 174.376 22.5302 174.917 21.4526C175.31 20.6664 174.994 19.7106 174.208 19.3161C173.422 18.9216 172.466 19.2392 172.073 20.0254C171.661 20.8463 171.182 21.5642 170.689 22.1009C170.685 22.1052 170.682 22.1096 170.678 22.1154C170.672 22.1212 170.667 22.1255 170.662 22.1313C167.781 25.4339 163.225 26.6987 159.054 25.3527C156.475 24.5216 154.307 22.7739 152.949 20.4315C152.941 20.417 152.93 20.4039 152.922 20.3894C152.703 19.8267 152.173 19.4147 151.532 19.377C150.279 19.3045 149.592 18.8012 149.487 17.8817C149.347 16.6387 151.058 15.8772 151.196 15.8177C151.247 15.7974 151.294 15.7757 151.342 15.751C151.36 15.7423 151.376 15.7322 151.393 15.722C151.419 15.7075 151.445 15.693 151.471 15.6756C151.493 15.6611 151.515 15.6466 151.535 15.6306C151.554 15.6176 151.573 15.6031 151.592 15.59C151.613 15.5726 151.635 15.5538 151.657 15.5349C151.673 15.5204 151.689 15.5073 151.705 15.4928C151.725 15.474 151.745 15.4537 151.764 15.4334C151.78 15.4174 151.795 15.4015 151.809 15.3841C151.827 15.3638 151.843 15.3435 151.86 15.3231C151.876 15.3043 151.891 15.284 151.905 15.2637C151.92 15.2448 151.933 15.2245 151.946 15.2057C151.96 15.1825 151.975 15.1593 151.989 15.136C152.001 15.1172 152.011 15.0983 152.021 15.0795C152.034 15.0548 152.047 15.0287 152.059 15.0026C152.067 14.9823 152.076 14.9634 152.085 14.9431C152.095 14.9185 152.105 14.8924 152.114 14.8677C152.123 14.8445 152.13 14.8213 152.137 14.7981C152.144 14.7763 152.15 14.7531 152.156 14.7299C152.163 14.7024 152.17 14.6734 152.176 14.6444C152.179 14.6255 152.182 14.6081 152.186 14.5892C152.192 14.5559 152.197 14.5225 152.199 14.4877C152.199 14.4819 152.201 14.4747 152.202 14.4689L152.413 11.9408C152.485 11.0662 151.834 10.2961 150.959 10.2235C150.088 10.1409 149.315 10.8008 149.242 11.6768L149.106 13.3158C147.67 14.1715 146.057 15.8221 146.331 18.237C146.624 20.8231 148.52 22.069 150.456 22.4403H150.449Z" fill="#001130"/>
<path d="M156.874 12.9227L156.867 12.9198C156.02 12.6834 155.147 13.1853 154.913 14.0309C154.68 14.8779 155.18 15.7554 156.027 15.9889C156.168 16.0281 156.311 16.0469 156.451 16.0469C157.148 16.0469 157.788 15.5842 157.984 14.8793C158.217 14.0323 157.721 13.1563 156.873 12.9227H156.874Z" fill="#001130"/>
<path d="M149.629 8.83261C149.863 8.83261 150.099 8.7804 150.324 8.67162C154.874 6.4583 156.802 5.53729 156.806 5.53584C156.831 5.52424 156.854 5.50974 156.878 5.49668C156.892 5.48943 156.906 5.48363 156.919 5.47638C159.598 3.923 162.824 3.57635 165.768 4.52636C169.319 5.67218 172.013 8.50772 172.981 12.1163C172.981 12.1192 172.981 12.1236 172.982 12.1265C173.045 12.3614 174.556 17.9803 178.352 24.2649C178.651 24.7609 179.177 25.0336 179.715 25.0336C179.995 25.0336 180.279 24.9596 180.536 24.8044C181.289 24.3505 181.53 23.3729 181.076 22.6201C177.528 16.7446 176.073 11.3636 176.059 11.3099C176.059 11.307 176.057 11.3041 176.056 11.3012C174.811 6.64105 171.33 2.97588 166.744 1.49647C162.966 0.279585 158.829 0.711805 155.385 2.6858C155.054 2.8439 153.077 3.79101 148.93 5.80852C148.141 6.19288 147.812 7.14579 148.196 7.93481C148.472 8.50192 149.039 8.83116 149.628 8.83116L149.629 8.83261Z" fill="#001130"/>
<path d="M58.0944 12.1685C57.3025 12.55 56.9704 13.5014 57.3518 14.2919C57.7333 15.0853 58.6847 15.4174 59.4767 15.036C59.7247 14.9156 60.1932 14.7981 60.4006 14.8184C60.6979 15.0708 61.0649 15.197 61.4304 15.197C61.8495 15.197 62.2658 15.0331 62.5791 14.7067C63.1868 14.0729 63.1665 13.0649 62.5327 12.4572C60.8966 10.8878 58.3773 12.0336 58.0959 12.1685H58.0944Z" fill="#001130"/>
<path d="M40.8332 16.4168C41.2364 19.3016 43.0537 22.7492 45.1626 24.6333C45.1626 24.6333 45.1626 24.6333 45.1641 24.6347C45.167 24.6376 45.1713 24.6405 45.1742 24.6449C45.1815 24.6507 45.1873 24.6579 45.1945 24.6637C45.196 24.6652 45.1989 24.6666 45.2003 24.6681C47.8125 27.0859 51.1557 28.3521 54.5467 28.3521C56.4859 28.3521 58.4411 27.9388 60.2831 27.0903C63.4159 25.6471 65.8976 23.0886 67.274 19.8861C67.2958 19.8354 67.3146 19.7846 67.3306 19.7338C68.1965 19.4162 69.219 18.8244 69.76 17.7294C70.1444 16.9534 70.4069 15.6538 69.4815 13.8742C68.4807 11.9481 67.4916 10.0379 66.881 8.8558C66.4763 8.07549 65.5176 7.76945 64.7358 8.17411C63.9555 8.57733 63.6495 9.53749 64.0541 10.3178C64.6662 11.5028 65.6554 13.413 66.659 15.3406C66.9187 15.8395 66.9709 16.1919 66.9085 16.3181C66.8113 16.5139 66.3124 16.7881 65.6481 16.9041C64.817 17.0491 64.2514 17.8178 64.3427 18.646C63.2753 21.1161 61.3622 23.0872 58.9516 24.1996C55.0544 25.9967 50.4943 25.2526 47.3353 22.3083C47.331 22.3039 47.3266 22.301 47.3223 22.2967C47.3165 22.2909 47.3121 22.2851 47.3063 22.2807C45.7457 20.8999 44.288 18.1311 43.9863 15.9773C43.9863 15.9729 43.9849 15.9686 43.9834 15.9657C43.9834 15.9613 43.9834 15.957 43.982 15.9512C43.2205 11.0909 45.7587 6.27989 50.1549 4.25368C52.9078 2.98602 56.0725 2.96717 58.8414 4.20291C58.8747 4.21742 58.9095 4.23047 58.9443 4.24207C60.1061 5.13552 62.1019 6.17401 64.1411 6.17401C65.4088 6.17401 66.6909 5.7737 67.8005 4.68735C68.4285 4.07238 68.4387 3.06435 67.8252 2.43777C67.2102 1.80975 66.2022 1.79959 65.5756 2.41311C63.8902 4.06512 60.8458 1.68936 60.7965 1.65165C60.6486 1.53272 60.4832 1.4457 60.3135 1.38768C60.2584 1.35432 60.2004 1.32241 60.1395 1.2963C56.5338 -0.315093 52.4088 -0.290436 48.8234 1.36302C43.1509 3.97665 39.8701 10.1583 40.8332 16.4051C40.8332 16.4095 40.8332 16.4124 40.8332 16.4168Z" fill="#001130"/>
<path d="M159.042 24.0024C159.054 24.0024 159.087 24.0038 159.143 24.0038C159.695 24.0038 162.328 23.8921 164.033 21.834C164.595 21.1581 164.5 20.1545 163.823 19.5946C163.147 19.0333 162.143 19.1276 161.582 19.8049C160.729 20.8347 159.166 20.826 159.163 20.8231C158.294 20.8028 157.546 21.4743 157.512 22.3533C157.479 23.2322 158.165 23.9705 159.042 24.0038V24.0024Z" fill="#001130"/>
<path d="M209.869 68.3513C209.414 66.4484 206.986 63.6404 204.945 63.8884C204.357 63.9624 203.76 64.1074 203.191 64.3294C197.05 52.6188 184.616 38.5804 175.272 30.1477C175.27 30.1448 175.268 30.1434 175.265 30.1419C175.255 30.1318 175.243 30.1231 175.233 30.1129C175.226 30.1071 175.22 30.1028 175.213 30.097C175.183 30.0708 175.152 30.0447 175.12 30.0215C175.107 30.0114 175.094 30.0027 175.08 29.9925C175.051 29.9722 175.023 29.9534 174.993 29.936C174.974 29.9244 174.955 29.9142 174.936 29.9041C174.911 29.8895 174.885 29.8765 174.859 29.8634C174.836 29.8518 174.813 29.8417 174.79 29.8315C174.766 29.8214 174.743 29.8127 174.72 29.804C174.694 29.7938 174.668 29.7851 174.642 29.7779C174.618 29.7706 174.597 29.7634 174.573 29.7576C174.547 29.7503 174.521 29.7445 174.494 29.7387C174.469 29.7329 174.446 29.7286 174.421 29.7242C174.396 29.7199 174.372 29.717 174.347 29.7141C174.32 29.7111 174.292 29.7082 174.266 29.7068C174.244 29.7068 174.222 29.7053 174.201 29.7039C174.17 29.7039 174.14 29.7039 174.109 29.7039C174.09 29.7039 174.072 29.7053 174.053 29.7068C174.019 29.7097 173.987 29.7126 173.954 29.717C173.937 29.7199 173.919 29.7228 173.903 29.7242C173.87 29.73 173.837 29.7358 173.805 29.7445C173.787 29.7489 173.77 29.7532 173.752 29.7576C173.721 29.7663 173.69 29.775 173.66 29.7851C173.639 29.7924 173.62 29.7996 173.6 29.8069C173.573 29.817 173.545 29.8286 173.519 29.8402C173.496 29.8504 173.473 29.862 173.449 29.8736C173.426 29.8852 173.404 29.8968 173.383 29.9099C173.357 29.9244 173.332 29.9403 173.306 29.9577C173.293 29.9664 173.28 29.9737 173.267 29.9824C173.261 29.9867 173.255 29.9911 173.249 29.9954C173.226 30.0114 173.204 30.0302 173.181 30.0476C173.159 30.065 173.139 30.081 173.119 30.0984C173.103 30.1129 173.087 30.1289 173.071 30.1434C173.046 30.1666 173.023 30.1898 173 30.2144C172.995 30.2188 172.991 30.2231 172.987 30.2275C172.978 30.2362 172.972 30.2463 172.963 30.2565C172.94 30.2841 172.917 30.3102 172.897 30.3392C172.885 30.3551 172.874 30.3711 172.863 30.387C172.845 30.4131 172.827 30.4393 172.811 30.4668C172.8 30.4871 172.788 30.5074 172.776 30.5277C172.763 30.5524 172.75 30.5756 172.739 30.6002C172.727 30.6249 172.717 30.6481 172.705 30.6728C172.697 30.6945 172.686 30.7163 172.679 30.7395C172.669 30.7656 172.66 30.7932 172.652 30.8207C172.644 30.8425 172.639 30.8642 172.633 30.886C172.626 30.9135 172.62 30.9411 172.614 30.9686C172.61 30.9919 172.605 31.0151 172.601 31.0383C172.597 31.0644 172.594 31.0905 172.591 31.1166C172.588 31.1427 172.585 31.1674 172.583 31.1935C172.582 31.2167 172.581 31.2399 172.581 31.2645C172.581 31.2935 172.581 31.3211 172.581 31.3501C172.581 31.3704 172.582 31.3922 172.583 31.4125C172.586 31.4429 172.589 31.4734 172.592 31.5038C172.595 31.5227 172.598 31.543 172.601 31.5619C172.607 31.5938 172.612 31.6242 172.62 31.6561C172.624 31.675 172.63 31.6939 172.634 31.7127C172.643 31.7432 172.652 31.7722 172.66 31.8026C172.668 31.8229 172.675 31.8432 172.684 31.865C172.694 31.8926 172.704 31.9187 172.717 31.9448C172.727 31.968 172.739 31.9897 172.75 32.0129C172.762 32.0361 172.775 32.0608 172.788 32.084C172.801 32.1072 172.816 32.1304 172.83 32.1522C172.84 32.1681 172.847 32.1826 172.859 32.1986C178.806 40.8473 187.82 55.1773 188.275 59.2051C188.367 60.013 188.338 61.1675 187.685 62.0725C187.021 62.9892 185.789 63.5563 184.024 63.755L176.093 64.6513C176.093 64.6513 176.085 64.6513 176.08 64.6513L160.481 66.415C157.315 66.7762 155.627 65.6318 155.321 62.9297C154.865 58.902 160.454 42.9214 164.319 33.1617C164.643 32.3451 164.242 31.4197 163.426 31.0963C163.069 30.9556 162.692 30.9527 162.352 31.0615C162.345 31.0615 162.339 31.0615 162.332 31.0615L142.91 32.6685L119.125 27.3557C117.799 26.79 116.337 26.5768 115.233 26.5652C114.56 26.4245 112.779 26.1954 111.308 27.3064C110.962 27.5675 110.666 27.8778 110.419 28.2332C110.241 27.9953 110.039 27.7778 109.811 27.582C108.393 26.3564 106.573 26.4564 105.892 26.5478C105.095 26.5043 102.532 26.4651 100.562 27.6501L82.8862 36.8457C81.9536 37.0792 76.5146 38.2772 71.2844 36.0378C64.5937 33.1704 57.4722 30.3479 57.4012 30.3189C57.1633 30.2246 56.9167 30.1941 56.6789 30.2144C56.383 30.1883 56.0769 30.2449 55.7941 30.3943C55.0182 30.8077 54.7252 31.7722 55.1385 32.5467C60.0772 41.8104 67.4234 57.0628 67.4234 61.1153C67.4234 63.8362 65.8744 65.159 62.6879 65.159H50.1071C50.1071 65.159 50.1042 65.159 50.1027 65.159C50.0433 65.1561 49.9853 65.1561 49.9272 65.159H38.9941C35.8076 65.159 34.2585 63.8362 34.2585 61.1153C34.2585 57.0628 41.6063 41.8104 46.5434 32.5467C46.9568 31.7707 46.6638 30.8077 45.8879 30.3943C45.5499 30.2144 45.1757 30.1695 44.8262 30.2391C44.6086 30.2304 44.3853 30.2638 44.1691 30.3508C44.0923 30.3812 36.5067 33.4024 30.5774 35.3692C24.0927 37.5201 19.9199 43.6089 19.7473 43.8671C19.7299 43.8917 19.7139 43.9178 19.6979 43.9425L11.0245 58.4828C9.72353 57.9389 8.29633 58.0303 7.28975 58.39C7.25784 58.4016 7.22738 58.4132 7.19692 58.4262L2.87327 60.2842C2.45411 60.435 1.10813 61.0181 0.41049 62.4946C-0.176923 63.7361 -0.13196 65.188 0.539576 66.8139C1.19226 68.3905 2.2293 69.0809 2.9835 69.3826C4.67322 70.0556 6.29622 69.3753 6.45142 69.3057L9.55093 67.9887C10.3603 67.645 10.7359 66.7109 10.3936 65.9016C10.0499 65.0937 9.11581 64.7152 8.30648 65.0589L5.18232 66.3875C5.18232 66.3875 4.60215 66.6021 4.16268 66.4266C3.89291 66.3193 3.66229 66.0394 3.47954 65.5985C3.26633 65.085 3.05893 64.3685 3.27794 63.8768C3.45924 63.4678 3.91466 63.2952 3.91031 63.2952C3.96543 63.2778 4.02054 63.259 4.07566 63.2358L8.40076 61.3778C8.83298 61.2328 10.0919 60.9644 10.6967 62.454C12.2864 66.3701 11.6032 68.36 11.5655 68.4659C11.2218 69.2549 11.5699 70.1788 12.3546 70.5443C12.5721 70.6444 12.7998 70.6923 13.0246 70.6923C13.6237 70.6923 14.1995 70.3514 14.4692 69.7713C14.6128 69.4609 15.8138 66.592 13.6483 61.256C13.5714 61.066 13.4873 60.8876 13.3974 60.7164C13.409 60.699 13.4221 60.6845 13.4322 60.6671L22.4058 45.6206C22.7162 45.1753 26.3292 40.1352 31.5811 38.3933C35.0432 37.246 39.0507 35.7477 41.8456 34.6759C38.2457 41.6784 31.0778 56.2405 31.0778 61.1196C31.0778 62.5367 31.4781 66.6341 35.9018 67.9409L35.7713 110.494C35.7684 111.373 36.4791 112.088 37.3581 112.09H37.3624C38.2384 112.09 38.9506 111.38 38.9535 110.503L39.084 68.3455H48.3129L45.7428 109.64C45.6877 110.517 46.3549 111.273 47.2309 111.327C47.2643 111.33 47.2977 111.33 47.331 111.33C48.165 111.33 48.8655 110.681 48.9178 109.837L51.5009 68.3441H61.0649L55.6027 110.291C55.4881 111.163 56.1045 111.962 56.9747 112.075C57.0444 112.085 57.114 112.088 57.1822 112.088C57.9697 112.088 58.6543 111.504 58.7587 110.703L64.2862 68.2484C70.1212 67.5057 70.6071 62.6817 70.6071 61.1182C70.6071 56.255 63.4871 41.7756 59.877 34.7455C62.5588 35.8318 66.3603 37.3925 70.0327 38.9662C72.9205 40.2019 75.8227 40.5616 78.2217 40.5616C81.43 40.5616 83.739 39.9191 83.9029 39.8712C84.0059 39.8422 84.1045 39.8016 84.2003 39.7537L98.1589 32.4916C98.1981 37.4258 101.35 39.3665 103.118 39.703C103.218 39.7218 103.319 39.732 103.418 39.732C104.169 39.732 104.847 39.2026 104.992 38.4397C105.156 37.5767 104.603 36.7456 103.74 36.5817C103.466 36.5193 101.068 35.8464 101.367 31.7185C101.402 31.2283 101.569 30.8802 101.908 30.5901C102 30.5118 102.1 30.4407 102.208 30.3754C102.211 30.3754 102.213 30.3725 102.216 30.3711C103.324 29.7053 105.202 29.6821 105.826 29.7344C105.979 29.7474 106.133 29.7387 106.284 29.7082C106.433 29.6763 107.286 29.6038 107.733 29.9911C108.18 30.3769 108.229 31.2341 108.193 31.8868C108.114 33.269 107.775 33.5533 107.775 33.5547C107.466 33.6824 106.264 33.137 105.356 32.3465C104.696 31.7678 103.692 31.8331 103.112 32.4916C102.532 33.1501 102.596 34.1566 103.256 34.7368C103.791 35.2067 106.579 37.5013 109.004 36.4889C109.603 36.238 110.087 35.8319 110.463 35.2763C110.775 35.6883 111.162 36.0102 111.626 36.2365C113.958 37.378 116.813 35.3112 117.361 34.8862C118.054 34.3481 118.179 33.3517 117.642 32.6584C117.107 31.9636 116.108 31.8345 115.411 32.3697C114.517 33.0558 113.307 33.517 113.023 33.3778C112.953 33.3285 112.691 32.8919 112.689 31.6677C112.688 30.7598 112.876 30.1144 113.218 29.8489C113.635 29.5284 114.395 29.6285 114.612 29.685C114.76 29.7271 114.915 29.7489 115.071 29.746C115.123 29.7634 119.3 29.7532 119.338 32.0666C119.406 36.1277 117.087 36.631 116.798 36.676C115.938 36.7906 115.326 37.5738 115.426 38.4368C115.519 39.2475 116.208 39.8451 117.004 39.8451C117.065 39.8451 117.127 39.8408 117.19 39.835C119.074 39.616 122.614 37.7 122.518 32.0129C122.514 31.7867 122.495 31.5706 122.468 31.3603L142.451 35.8231C142.566 35.8493 142.682 35.8623 142.798 35.8623C142.841 35.8623 142.885 35.8609 142.929 35.8565L160.413 34.4105C157.869 41.033 151.57 58.1042 152.155 63.2836C152.327 64.8138 153.325 69.4275 158.969 69.648L159.351 111.037C159.36 111.91 160.071 112.613 160.943 112.613H160.957C161.836 112.605 162.542 111.885 162.534 111.008L162.149 69.4246L171.216 68.4006L169.256 111.614C169.216 112.491 169.896 113.235 170.775 113.276C170.799 113.276 170.824 113.278 170.847 113.278C171.693 113.278 172.396 112.612 172.436 111.758L174.089 75.2799L181.853 113.988C182.005 114.745 182.67 115.268 183.412 115.268C183.515 115.268 183.621 115.257 183.727 115.236C184.588 115.063 185.147 114.223 184.974 113.363L175.85 67.8785L184.185 66.9357L192.994 110.28C193.147 111.034 193.81 111.554 194.551 111.554C194.657 111.554 194.763 111.543 194.869 111.521C195.73 111.347 196.287 110.507 196.112 109.644L187.285 66.2018C188.541 65.6869 189.539 64.9298 190.261 63.9319C191.25 62.5628 191.658 60.8034 191.436 58.8425C191.092 55.8053 187.527 49.3075 183.837 43.2666C190.441 50.5665 196.901 58.9817 200.652 66.344C200.228 67.03 199.974 67.8727 199.976 68.888C199.976 69.7669 200.689 70.4776 201.567 70.4776H201.568C202.447 70.4776 203.158 69.764 203.158 68.8851C203.158 67.893 203.825 67.2838 205.142 67.0706C205.64 67.336 206.608 68.4021 206.772 69.0867C206.977 69.941 207.834 70.4675 208.69 70.2659C209.544 70.0614 210.072 69.2027 209.868 68.3484L209.869 68.3513Z" fill="#001130"/>
<path d="M55.4707 113.317C52.9702 113.317 50.6118 114.22 48.9279 115.756C47.244 114.219 44.8856 113.317 42.3851 113.317C37.4001 113.317 33.3448 116.854 33.3448 121.204C33.3448 122.083 34.0569 122.795 34.9359 122.795H62.9185C63.7974 122.795 64.5096 122.083 64.5096 121.204C64.5096 116.854 60.4543 113.317 55.4707 113.317ZM36.8722 119.613C37.6858 117.798 39.8498 116.499 42.3851 116.499C44.5782 116.499 46.5725 117.478 47.5906 119.056C47.7473 119.297 47.9619 119.488 48.21 119.613H36.8722ZM49.6444 119.613C49.8924 119.488 50.1085 119.297 50.2637 119.056C51.2819 117.478 53.2762 116.499 55.4707 116.499C58.006 116.499 60.17 117.798 60.9837 119.613H49.6459H49.6444Z" fill="#001130"/>
<path d="M164.291 113.317C159.306 113.317 155.251 116.854 155.251 121.204C155.251 122.083 155.963 122.795 156.842 122.795H171.741C172.62 122.795 173.332 122.083 173.332 121.204C173.332 116.854 169.276 113.317 164.293 113.317H164.291ZM158.778 119.613C159.592 117.798 161.756 116.499 164.291 116.499C166.827 116.499 168.991 117.798 169.804 119.613H158.778Z" fill="#001130"/>
<path d="M193.63 113.317C188.645 113.317 184.59 116.854 184.59 121.204C184.59 122.083 185.302 122.795 186.181 122.795H201.079C201.958 122.795 202.671 122.083 202.671 121.204C202.671 116.854 198.615 113.317 193.632 113.317H193.63ZM188.117 119.613C188.931 117.798 191.095 116.499 193.63 116.499C196.166 116.499 198.33 117.798 199.143 119.613H188.117Z" fill="#001130"/>
</g>
<defs>
<clipPath id="clip0_4674_296">
<rect width="220" height="122.69" fill="white" transform="translate(0 0.10553)"/>
</clipPath>
</defs>
</svg>
